G75*
%MOIN*%
%OFA0B0*%
%FSLAX24Y24*%
%IPPOS*%
%LPD*%
%AMOC8*
5,1,8,0,0,1.08239X$1,22.5*
%
%ADD10C,0.0926*%
%ADD11C,0.0160*%
%ADD12C,0.0800*%
%ADD13C,0.1326*%
%ADD14C,0.0493*%
%ADD15C,0.1370*%
%ADD16R,0.0560X0.0310*%
%ADD17C,0.0414*%
%ADD18OC8,0.0720*%
%ADD19OC8,0.0397*%
%ADD20R,0.0436X0.0436*%
D10*
X006648Y001440D03*
X015148Y001440D03*
X015148Y009940D03*
X006648Y009940D03*
D11*
X009335Y005565D02*
X009335Y004315D01*
X012460Y004315D01*
X012460Y005565D01*
X009335Y005565D01*
X009335Y005445D02*
X012460Y005445D01*
X012460Y005286D02*
X009335Y005286D01*
X009335Y005128D02*
X012460Y005128D01*
X012460Y004969D02*
X009335Y004969D01*
X009335Y004811D02*
X012460Y004811D01*
X012460Y004652D02*
X009335Y004652D01*
X009335Y004494D02*
X012460Y004494D01*
X012460Y004335D02*
X009335Y004335D01*
D12*
X008093Y004312D03*
X008093Y005246D03*
X008093Y006134D03*
X008093Y007068D03*
X013703Y007062D03*
X013703Y006134D03*
X013703Y005246D03*
X013703Y004318D03*
D13*
X007148Y003406D03*
X007148Y007973D03*
D14*
X007109Y006576D03*
X007109Y004804D03*
D15*
X014717Y003105D03*
X014717Y008275D03*
D16*
X011398Y008190D03*
X011398Y007690D03*
X011398Y007190D03*
X010398Y007190D03*
X010398Y007690D03*
X010398Y008190D03*
D17*
X009676Y001440D03*
X008495Y001440D03*
D18*
X009398Y010105D03*
X010398Y010105D03*
X011398Y010105D03*
X012398Y010105D03*
D19*
X012210Y001735D03*
X012210Y001440D03*
X011617Y001440D03*
X011617Y001735D03*
X011023Y001735D03*
X011023Y001440D03*
D20*
X010898Y004565D03*
X011273Y004565D03*
X011273Y004940D03*
X010898Y004940D03*
X010523Y004940D03*
X010523Y004565D03*
X010523Y005315D03*
X010898Y005315D03*
X011273Y005315D03*
M02*
