G75*
%MOIN*%
%OFA0B0*%
%FSLAX24Y24*%
%IPPOS*%
%LPD*%
%AMOC8*
5,1,8,0,0,1.08239X$1,22.5*
%
%ADD10C,0.0926*%
%ADD11C,0.0800*%
%ADD12C,0.1326*%
%ADD13C,0.0493*%
%ADD14R,0.0769X0.1320*%
%ADD15R,0.0930X0.0300*%
%ADD16R,0.0454X0.0493*%
%ADD17R,0.0493X0.0454*%
%ADD18C,0.1370*%
%ADD19R,0.0454X0.0454*%
%ADD20R,0.0336X0.0651*%
%ADD21R,0.0454X0.0296*%
%ADD22R,0.0454X0.0375*%
%ADD23C,0.0414*%
%ADD24OC8,0.0720*%
%ADD25OC8,0.0397*%
%ADD26C,0.0136*%
%ADD27R,0.0436X0.0436*%
D10*
X006648Y001440D03*
X015148Y001440D03*
X015148Y009940D03*
X006648Y009940D03*
D11*
X008093Y007068D03*
X008093Y006134D03*
X008093Y005246D03*
X008093Y004312D03*
X013703Y004318D03*
X013703Y005246D03*
X013703Y006134D03*
X013703Y007062D03*
D12*
X007148Y007973D03*
X007148Y003406D03*
D13*
X007109Y004804D03*
X007109Y006576D03*
D14*
X009796Y004940D03*
X012000Y004940D03*
D15*
X012218Y006940D03*
X012218Y007440D03*
X012218Y007940D03*
X012218Y008440D03*
X009568Y008440D03*
X009568Y007940D03*
X009568Y007440D03*
X009568Y006940D03*
D16*
X008398Y007980D03*
X008398Y008650D03*
X009376Y009127D03*
X010045Y009127D03*
X011813Y009190D03*
X012483Y009190D03*
X013313Y009940D03*
X013983Y009940D03*
X011920Y003377D03*
X011251Y003377D03*
D17*
X012063Y006190D03*
X012733Y006190D03*
X010233Y006190D03*
X009563Y006190D03*
X013398Y008605D03*
X013398Y009275D03*
X008398Y009480D03*
X008398Y010150D03*
D18*
X014717Y008275D03*
X014717Y003105D03*
D19*
X014310Y001841D03*
X014310Y001171D03*
X012735Y001171D03*
X012735Y001841D03*
D20*
X009971Y002129D03*
X009381Y002129D03*
X008200Y002129D03*
D21*
X007648Y001046D03*
X010522Y001046D03*
D22*
X010522Y001873D03*
X007648Y001873D03*
D23*
X008495Y001440D03*
X009676Y001440D03*
D24*
X009398Y010105D03*
X010398Y010105D03*
X011398Y010105D03*
X012398Y010105D03*
D25*
X012210Y001735D03*
X012210Y001440D03*
X011617Y001440D03*
X011617Y001735D03*
X011023Y001735D03*
X011023Y001440D03*
D26*
X011081Y002593D02*
X011081Y002911D01*
X011399Y002911D01*
X011399Y002593D01*
X011081Y002593D01*
X011081Y002728D02*
X011399Y002728D01*
X011399Y002863D02*
X011081Y002863D01*
X011772Y002911D02*
X011772Y002593D01*
X011772Y002911D02*
X012090Y002911D01*
X012090Y002593D01*
X011772Y002593D01*
X011772Y002728D02*
X012090Y002728D01*
X012090Y002863D02*
X011772Y002863D01*
D27*
X011273Y004565D03*
X010898Y004565D03*
X010523Y004565D03*
X010523Y004940D03*
X010898Y004940D03*
X011273Y004940D03*
X011273Y005315D03*
X010898Y005315D03*
X010523Y005315D03*
M02*
