G75*
%MOIN*%
%OFA0B0*%
%FSLAX24Y24*%
%IPPOS*%
%LPD*%
%AMOC8*
5,1,8,0,0,1.08239X$1,22.5*
%
%ADD10C,0.0080*%
%ADD11C,0.0020*%
%ADD12C,0.0060*%
%ADD13C,0.0050*%
%ADD14C,0.0010*%
D10*
X005967Y003328D02*
X006360Y003328D01*
X005967Y003328D02*
X005967Y008052D01*
X006360Y008052D01*
X007542Y007265D02*
X007542Y004115D01*
X008495Y001952D02*
X009085Y001952D01*
X007766Y001558D02*
X007766Y001322D01*
X008022Y000928D02*
X010148Y000928D01*
X010404Y001322D02*
X010404Y001558D01*
X011652Y002571D02*
X011652Y002752D01*
X011530Y002660D01*
X011652Y002752D02*
X011652Y002934D01*
X011530Y002838D02*
X011646Y002762D01*
X013198Y003090D02*
X013898Y003090D01*
X013198Y003090D02*
X013198Y003990D01*
X013198Y007390D02*
X013198Y008290D01*
X013898Y008290D01*
D11*
X013878Y008729D02*
X013658Y008729D01*
X013658Y008839D01*
X013694Y008876D01*
X013768Y008876D01*
X013804Y008839D01*
X013804Y008729D01*
X013804Y008802D02*
X013878Y008876D01*
X013841Y008950D02*
X013878Y008987D01*
X013878Y009060D01*
X013841Y009097D01*
X013804Y009097D01*
X013768Y009060D01*
X013768Y009023D01*
X013768Y009060D02*
X013731Y009097D01*
X013694Y009097D01*
X013658Y009060D01*
X013658Y008987D01*
X013694Y008950D01*
X013812Y009460D02*
X013812Y009680D01*
X013922Y009680D01*
X013959Y009643D01*
X013959Y009570D01*
X013922Y009533D01*
X013812Y009533D01*
X013885Y009533D02*
X013959Y009460D01*
X014033Y009570D02*
X014180Y009570D01*
X014143Y009460D02*
X014143Y009680D01*
X014033Y009570D01*
X012055Y009586D02*
X012055Y009549D01*
X012018Y009512D01*
X011945Y009512D01*
X011908Y009549D01*
X011908Y009586D01*
X011945Y009623D01*
X012018Y009623D01*
X012055Y009586D01*
X012018Y009623D02*
X012055Y009659D01*
X012055Y009696D01*
X012018Y009733D01*
X011945Y009733D01*
X011908Y009696D01*
X011908Y009659D01*
X011945Y009623D01*
X011834Y009623D02*
X011834Y009696D01*
X011797Y009733D01*
X011687Y009733D01*
X011687Y009512D01*
X011687Y009586D02*
X011797Y009586D01*
X011834Y009623D01*
X011760Y009586D02*
X011834Y009512D01*
X009992Y009487D02*
X009955Y009450D01*
X009882Y009450D01*
X009845Y009487D01*
X009882Y009560D02*
X009845Y009597D01*
X009845Y009633D01*
X009882Y009670D01*
X009955Y009670D01*
X009992Y009633D01*
X009992Y009487D01*
X009992Y009560D02*
X009882Y009560D01*
X009771Y009560D02*
X009771Y009633D01*
X009734Y009670D01*
X009624Y009670D01*
X009624Y009450D01*
X009624Y009523D02*
X009734Y009523D01*
X009771Y009560D01*
X009698Y009523D02*
X009771Y009450D01*
X009003Y009604D02*
X008783Y009604D01*
X008783Y009714D01*
X008819Y009751D01*
X008893Y009751D01*
X008929Y009714D01*
X008929Y009604D01*
X008929Y009677D02*
X009003Y009751D01*
X009003Y009825D02*
X008856Y009972D01*
X008819Y009972D01*
X008783Y009935D01*
X008783Y009862D01*
X008819Y009825D01*
X009003Y009825D02*
X009003Y009972D01*
X008940Y008472D02*
X008940Y008325D01*
X008940Y008398D02*
X008720Y008398D01*
X008794Y008325D01*
X008757Y008251D02*
X008720Y008214D01*
X008720Y008141D01*
X008757Y008104D01*
X008904Y008104D01*
X008940Y008141D01*
X008940Y008214D01*
X008904Y008251D01*
X009224Y006670D02*
X009187Y006633D01*
X009187Y006487D01*
X009224Y006450D01*
X009297Y006450D01*
X009334Y006487D01*
X009408Y006487D02*
X009445Y006450D01*
X009518Y006450D01*
X009555Y006487D01*
X009555Y006523D01*
X009518Y006560D01*
X009481Y006560D01*
X009518Y006560D02*
X009555Y006597D01*
X009555Y006633D01*
X009518Y006670D01*
X009445Y006670D01*
X009408Y006633D01*
X009334Y006633D02*
X009297Y006670D01*
X009224Y006670D01*
X010073Y006607D02*
X010073Y006460D01*
X010073Y006570D02*
X010220Y006570D01*
X010220Y006607D02*
X010220Y006460D01*
X010368Y006460D02*
X010368Y006680D01*
X010441Y006680D02*
X010294Y006680D01*
X010220Y006607D02*
X010147Y006680D01*
X010073Y006607D01*
X010515Y006680D02*
X010662Y006680D01*
X010589Y006680D02*
X010589Y006460D01*
X010736Y006460D02*
X010810Y006460D01*
X010773Y006460D02*
X010773Y006680D01*
X010736Y006680D02*
X010810Y006680D01*
X010884Y006680D02*
X011030Y006460D01*
X011030Y006680D01*
X011105Y006680D02*
X011105Y006643D01*
X011178Y006570D01*
X011178Y006460D01*
X011178Y006570D02*
X011251Y006643D01*
X011251Y006680D01*
X011326Y006643D02*
X011326Y006607D01*
X011362Y006570D01*
X011436Y006570D01*
X011472Y006533D01*
X011472Y006497D01*
X011436Y006460D01*
X011362Y006460D01*
X011326Y006497D01*
X011326Y006533D01*
X011362Y006570D01*
X011436Y006570D02*
X011472Y006607D01*
X011472Y006643D01*
X011436Y006680D01*
X011362Y006680D01*
X011326Y006643D01*
X011547Y006680D02*
X011547Y006570D01*
X011620Y006607D01*
X011657Y006607D01*
X011693Y006570D01*
X011693Y006497D01*
X011657Y006460D01*
X011583Y006460D01*
X011547Y006497D01*
X011547Y006680D02*
X011693Y006680D01*
X012187Y006633D02*
X012187Y006487D01*
X012224Y006450D01*
X012297Y006450D01*
X012334Y006487D01*
X012408Y006450D02*
X012555Y006597D01*
X012555Y006633D01*
X012518Y006670D01*
X012445Y006670D01*
X012408Y006633D01*
X012334Y006633D02*
X012297Y006670D01*
X012224Y006670D01*
X012187Y006633D01*
X012408Y006450D02*
X012555Y006450D01*
X010884Y006460D02*
X010884Y006680D01*
X010797Y004180D02*
X010687Y004180D01*
X010687Y003960D01*
X010687Y004033D02*
X010797Y004033D01*
X010834Y004070D01*
X010834Y004143D01*
X010797Y004180D01*
X010908Y004107D02*
X010981Y004180D01*
X010981Y003960D01*
X010908Y003960D02*
X011055Y003960D01*
X011264Y003930D02*
X011374Y003930D01*
X011411Y003893D01*
X011411Y003820D01*
X011374Y003783D01*
X011264Y003783D01*
X011264Y003710D02*
X011264Y003930D01*
X011337Y003783D02*
X011411Y003710D01*
X011485Y003710D02*
X011632Y003710D01*
X011558Y003710D02*
X011558Y003930D01*
X011485Y003857D01*
X011706Y003893D02*
X011706Y003747D01*
X011853Y003893D01*
X011853Y003747D01*
X011816Y003710D01*
X011743Y003710D01*
X011706Y003747D01*
X011706Y003893D02*
X011743Y003930D01*
X011816Y003930D01*
X011853Y003893D01*
X010834Y003960D02*
X010760Y004033D01*
X009169Y001243D02*
X009169Y001022D01*
X009242Y001022D02*
X009095Y001022D01*
X009021Y001059D02*
X008984Y001022D01*
X008911Y001022D01*
X008874Y001059D01*
X008911Y001133D02*
X008874Y001169D01*
X008874Y001206D01*
X008911Y001243D01*
X008984Y001243D01*
X009021Y001206D01*
X008984Y001133D02*
X009021Y001096D01*
X009021Y001059D01*
X008984Y001133D02*
X008911Y001133D01*
X009095Y001169D02*
X009169Y001243D01*
X010786Y001108D02*
X010786Y000962D01*
X010860Y000888D01*
X010933Y000962D01*
X010933Y001108D01*
X011007Y001108D02*
X011081Y001108D01*
X011044Y001108D02*
X011044Y000888D01*
X011007Y000888D02*
X011081Y000888D01*
X011295Y000925D02*
X011295Y001072D01*
X011332Y001108D01*
X011405Y001108D01*
X011442Y001072D01*
X011442Y000998D02*
X011369Y000998D01*
X011442Y000998D02*
X011442Y000925D01*
X011405Y000888D01*
X011332Y000888D01*
X011295Y000925D01*
X011516Y000888D02*
X011516Y001108D01*
X011663Y000888D01*
X011663Y001108D01*
X011737Y001108D02*
X011847Y001108D01*
X011884Y001072D01*
X011884Y000925D01*
X011847Y000888D01*
X011737Y000888D01*
X011737Y001108D01*
X012062Y001108D02*
X012062Y000962D01*
X012135Y000888D01*
X012209Y000962D01*
X012209Y001108D01*
X012283Y001072D02*
X012283Y000925D01*
X012320Y000888D01*
X012393Y000888D01*
X012430Y000925D01*
X012430Y001072D01*
X012393Y001108D01*
X012320Y001108D01*
X012283Y001072D01*
D12*
X011898Y006760D02*
X009888Y006760D01*
X009888Y008620D02*
X011898Y008620D01*
D13*
X009728Y008725D02*
X009730Y008740D01*
X009736Y008753D01*
X009745Y008765D01*
X009756Y008774D01*
X009770Y008780D01*
X009785Y008782D01*
X009800Y008780D01*
X009813Y008774D01*
X009825Y008765D01*
X009834Y008754D01*
X009840Y008740D01*
X009842Y008725D01*
X009840Y008710D01*
X009834Y008697D01*
X009825Y008685D01*
X009814Y008676D01*
X009800Y008670D01*
X009785Y008668D01*
X009770Y008670D01*
X009757Y008676D01*
X009745Y008685D01*
X009736Y008696D01*
X009730Y008710D01*
X009728Y008725D01*
X012539Y002197D02*
X012539Y000819D01*
X014507Y000819D01*
X014507Y002197D01*
X012539Y002197D01*
D14*
X011764Y002310D02*
X011714Y002360D01*
X011739Y002360D02*
X011664Y002360D01*
X011664Y002310D02*
X011664Y002460D01*
X011739Y002460D01*
X011764Y002435D01*
X011764Y002385D01*
X011739Y002360D01*
X011617Y002310D02*
X011617Y002460D01*
X011517Y002460D02*
X011517Y002310D01*
X011567Y002360D01*
X011617Y002310D01*
X011469Y002385D02*
X011469Y002435D01*
X011444Y002460D01*
X011369Y002460D01*
X011369Y002310D01*
X011369Y002360D02*
X011444Y002360D01*
X011469Y002385D01*
M02*
