G75*
%MOIN*%
%OFA0B0*%
%FSLAX24Y24*%
%IPPOS*%
%LPD*%
%AMOC8*
5,1,8,0,0,1.08239X$1,22.5*
%
%ADD10C,0.0000*%
D10*
X005898Y001190D02*
X005898Y010190D01*
X005900Y010234D01*
X005906Y010277D01*
X005915Y010319D01*
X005928Y010361D01*
X005945Y010401D01*
X005965Y010440D01*
X005988Y010477D01*
X006015Y010511D01*
X006044Y010544D01*
X006077Y010573D01*
X006111Y010600D01*
X006148Y010623D01*
X006187Y010643D01*
X006227Y010660D01*
X006269Y010673D01*
X006311Y010682D01*
X006354Y010688D01*
X006398Y010690D01*
X015398Y010690D01*
X015442Y010688D01*
X015485Y010682D01*
X015527Y010673D01*
X015569Y010660D01*
X015609Y010643D01*
X015648Y010623D01*
X015685Y010600D01*
X015719Y010573D01*
X015752Y010544D01*
X015781Y010511D01*
X015808Y010477D01*
X015831Y010440D01*
X015851Y010401D01*
X015868Y010361D01*
X015881Y010319D01*
X015890Y010277D01*
X015896Y010234D01*
X015898Y010190D01*
X015898Y001190D01*
X015896Y001146D01*
X015890Y001103D01*
X015881Y001061D01*
X015868Y001019D01*
X015851Y000979D01*
X015831Y000940D01*
X015808Y000903D01*
X015781Y000869D01*
X015752Y000836D01*
X015719Y000807D01*
X015685Y000780D01*
X015648Y000757D01*
X015609Y000737D01*
X015569Y000720D01*
X015527Y000707D01*
X015485Y000698D01*
X015442Y000692D01*
X015398Y000690D01*
X006398Y000690D01*
X006354Y000692D01*
X006311Y000698D01*
X006269Y000707D01*
X006227Y000720D01*
X006187Y000737D01*
X006148Y000757D01*
X006111Y000780D01*
X006077Y000807D01*
X006044Y000836D01*
X006015Y000869D01*
X005988Y000903D01*
X005965Y000940D01*
X005945Y000979D01*
X005928Y001019D01*
X005915Y001061D01*
X005906Y001103D01*
X005900Y001146D01*
X005898Y001190D01*
X006215Y001440D02*
X006217Y001481D01*
X006223Y001522D01*
X006233Y001562D01*
X006246Y001601D01*
X006263Y001638D01*
X006284Y001674D01*
X006308Y001708D01*
X006335Y001739D01*
X006364Y001767D01*
X006397Y001793D01*
X006431Y001815D01*
X006468Y001834D01*
X006506Y001849D01*
X006546Y001861D01*
X006586Y001869D01*
X006627Y001873D01*
X006669Y001873D01*
X006710Y001869D01*
X006750Y001861D01*
X006790Y001849D01*
X006828Y001834D01*
X006864Y001815D01*
X006899Y001793D01*
X006932Y001767D01*
X006961Y001739D01*
X006988Y001708D01*
X007012Y001674D01*
X007033Y001638D01*
X007050Y001601D01*
X007063Y001562D01*
X007073Y001522D01*
X007079Y001481D01*
X007081Y001440D01*
X007079Y001399D01*
X007073Y001358D01*
X007063Y001318D01*
X007050Y001279D01*
X007033Y001242D01*
X007012Y001206D01*
X006988Y001172D01*
X006961Y001141D01*
X006932Y001113D01*
X006899Y001087D01*
X006865Y001065D01*
X006828Y001046D01*
X006790Y001031D01*
X006750Y001019D01*
X006710Y001011D01*
X006669Y001007D01*
X006627Y001007D01*
X006586Y001011D01*
X006546Y001019D01*
X006506Y001031D01*
X006468Y001046D01*
X006432Y001065D01*
X006397Y001087D01*
X006364Y001113D01*
X006335Y001141D01*
X006308Y001172D01*
X006284Y001206D01*
X006263Y001242D01*
X006246Y001279D01*
X006233Y001318D01*
X006223Y001358D01*
X006217Y001399D01*
X006215Y001440D01*
X008318Y001440D02*
X008320Y001466D01*
X008326Y001492D01*
X008336Y001517D01*
X008349Y001540D01*
X008365Y001560D01*
X008385Y001578D01*
X008407Y001593D01*
X008430Y001605D01*
X008456Y001613D01*
X008482Y001617D01*
X008508Y001617D01*
X008534Y001613D01*
X008560Y001605D01*
X008584Y001593D01*
X008605Y001578D01*
X008625Y001560D01*
X008641Y001540D01*
X008654Y001517D01*
X008664Y001492D01*
X008670Y001466D01*
X008672Y001440D01*
X008670Y001414D01*
X008664Y001388D01*
X008654Y001363D01*
X008641Y001340D01*
X008625Y001320D01*
X008605Y001302D01*
X008583Y001287D01*
X008560Y001275D01*
X008534Y001267D01*
X008508Y001263D01*
X008482Y001263D01*
X008456Y001267D01*
X008430Y001275D01*
X008406Y001287D01*
X008385Y001302D01*
X008365Y001320D01*
X008349Y001340D01*
X008336Y001363D01*
X008326Y001388D01*
X008320Y001414D01*
X008318Y001440D01*
X009499Y001440D02*
X009501Y001466D01*
X009507Y001492D01*
X009517Y001517D01*
X009530Y001540D01*
X009546Y001560D01*
X009566Y001578D01*
X009588Y001593D01*
X009611Y001605D01*
X009637Y001613D01*
X009663Y001617D01*
X009689Y001617D01*
X009715Y001613D01*
X009741Y001605D01*
X009765Y001593D01*
X009786Y001578D01*
X009806Y001560D01*
X009822Y001540D01*
X009835Y001517D01*
X009845Y001492D01*
X009851Y001466D01*
X009853Y001440D01*
X009851Y001414D01*
X009845Y001388D01*
X009835Y001363D01*
X009822Y001340D01*
X009806Y001320D01*
X009786Y001302D01*
X009764Y001287D01*
X009741Y001275D01*
X009715Y001267D01*
X009689Y001263D01*
X009663Y001263D01*
X009637Y001267D01*
X009611Y001275D01*
X009587Y001287D01*
X009566Y001302D01*
X009546Y001320D01*
X009530Y001340D01*
X009517Y001363D01*
X009507Y001388D01*
X009501Y001414D01*
X009499Y001440D01*
X014715Y001440D02*
X014717Y001481D01*
X014723Y001522D01*
X014733Y001562D01*
X014746Y001601D01*
X014763Y001638D01*
X014784Y001674D01*
X014808Y001708D01*
X014835Y001739D01*
X014864Y001767D01*
X014897Y001793D01*
X014931Y001815D01*
X014968Y001834D01*
X015006Y001849D01*
X015046Y001861D01*
X015086Y001869D01*
X015127Y001873D01*
X015169Y001873D01*
X015210Y001869D01*
X015250Y001861D01*
X015290Y001849D01*
X015328Y001834D01*
X015364Y001815D01*
X015399Y001793D01*
X015432Y001767D01*
X015461Y001739D01*
X015488Y001708D01*
X015512Y001674D01*
X015533Y001638D01*
X015550Y001601D01*
X015563Y001562D01*
X015573Y001522D01*
X015579Y001481D01*
X015581Y001440D01*
X015579Y001399D01*
X015573Y001358D01*
X015563Y001318D01*
X015550Y001279D01*
X015533Y001242D01*
X015512Y001206D01*
X015488Y001172D01*
X015461Y001141D01*
X015432Y001113D01*
X015399Y001087D01*
X015365Y001065D01*
X015328Y001046D01*
X015290Y001031D01*
X015250Y001019D01*
X015210Y001011D01*
X015169Y001007D01*
X015127Y001007D01*
X015086Y001011D01*
X015046Y001019D01*
X015006Y001031D01*
X014968Y001046D01*
X014932Y001065D01*
X014897Y001087D01*
X014864Y001113D01*
X014835Y001141D01*
X014808Y001172D01*
X014784Y001206D01*
X014763Y001242D01*
X014746Y001279D01*
X014733Y001318D01*
X014723Y001358D01*
X014717Y001399D01*
X014715Y001440D01*
X006892Y004804D02*
X006894Y004833D01*
X006900Y004861D01*
X006909Y004889D01*
X006922Y004915D01*
X006939Y004938D01*
X006958Y004960D01*
X006980Y004979D01*
X007005Y004994D01*
X007031Y005007D01*
X007059Y005015D01*
X007087Y005020D01*
X007116Y005021D01*
X007145Y005018D01*
X007173Y005011D01*
X007200Y005001D01*
X007226Y004987D01*
X007249Y004970D01*
X007270Y004950D01*
X007288Y004927D01*
X007303Y004902D01*
X007314Y004875D01*
X007322Y004847D01*
X007326Y004818D01*
X007326Y004790D01*
X007322Y004761D01*
X007314Y004733D01*
X007303Y004706D01*
X007288Y004681D01*
X007270Y004658D01*
X007249Y004638D01*
X007226Y004621D01*
X007200Y004607D01*
X007173Y004597D01*
X007145Y004590D01*
X007116Y004587D01*
X007087Y004588D01*
X007059Y004593D01*
X007031Y004601D01*
X007005Y004614D01*
X006980Y004629D01*
X006958Y004648D01*
X006939Y004670D01*
X006922Y004693D01*
X006909Y004719D01*
X006900Y004747D01*
X006894Y004775D01*
X006892Y004804D01*
X006892Y006576D02*
X006894Y006605D01*
X006900Y006633D01*
X006909Y006661D01*
X006922Y006687D01*
X006939Y006710D01*
X006958Y006732D01*
X006980Y006751D01*
X007005Y006766D01*
X007031Y006779D01*
X007059Y006787D01*
X007087Y006792D01*
X007116Y006793D01*
X007145Y006790D01*
X007173Y006783D01*
X007200Y006773D01*
X007226Y006759D01*
X007249Y006742D01*
X007270Y006722D01*
X007288Y006699D01*
X007303Y006674D01*
X007314Y006647D01*
X007322Y006619D01*
X007326Y006590D01*
X007326Y006562D01*
X007322Y006533D01*
X007314Y006505D01*
X007303Y006478D01*
X007288Y006453D01*
X007270Y006430D01*
X007249Y006410D01*
X007226Y006393D01*
X007200Y006379D01*
X007173Y006369D01*
X007145Y006362D01*
X007116Y006359D01*
X007087Y006360D01*
X007059Y006365D01*
X007031Y006373D01*
X007005Y006386D01*
X006980Y006401D01*
X006958Y006420D01*
X006939Y006442D01*
X006922Y006465D01*
X006909Y006491D01*
X006900Y006519D01*
X006894Y006547D01*
X006892Y006576D01*
X006215Y009940D02*
X006217Y009981D01*
X006223Y010022D01*
X006233Y010062D01*
X006246Y010101D01*
X006263Y010138D01*
X006284Y010174D01*
X006308Y010208D01*
X006335Y010239D01*
X006364Y010267D01*
X006397Y010293D01*
X006431Y010315D01*
X006468Y010334D01*
X006506Y010349D01*
X006546Y010361D01*
X006586Y010369D01*
X006627Y010373D01*
X006669Y010373D01*
X006710Y010369D01*
X006750Y010361D01*
X006790Y010349D01*
X006828Y010334D01*
X006864Y010315D01*
X006899Y010293D01*
X006932Y010267D01*
X006961Y010239D01*
X006988Y010208D01*
X007012Y010174D01*
X007033Y010138D01*
X007050Y010101D01*
X007063Y010062D01*
X007073Y010022D01*
X007079Y009981D01*
X007081Y009940D01*
X007079Y009899D01*
X007073Y009858D01*
X007063Y009818D01*
X007050Y009779D01*
X007033Y009742D01*
X007012Y009706D01*
X006988Y009672D01*
X006961Y009641D01*
X006932Y009613D01*
X006899Y009587D01*
X006865Y009565D01*
X006828Y009546D01*
X006790Y009531D01*
X006750Y009519D01*
X006710Y009511D01*
X006669Y009507D01*
X006627Y009507D01*
X006586Y009511D01*
X006546Y009519D01*
X006506Y009531D01*
X006468Y009546D01*
X006432Y009565D01*
X006397Y009587D01*
X006364Y009613D01*
X006335Y009641D01*
X006308Y009672D01*
X006284Y009706D01*
X006263Y009742D01*
X006246Y009779D01*
X006233Y009818D01*
X006223Y009858D01*
X006217Y009899D01*
X006215Y009940D01*
X014715Y009940D02*
X014717Y009981D01*
X014723Y010022D01*
X014733Y010062D01*
X014746Y010101D01*
X014763Y010138D01*
X014784Y010174D01*
X014808Y010208D01*
X014835Y010239D01*
X014864Y010267D01*
X014897Y010293D01*
X014931Y010315D01*
X014968Y010334D01*
X015006Y010349D01*
X015046Y010361D01*
X015086Y010369D01*
X015127Y010373D01*
X015169Y010373D01*
X015210Y010369D01*
X015250Y010361D01*
X015290Y010349D01*
X015328Y010334D01*
X015364Y010315D01*
X015399Y010293D01*
X015432Y010267D01*
X015461Y010239D01*
X015488Y010208D01*
X015512Y010174D01*
X015533Y010138D01*
X015550Y010101D01*
X015563Y010062D01*
X015573Y010022D01*
X015579Y009981D01*
X015581Y009940D01*
X015579Y009899D01*
X015573Y009858D01*
X015563Y009818D01*
X015550Y009779D01*
X015533Y009742D01*
X015512Y009706D01*
X015488Y009672D01*
X015461Y009641D01*
X015432Y009613D01*
X015399Y009587D01*
X015365Y009565D01*
X015328Y009546D01*
X015290Y009531D01*
X015250Y009519D01*
X015210Y009511D01*
X015169Y009507D01*
X015127Y009507D01*
X015086Y009511D01*
X015046Y009519D01*
X015006Y009531D01*
X014968Y009546D01*
X014932Y009565D01*
X014897Y009587D01*
X014864Y009613D01*
X014835Y009641D01*
X014808Y009672D01*
X014784Y009706D01*
X014763Y009742D01*
X014746Y009779D01*
X014733Y009818D01*
X014723Y009858D01*
X014717Y009899D01*
X014715Y009940D01*
M02*
