G75*
%MOIN*%
%OFA0B0*%
%FSLAX24Y24*%
%IPPOS*%
%LPD*%
%AMOC8*
5,1,8,0,0,1.08239X$1,22.5*
%
%ADD10C,0.0020*%
%ADD11C,0.0010*%
%ADD12C,0.0050*%
%ADD13C,0.0030*%
%ADD14C,0.0025*%
%ADD15C,0.0059*%
D10*
X007443Y000912D02*
X007443Y001096D01*
X007406Y001133D01*
X007406Y001023D02*
X007479Y001023D01*
X007553Y001023D02*
X007627Y001023D01*
X007701Y001023D02*
X007738Y001059D01*
X007811Y001059D01*
X007848Y001023D01*
X007848Y000949D01*
X007811Y000912D01*
X007738Y000912D01*
X007701Y000949D01*
X007701Y001023D01*
X007590Y001096D02*
X007553Y001133D01*
X007590Y001096D02*
X007590Y000912D01*
X007922Y001133D02*
X008069Y000912D01*
X008014Y001272D02*
X007940Y001272D01*
X008014Y001272D02*
X008050Y001309D01*
X008050Y001383D01*
X008014Y001419D01*
X007940Y001419D01*
X007903Y001383D01*
X007903Y001346D01*
X008050Y001346D01*
X007829Y001419D02*
X007682Y001272D01*
X007572Y001309D02*
X007535Y001272D01*
X007572Y001309D02*
X007572Y001456D01*
X007608Y001419D02*
X007535Y001419D01*
X007461Y001309D02*
X007424Y001309D01*
X007424Y001272D01*
X007461Y001272D01*
X007461Y001309D01*
X007682Y001419D02*
X007829Y001272D01*
X009943Y001023D02*
X009943Y000912D01*
X009943Y001023D02*
X009980Y001059D01*
X010090Y001059D01*
X010090Y000912D01*
X010164Y000949D02*
X010164Y001023D01*
X010201Y001059D01*
X010274Y001059D01*
X010311Y001023D01*
X010311Y000949D01*
X010274Y000912D01*
X010201Y000912D01*
X010164Y000949D01*
X010385Y001133D02*
X010532Y000912D01*
X010840Y000888D02*
X010914Y000888D01*
X010877Y000888D02*
X010877Y001108D01*
X010914Y001108D02*
X010840Y001108D01*
X010988Y001108D02*
X010988Y000962D01*
X011061Y000888D01*
X011135Y000962D01*
X011135Y001108D01*
X011349Y001072D02*
X011386Y001108D01*
X011496Y001108D01*
X011496Y000888D01*
X011386Y000888D01*
X011349Y000925D01*
X011349Y001072D01*
X011570Y001108D02*
X011570Y000888D01*
X011717Y001108D01*
X011717Y000888D01*
X011791Y000925D02*
X011791Y000998D01*
X011865Y000998D01*
X011938Y000925D02*
X011901Y000888D01*
X011828Y000888D01*
X011791Y000925D01*
X011791Y001072D02*
X011828Y001108D01*
X011901Y001108D01*
X011938Y001072D01*
X011938Y000925D01*
X012116Y000925D02*
X012116Y001072D01*
X012153Y001108D01*
X012226Y001108D01*
X012263Y001072D01*
X012263Y000925D01*
X012226Y000888D01*
X012153Y000888D01*
X012116Y000925D01*
X012337Y000962D02*
X012337Y001108D01*
X012484Y001108D02*
X012484Y000962D01*
X012410Y000888D01*
X012337Y000962D01*
X013145Y000897D02*
X013292Y000897D01*
X013292Y001118D01*
X013145Y001118D01*
X013218Y001008D02*
X013292Y001008D01*
X013366Y001081D02*
X013403Y001118D01*
X013513Y001118D01*
X013513Y000897D01*
X013403Y000897D01*
X013366Y000934D01*
X013366Y001081D01*
X013587Y001081D02*
X013587Y000934D01*
X013624Y000897D01*
X013697Y000897D01*
X013734Y000934D01*
X013734Y001081D01*
X013697Y001118D01*
X013624Y001118D01*
X013587Y001081D01*
X013808Y001118D02*
X013808Y000897D01*
X013955Y000897D02*
X013955Y001118D01*
X013881Y001044D01*
X013808Y001118D01*
X013601Y001512D02*
X013565Y001512D01*
X013528Y001549D01*
X013528Y001623D01*
X013491Y001659D01*
X013455Y001659D01*
X013418Y001623D01*
X013418Y001549D01*
X013455Y001512D01*
X013601Y001512D02*
X013638Y001549D01*
X013638Y001623D01*
X013601Y001659D01*
X013638Y001733D02*
X013418Y001733D01*
X013528Y001733D02*
X013565Y001770D01*
X013565Y001844D01*
X013528Y001880D01*
X013418Y001880D01*
X013455Y001954D02*
X013418Y001991D01*
X013418Y002101D01*
X013565Y002101D01*
X013565Y002175D02*
X013565Y002286D01*
X013528Y002322D01*
X013418Y002322D01*
X013455Y002433D02*
X013418Y002470D01*
X013455Y002433D02*
X013601Y002433D01*
X013565Y002396D02*
X013565Y002470D01*
X013565Y002544D02*
X013528Y002544D01*
X013528Y002580D01*
X013565Y002580D01*
X013565Y002544D01*
X013455Y002544D02*
X013418Y002544D01*
X013418Y002580D01*
X013455Y002580D01*
X013455Y002544D01*
X013278Y002433D02*
X013241Y002470D01*
X013095Y002470D01*
X013058Y002433D01*
X013058Y002359D01*
X013095Y002323D01*
X013241Y002323D01*
X013278Y002359D01*
X013278Y002433D01*
X013205Y002544D02*
X013205Y002691D01*
X013131Y002691D02*
X013131Y002544D01*
X013058Y002765D02*
X013058Y002838D01*
X013058Y002801D02*
X013278Y002801D01*
X013278Y002765D02*
X013278Y002838D01*
X013278Y002912D02*
X013278Y002985D01*
X013278Y002912D02*
X013058Y002912D01*
X013058Y002985D01*
X013058Y003059D02*
X013205Y003059D01*
X013278Y003133D01*
X013205Y003206D01*
X013058Y003206D01*
X013058Y003280D02*
X013058Y003354D01*
X013278Y003354D01*
X013278Y003280D01*
X013168Y003206D02*
X013168Y003059D01*
X013418Y003096D02*
X013418Y003133D01*
X013455Y003133D01*
X013455Y003096D01*
X013418Y003096D01*
X013455Y003022D02*
X013418Y002985D01*
X013418Y002912D01*
X013455Y002875D01*
X013601Y003022D01*
X013455Y003022D01*
X013601Y003022D02*
X013638Y002985D01*
X013638Y002912D01*
X013601Y002875D01*
X013455Y002875D01*
X013418Y003207D02*
X013418Y003353D01*
X013418Y003280D02*
X013638Y003280D01*
X013565Y003207D01*
X013601Y003428D02*
X013638Y003464D01*
X013638Y003538D01*
X013601Y003574D01*
X013528Y003574D01*
X013491Y003538D01*
X013418Y003538D01*
X013418Y003574D01*
X013418Y003464D02*
X013491Y003464D01*
X013528Y003428D01*
X013601Y003428D01*
X013418Y003428D02*
X013418Y003464D01*
X013278Y003574D02*
X013058Y003428D01*
X013058Y003649D02*
X013058Y003795D01*
X013058Y003722D02*
X013278Y003722D01*
X013205Y003649D01*
X013241Y003870D02*
X013278Y003906D01*
X013278Y003980D01*
X013241Y004016D01*
X013095Y003870D01*
X013058Y003906D01*
X013058Y003980D01*
X013095Y004016D01*
X013241Y004016D01*
X013241Y003870D02*
X013095Y003870D01*
X012638Y002805D02*
X012638Y002622D01*
X012601Y002585D01*
X012528Y002585D01*
X012491Y002622D01*
X012491Y002805D01*
X012417Y002768D02*
X012417Y002732D01*
X012380Y002695D01*
X012307Y002695D01*
X012270Y002658D01*
X012270Y002622D01*
X012307Y002585D01*
X012380Y002585D01*
X012417Y002622D01*
X012196Y002585D02*
X012086Y002585D01*
X012049Y002622D01*
X012049Y002658D01*
X012086Y002695D01*
X012196Y002695D01*
X012270Y002768D02*
X012307Y002805D01*
X012380Y002805D01*
X012417Y002768D01*
X012196Y002805D02*
X012086Y002805D01*
X012049Y002768D01*
X012049Y002732D01*
X012086Y002695D01*
X012196Y002585D02*
X012196Y002805D01*
X011754Y002805D02*
X011754Y002585D01*
X011754Y002658D02*
X011644Y002658D01*
X011607Y002695D01*
X011607Y002768D01*
X011644Y002805D01*
X011754Y002805D01*
X011533Y002695D02*
X011533Y002622D01*
X011496Y002585D01*
X011423Y002585D01*
X011386Y002622D01*
X011386Y002695D01*
X011423Y002732D01*
X011496Y002732D01*
X011533Y002695D01*
X011312Y002732D02*
X011312Y002622D01*
X011275Y002585D01*
X011239Y002622D01*
X011202Y002585D01*
X011165Y002622D01*
X011165Y002732D01*
X011091Y002695D02*
X011054Y002732D01*
X010981Y002732D01*
X010944Y002695D01*
X010944Y002658D01*
X011091Y002658D01*
X011091Y002622D02*
X011091Y002695D01*
X011091Y002622D02*
X011054Y002585D01*
X010981Y002585D01*
X010870Y002585D02*
X010870Y002732D01*
X010797Y002732D02*
X010760Y002732D01*
X010797Y002732D02*
X010870Y002658D01*
X010870Y002430D02*
X010870Y002210D01*
X010723Y002210D01*
X010649Y002210D02*
X010502Y002210D01*
X010428Y002210D02*
X010318Y002210D01*
X010281Y002247D01*
X010281Y002393D01*
X010318Y002430D01*
X010428Y002430D01*
X010428Y002210D01*
X010576Y002320D02*
X010649Y002320D01*
X010649Y002430D02*
X010649Y002210D01*
X010944Y002247D02*
X010944Y002393D01*
X010981Y002430D01*
X011054Y002430D01*
X011091Y002393D01*
X011091Y002247D01*
X011054Y002210D01*
X010981Y002210D01*
X010944Y002247D01*
X010649Y002430D02*
X010502Y002430D01*
X010465Y002585D02*
X010465Y002805D01*
X010391Y002732D01*
X010318Y002805D01*
X010318Y002585D01*
X010244Y002622D02*
X010244Y002695D01*
X010207Y002732D01*
X010134Y002732D01*
X010097Y002695D01*
X010097Y002658D01*
X010244Y002658D01*
X010244Y002622D02*
X010207Y002585D01*
X010134Y002585D01*
X009986Y002622D02*
X009949Y002585D01*
X009986Y002622D02*
X009986Y002768D01*
X010023Y002732D02*
X009949Y002732D01*
X009876Y002695D02*
X009839Y002732D01*
X009765Y002732D01*
X009729Y002695D01*
X009729Y002658D01*
X009876Y002658D01*
X009876Y002622D02*
X009876Y002695D01*
X009876Y002622D02*
X009839Y002585D01*
X009765Y002585D01*
X009655Y002585D02*
X009655Y002732D01*
X009655Y002658D02*
X009581Y002732D01*
X009544Y002732D01*
X011386Y002210D02*
X011533Y002210D01*
X011460Y002210D02*
X011460Y002430D01*
X011533Y002357D01*
X011607Y002247D02*
X011607Y002210D01*
X011643Y002210D01*
X011643Y002247D01*
X011607Y002247D01*
X011718Y002247D02*
X011718Y002393D01*
X011754Y002430D01*
X011828Y002430D01*
X011864Y002393D01*
X011864Y002357D01*
X011828Y002320D01*
X011718Y002320D01*
X011718Y002247D02*
X011754Y002210D01*
X011828Y002210D01*
X011864Y002247D01*
X011938Y002247D02*
X011938Y002210D01*
X011975Y002210D01*
X011975Y002247D01*
X011938Y002247D01*
X012049Y002247D02*
X012086Y002210D01*
X012159Y002210D01*
X012196Y002247D01*
X012049Y002393D01*
X012049Y002247D01*
X012049Y002393D02*
X012086Y002430D01*
X012159Y002430D01*
X012196Y002393D01*
X012196Y002247D01*
X012491Y002357D02*
X012564Y002210D01*
X012638Y002357D01*
X013058Y002175D02*
X013131Y002249D01*
X013278Y002249D01*
X013278Y002102D02*
X013131Y002102D01*
X013058Y002175D01*
X013168Y002028D02*
X013168Y001881D01*
X013278Y001807D02*
X013278Y001733D01*
X013278Y001770D02*
X013058Y001770D01*
X013058Y001733D02*
X013058Y001807D01*
X013131Y001659D02*
X013278Y001659D01*
X013131Y001659D02*
X013058Y001586D01*
X013131Y001512D01*
X013278Y001512D01*
X013455Y001954D02*
X013565Y001954D01*
X013565Y002175D02*
X013418Y002175D01*
X010513Y001419D02*
X010477Y001419D01*
X010477Y001272D01*
X010513Y001272D02*
X010440Y001272D01*
X010366Y001272D02*
X010366Y001419D01*
X010256Y001419D01*
X010219Y001383D01*
X010219Y001272D01*
X010108Y001309D02*
X010072Y001272D01*
X010108Y001309D02*
X010108Y001456D01*
X010072Y001419D02*
X010145Y001419D01*
X009998Y001309D02*
X009961Y001309D01*
X009961Y001272D01*
X009998Y001272D01*
X009998Y001309D01*
X010477Y001493D02*
X010477Y001529D01*
X014668Y005074D02*
X014705Y005037D01*
X014851Y005037D01*
X014888Y005074D01*
X014888Y005147D01*
X014851Y005184D01*
X014705Y005184D01*
X014668Y005147D01*
X014668Y005074D01*
X014705Y005258D02*
X014668Y005295D01*
X014668Y005368D01*
X014705Y005405D01*
X014888Y005405D01*
X014888Y005479D02*
X014888Y005626D01*
X014888Y005552D02*
X014668Y005552D01*
X014668Y005700D02*
X014888Y005700D01*
X014888Y005810D01*
X014851Y005847D01*
X014778Y005847D01*
X014741Y005810D01*
X014741Y005700D01*
X014705Y005921D02*
X014668Y005958D01*
X014668Y006031D01*
X014705Y006068D01*
X014888Y006068D01*
X014888Y006142D02*
X014888Y006289D01*
X014888Y006215D02*
X014668Y006215D01*
X014705Y005921D02*
X014888Y005921D01*
X014888Y005258D02*
X014705Y005258D01*
X012715Y005772D02*
X012605Y005772D01*
X012568Y005809D01*
X012568Y005883D01*
X012605Y005919D01*
X012715Y005919D01*
X012715Y005993D02*
X012715Y005772D01*
X012494Y005809D02*
X012457Y005772D01*
X012347Y005772D01*
X012347Y005736D02*
X012384Y005699D01*
X012421Y005699D01*
X012347Y005736D02*
X012347Y005919D01*
X012494Y005919D02*
X012494Y005809D01*
X012052Y005772D02*
X012052Y005919D01*
X011942Y005919D01*
X011905Y005883D01*
X011905Y005772D01*
X011831Y005809D02*
X011794Y005772D01*
X011684Y005772D01*
X011684Y005919D01*
X011610Y005919D02*
X011500Y005919D01*
X011463Y005883D01*
X011463Y005809D01*
X011500Y005772D01*
X011610Y005772D01*
X011610Y005699D02*
X011610Y005919D01*
X011831Y005919D02*
X011831Y005809D01*
X011389Y005809D02*
X011352Y005772D01*
X011279Y005772D01*
X011242Y005809D01*
X011242Y005883D01*
X011279Y005919D01*
X011352Y005919D01*
X011389Y005883D01*
X011389Y005809D01*
X011168Y005883D02*
X011021Y005883D01*
X010947Y005809D02*
X010910Y005846D01*
X010800Y005846D01*
X010800Y005883D02*
X010800Y005772D01*
X010910Y005772D01*
X010947Y005809D01*
X010910Y005919D02*
X010837Y005919D01*
X010800Y005883D01*
X010726Y005919D02*
X010726Y005772D01*
X010726Y005846D02*
X010653Y005919D01*
X010616Y005919D01*
X010542Y005919D02*
X010468Y005919D01*
X010505Y005956D02*
X010505Y005809D01*
X010468Y005772D01*
X010395Y005809D02*
X010395Y005919D01*
X010395Y005809D02*
X010358Y005772D01*
X010321Y005809D01*
X010284Y005772D01*
X010248Y005809D01*
X010248Y005919D01*
X010174Y005883D02*
X010174Y005809D01*
X010137Y005772D01*
X010063Y005772D01*
X010027Y005809D01*
X010027Y005883D01*
X010063Y005919D01*
X010137Y005919D01*
X010174Y005883D01*
X009953Y005919D02*
X009953Y005772D01*
X009953Y005846D02*
X009879Y005919D01*
X009842Y005919D01*
X009768Y005846D02*
X009658Y005919D01*
X009584Y005883D02*
X009548Y005919D01*
X009437Y005919D01*
X009474Y005846D02*
X009437Y005809D01*
X009474Y005772D01*
X009584Y005772D01*
X009658Y005772D02*
X009768Y005846D01*
X009768Y005772D02*
X009768Y005993D01*
X009584Y005883D02*
X009548Y005846D01*
X009474Y005846D01*
X009363Y005809D02*
X009327Y005809D01*
X009327Y005772D01*
X009363Y005772D01*
X009363Y005809D01*
X009253Y005809D02*
X009253Y005883D01*
X009216Y005919D01*
X009106Y005919D01*
X009106Y005993D02*
X009106Y005772D01*
X009216Y005772D01*
X009253Y005809D01*
X009032Y005809D02*
X009032Y005883D01*
X008995Y005919D01*
X008922Y005919D01*
X008885Y005883D01*
X008885Y005846D01*
X009032Y005846D01*
X009032Y005809D02*
X008995Y005772D01*
X008922Y005772D01*
X010696Y006762D02*
X010696Y006993D01*
X010581Y006993D01*
X010543Y006954D01*
X010543Y006878D01*
X010581Y006839D01*
X010696Y006839D01*
X010773Y006839D02*
X010773Y006801D01*
X010811Y006762D01*
X010888Y006762D01*
X010926Y006801D01*
X011003Y006801D02*
X011041Y006762D01*
X011118Y006762D01*
X011156Y006801D01*
X011156Y006954D01*
X011118Y006993D01*
X011041Y006993D01*
X011003Y006954D01*
X010926Y006954D02*
X010926Y006916D01*
X010888Y006878D01*
X010811Y006878D01*
X010773Y006839D01*
X010773Y006954D02*
X010811Y006993D01*
X010888Y006993D01*
X010926Y006954D01*
X011233Y006993D02*
X011310Y006993D01*
X011272Y006993D02*
X011272Y006762D01*
X011310Y006762D02*
X011233Y006762D01*
X007129Y006141D02*
X007129Y005994D01*
X007129Y006068D02*
X006909Y006068D01*
X006945Y005920D02*
X007129Y005920D01*
X007129Y005773D02*
X006945Y005773D01*
X006909Y005810D01*
X006909Y005883D01*
X006945Y005920D01*
X007019Y005699D02*
X006982Y005662D01*
X006982Y005552D01*
X006909Y005552D02*
X007129Y005552D01*
X007129Y005662D01*
X007092Y005699D01*
X007019Y005699D01*
X006909Y005478D02*
X007129Y005478D01*
X007129Y005331D02*
X006909Y005331D01*
X006909Y005257D02*
X006909Y005184D01*
X006909Y005221D02*
X007129Y005221D01*
X007129Y005257D02*
X007129Y005184D01*
X007129Y005331D02*
X006909Y005478D01*
D11*
X008574Y002123D02*
X008674Y001972D01*
X008721Y001972D02*
X008821Y001972D01*
X008821Y002123D01*
X008721Y002123D01*
X008771Y002048D02*
X008821Y002048D01*
X008869Y002023D02*
X008869Y001997D01*
X008894Y001972D01*
X008944Y001972D01*
X008969Y001997D01*
X009016Y001972D02*
X009016Y002123D01*
X008969Y002098D02*
X008969Y002073D01*
X008944Y002048D01*
X008894Y002048D01*
X008869Y002023D01*
X008869Y002098D02*
X008894Y002123D01*
X008944Y002123D01*
X008969Y002098D01*
X009016Y001972D02*
X009116Y002123D01*
X009116Y001972D01*
X009163Y001972D02*
X009263Y001972D01*
X009263Y002123D01*
X009163Y002123D01*
X009213Y002048D02*
X009263Y002048D01*
X009311Y002023D02*
X009311Y001997D01*
X009336Y001972D01*
X009386Y001972D01*
X009411Y001997D01*
X009459Y001972D02*
X009509Y001972D01*
X009484Y001972D02*
X009484Y002123D01*
X009509Y002123D02*
X009459Y002123D01*
X009411Y002098D02*
X009411Y002073D01*
X009386Y002048D01*
X009336Y002048D01*
X009311Y002023D01*
X009311Y002098D02*
X009336Y002123D01*
X009386Y002123D01*
X009411Y002098D01*
X009386Y001883D02*
X009311Y001883D01*
X009286Y001858D01*
X009286Y001808D01*
X009311Y001783D01*
X009386Y001783D01*
X009386Y001732D02*
X009386Y001883D01*
X009239Y001858D02*
X009239Y001757D01*
X009214Y001732D01*
X009164Y001732D01*
X009139Y001757D01*
X009139Y001858D01*
X009164Y001883D01*
X009214Y001883D01*
X009239Y001858D01*
X009092Y001883D02*
X009092Y001732D01*
X009041Y001783D01*
X008991Y001732D01*
X008991Y001883D01*
X008944Y001883D02*
X008944Y001732D01*
X008844Y001732D01*
X008797Y001732D02*
X008797Y001883D01*
X008722Y001883D01*
X008697Y001858D01*
X008697Y001808D01*
X008722Y001783D01*
X008797Y001783D01*
X008747Y001783D02*
X008697Y001732D01*
X008894Y001808D02*
X008944Y001808D01*
X008944Y001883D02*
X008844Y001883D01*
D12*
X010148Y006690D02*
X011648Y006687D01*
X011675Y006689D01*
X011701Y006695D01*
X011727Y006705D01*
X011750Y006718D01*
X011772Y006734D01*
X011791Y006753D01*
X011807Y006775D01*
X011819Y006799D01*
X011829Y006824D01*
X011834Y006850D01*
X011836Y006877D01*
X011835Y006877D02*
X011835Y008377D01*
X011833Y008397D01*
X011829Y008416D01*
X011821Y008434D01*
X011811Y008450D01*
X011798Y008465D01*
X011783Y008478D01*
X011767Y008488D01*
X011749Y008496D01*
X011730Y008500D01*
X011710Y008502D01*
X010085Y008502D01*
X010065Y008500D01*
X010046Y008496D01*
X010028Y008488D01*
X010012Y008478D01*
X009997Y008465D01*
X009984Y008450D01*
X009974Y008434D01*
X009966Y008416D01*
X009962Y008397D01*
X009960Y008377D01*
X009960Y006877D01*
X009962Y006850D01*
X009968Y006824D01*
X009977Y006799D01*
X009990Y006775D01*
X010006Y006754D01*
X010025Y006735D01*
X010046Y006719D01*
X010070Y006706D01*
X010095Y006697D01*
X010121Y006691D01*
X010148Y006689D01*
X012023Y007440D02*
X012773Y007440D01*
D13*
X012767Y007335D02*
X012622Y007335D01*
X012573Y007287D01*
X012573Y007190D01*
X012622Y007142D01*
X012767Y007142D01*
X012670Y007142D02*
X012573Y007045D01*
X012472Y007093D02*
X012424Y007045D01*
X012327Y007045D01*
X012279Y007093D01*
X012279Y007142D01*
X012327Y007190D01*
X012424Y007190D01*
X012472Y007238D01*
X012472Y007287D01*
X012424Y007335D01*
X012327Y007335D01*
X012279Y007287D01*
X012178Y007335D02*
X011984Y007335D01*
X012081Y007335D02*
X012081Y007045D01*
X012178Y007545D02*
X012178Y007835D01*
X012279Y007787D02*
X012327Y007835D01*
X012424Y007835D01*
X012472Y007787D01*
X012472Y007593D01*
X012424Y007545D01*
X012327Y007545D01*
X012279Y007593D01*
X012178Y007642D02*
X011984Y007835D01*
X012129Y007690D02*
X011984Y007545D01*
X012573Y007593D02*
X012622Y007545D01*
X012718Y007545D01*
X012767Y007593D01*
X012718Y007690D02*
X012622Y007690D01*
X012573Y007642D01*
X012573Y007593D01*
X012718Y007690D02*
X012767Y007738D01*
X012767Y007787D01*
X012718Y007835D01*
X012622Y007835D01*
X012573Y007787D01*
X012572Y008045D02*
X012669Y008045D01*
X012620Y008045D02*
X012620Y008335D01*
X012572Y008335D02*
X012669Y008335D01*
X012770Y008335D02*
X012867Y008238D01*
X012963Y008335D01*
X012963Y008045D01*
X012770Y008045D02*
X012770Y008335D01*
X012472Y008287D02*
X012472Y008238D01*
X012424Y008190D01*
X012327Y008190D01*
X012279Y008142D01*
X012279Y008093D01*
X012327Y008045D01*
X012424Y008045D01*
X012472Y008093D01*
X012178Y008093D02*
X012129Y008045D01*
X012032Y008045D01*
X011984Y008093D01*
X011984Y008287D01*
X012032Y008335D01*
X012129Y008335D01*
X012178Y008287D01*
X012178Y008093D01*
X012279Y008287D02*
X012327Y008335D01*
X012424Y008335D01*
X012472Y008287D01*
X012767Y007335D02*
X012767Y007045D01*
X009883Y007093D02*
X009835Y007045D01*
X009738Y007045D01*
X009689Y007093D01*
X009689Y007190D01*
X009786Y007190D01*
X009689Y007287D02*
X009738Y007335D01*
X009835Y007335D01*
X009883Y007287D01*
X009883Y007093D01*
X009588Y007045D02*
X009588Y007335D01*
X009395Y007045D01*
X009395Y007335D01*
X009294Y007335D02*
X009148Y007335D01*
X009100Y007287D01*
X009100Y007093D01*
X009148Y007045D01*
X009294Y007045D01*
X009294Y007335D01*
X009245Y007545D02*
X009294Y007593D01*
X009245Y007545D02*
X009148Y007545D01*
X009100Y007593D01*
X009100Y007642D01*
X009148Y007690D01*
X009245Y007690D01*
X009294Y007738D01*
X009294Y007787D01*
X009245Y007835D01*
X009148Y007835D01*
X009100Y007787D01*
X008999Y007835D02*
X008902Y007835D01*
X008951Y007835D02*
X008951Y007545D01*
X008999Y007545D02*
X008902Y007545D01*
X009395Y007593D02*
X009395Y007787D01*
X009443Y007835D01*
X009540Y007835D01*
X009588Y007787D01*
X009588Y007593D01*
X009540Y007545D01*
X009443Y007545D01*
X009395Y007593D01*
X009689Y007545D02*
X009689Y007835D01*
X009786Y007738D01*
X009883Y007835D01*
X009883Y007545D01*
X009786Y008045D02*
X009689Y008142D01*
X009689Y008335D01*
X009588Y008287D02*
X009588Y008093D01*
X009540Y008045D01*
X009443Y008045D01*
X009395Y008093D01*
X009294Y008093D02*
X009245Y008045D01*
X009148Y008045D01*
X009100Y008093D01*
X009294Y008093D02*
X009294Y008287D01*
X009245Y008335D01*
X009148Y008335D01*
X009100Y008287D01*
X009395Y008287D02*
X009443Y008335D01*
X009540Y008335D01*
X009588Y008287D01*
X009883Y008335D02*
X009883Y008142D01*
X009786Y008045D01*
D14*
X011252Y003728D02*
X011254Y003610D01*
X011252Y003492D01*
X011069Y003492D01*
X011040Y003492D02*
X010995Y003497D01*
X010952Y003512D01*
X010914Y003535D01*
X010883Y003567D01*
X010859Y003605D01*
X010844Y003648D01*
X010839Y003692D01*
X010839Y003728D01*
X010844Y003774D01*
X010859Y003818D01*
X010884Y003857D01*
X010917Y003889D01*
X010956Y003914D01*
X011000Y003929D01*
X011046Y003935D01*
X011092Y003929D01*
X011135Y003914D01*
X011174Y003889D01*
X011207Y003857D01*
X011232Y003818D01*
X011247Y003774D01*
X011252Y003728D01*
X011252Y003492D01*
X011040Y003492D01*
X010957Y003510D02*
X011252Y003510D01*
X011252Y003533D02*
X010918Y003533D01*
X010893Y003557D02*
X011252Y003557D01*
X011252Y003580D02*
X010874Y003580D01*
X010860Y003604D02*
X011252Y003604D01*
X011252Y003627D02*
X010851Y003627D01*
X010843Y003651D02*
X011252Y003651D01*
X011252Y003674D02*
X010841Y003674D01*
X010839Y003698D02*
X011252Y003698D01*
X011252Y003721D02*
X010839Y003721D01*
X010841Y003745D02*
X011250Y003745D01*
X011248Y003768D02*
X010843Y003768D01*
X010850Y003792D02*
X011241Y003792D01*
X011232Y003815D02*
X010859Y003815D01*
X010873Y003839D02*
X011218Y003839D01*
X011201Y003862D02*
X010890Y003862D01*
X010913Y003886D02*
X011178Y003886D01*
X011142Y003909D02*
X010949Y003909D01*
X011032Y003933D02*
X011059Y003933D01*
X011093Y004070D02*
X011158Y004053D01*
X011223Y004023D01*
X011276Y003988D01*
X011323Y003935D01*
X011347Y003899D01*
X011364Y003858D01*
X011388Y003805D01*
X011400Y003740D01*
X011406Y003409D01*
X011412Y003362D01*
X011435Y003314D01*
X011488Y003279D01*
X011530Y003244D01*
X011571Y003232D01*
X011642Y003232D01*
X011701Y003255D01*
X011748Y003291D01*
X011784Y003338D01*
X011807Y003403D01*
X011813Y003687D01*
X011813Y003716D01*
X011831Y003757D01*
X011860Y003781D01*
X011884Y003799D01*
X011955Y003799D01*
X011955Y003368D01*
X011949Y003309D01*
X011902Y003226D01*
X011872Y003179D01*
X011819Y003120D01*
X011736Y003084D01*
X011648Y003061D01*
X011547Y003072D01*
X011483Y003090D01*
X011429Y003120D01*
X011382Y003149D01*
X011341Y003190D01*
X011311Y003226D01*
X011288Y003267D01*
X011276Y003309D01*
X011270Y003344D01*
X011110Y003344D01*
X011087Y003297D01*
X011057Y003244D01*
X011016Y003208D01*
X010969Y003173D01*
X010921Y003143D01*
X010868Y003120D01*
X010797Y003102D01*
X010703Y003102D01*
X010786Y003078D01*
X010862Y003066D01*
X010945Y003061D01*
X011028Y003072D01*
X011110Y003096D01*
X011199Y003125D01*
X011264Y003161D01*
X011299Y003131D01*
X011347Y003102D01*
X011394Y003078D01*
X011441Y003061D01*
X012144Y003061D01*
X012203Y003066D01*
X012262Y003090D01*
X012303Y003114D01*
X012357Y003096D01*
X012416Y003066D01*
X012486Y003049D01*
X012551Y003043D01*
X012610Y003031D01*
X012675Y003031D01*
X012746Y003043D01*
X012805Y003049D01*
X012805Y003096D01*
X012788Y003096D01*
X012759Y003099D01*
X012731Y003109D01*
X012707Y003124D01*
X012686Y003145D01*
X012671Y003170D01*
X012661Y003197D01*
X012658Y003226D01*
X012658Y003757D01*
X012658Y003763D02*
X012654Y003796D01*
X012643Y003827D01*
X012626Y003855D01*
X012602Y003879D01*
X012574Y003896D01*
X012543Y003907D01*
X012510Y003911D01*
X012404Y003911D01*
X012370Y003907D01*
X012337Y003896D01*
X012308Y003877D01*
X012284Y003853D01*
X012265Y003824D01*
X012254Y003792D01*
X012654Y003792D01*
X012806Y003049D02*
X012755Y003039D01*
X012703Y003033D01*
X012652Y003031D01*
X012600Y003032D01*
X012549Y003037D01*
X012498Y003046D01*
X012448Y003057D01*
X012398Y003073D01*
X012350Y003092D01*
X012303Y003114D01*
X012298Y003110D02*
X012198Y003110D01*
X012201Y003112D02*
X012177Y003097D01*
X012149Y003087D01*
X012120Y003084D01*
X012120Y003816D01*
X012125Y003861D01*
X012138Y003905D01*
X012159Y003944D01*
X012188Y003979D01*
X012223Y004008D01*
X012262Y004029D01*
X012306Y004042D01*
X012351Y004047D01*
X012563Y004047D01*
X012357Y004047D01*
X012351Y004112D02*
X012268Y004112D01*
X012179Y004100D01*
X012073Y004064D01*
X012020Y004082D01*
X011955Y004100D01*
X011884Y004106D01*
X011819Y004112D01*
X011754Y004106D01*
X011689Y004094D01*
X011612Y004070D01*
X011559Y004047D01*
X011494Y004011D01*
X011459Y004035D01*
X011400Y004064D01*
X011329Y004094D01*
X011240Y004112D01*
X011164Y004118D01*
X011075Y004118D01*
X010957Y004088D01*
X010839Y004035D01*
X010733Y003952D01*
X010685Y003905D01*
X010620Y003870D01*
X010561Y003822D01*
X010514Y003769D01*
X010473Y003716D01*
X010449Y003657D01*
X010431Y003574D01*
X010473Y003639D01*
X010502Y003687D01*
X010549Y003728D01*
X010609Y003775D01*
X010709Y003816D01*
X010744Y003917D01*
X010821Y003994D01*
X010880Y004029D01*
X010986Y004070D01*
X011093Y004070D01*
X011162Y004050D02*
X011428Y004050D01*
X011471Y004027D02*
X011214Y004027D01*
X011252Y004003D02*
X012217Y004003D01*
X012189Y003980D02*
X011283Y003980D01*
X011304Y003956D02*
X012169Y003956D01*
X012153Y003933D02*
X011324Y003933D01*
X011340Y003909D02*
X012140Y003909D01*
X012132Y003886D02*
X011352Y003886D01*
X011362Y003862D02*
X012125Y003862D01*
X012123Y003839D02*
X011373Y003839D01*
X011383Y003815D02*
X012120Y003815D01*
X012114Y003805D02*
X012114Y003084D01*
X012120Y003087D02*
X011743Y003087D01*
X011798Y003110D02*
X012120Y003110D01*
X012120Y003134D02*
X011832Y003134D01*
X011853Y003157D02*
X012120Y003157D01*
X012120Y003181D02*
X011874Y003181D01*
X011888Y003204D02*
X012120Y003204D01*
X012114Y003084D02*
X012135Y003086D01*
X012156Y003091D01*
X012176Y003099D01*
X012194Y003110D01*
X012210Y003124D01*
X012224Y003140D01*
X012235Y003158D01*
X012243Y003178D01*
X012248Y003199D01*
X012250Y003220D01*
X012250Y003746D01*
X012250Y003745D02*
X012658Y003745D01*
X012658Y003763D02*
X012658Y003226D01*
X012658Y003228D02*
X012250Y003228D01*
X012250Y003214D02*
X012247Y003185D01*
X012237Y003158D01*
X012222Y003133D01*
X012201Y003112D01*
X012222Y003134D02*
X012697Y003134D01*
X012678Y003157D02*
X012237Y003157D01*
X012246Y003181D02*
X012667Y003181D01*
X012660Y003204D02*
X012249Y003204D01*
X012250Y003214D02*
X012250Y003757D01*
X012254Y003792D01*
X012251Y003768D02*
X012657Y003768D01*
X012658Y003721D02*
X012250Y003721D01*
X012250Y003698D02*
X012658Y003698D01*
X012658Y003674D02*
X012250Y003674D01*
X012250Y003651D02*
X012658Y003651D01*
X012658Y003627D02*
X012250Y003627D01*
X012250Y003604D02*
X012658Y003604D01*
X012658Y003580D02*
X012250Y003580D01*
X012250Y003557D02*
X012658Y003557D01*
X012658Y003533D02*
X012250Y003533D01*
X012250Y003510D02*
X012658Y003510D01*
X012658Y003486D02*
X012250Y003486D01*
X012250Y003463D02*
X012658Y003463D01*
X012658Y003439D02*
X012250Y003439D01*
X012250Y003416D02*
X012658Y003416D01*
X012658Y003392D02*
X012250Y003392D01*
X012250Y003369D02*
X012658Y003369D01*
X012658Y003345D02*
X012250Y003345D01*
X012250Y003322D02*
X012658Y003322D01*
X012658Y003298D02*
X012250Y003298D01*
X012250Y003275D02*
X012658Y003275D01*
X012658Y003251D02*
X012250Y003251D01*
X012120Y003251D02*
X011916Y003251D01*
X011903Y003228D02*
X012120Y003228D01*
X012120Y003275D02*
X011930Y003275D01*
X011943Y003298D02*
X012120Y003298D01*
X012120Y003322D02*
X011950Y003322D01*
X011953Y003345D02*
X012120Y003345D01*
X012126Y003054D02*
X012158Y003056D01*
X012189Y003061D01*
X012219Y003070D01*
X012249Y003081D01*
X012277Y003096D01*
X012303Y003113D01*
X012313Y003110D02*
X012729Y003110D01*
X012788Y003096D02*
X012805Y003096D01*
X012805Y003049D01*
X012805Y003063D02*
X012427Y003063D01*
X012374Y003087D02*
X012805Y003087D01*
X012729Y003040D02*
X012566Y003040D01*
X012658Y003226D02*
X012660Y003206D01*
X012664Y003186D01*
X012672Y003167D01*
X012683Y003150D01*
X012696Y003134D01*
X012712Y003121D01*
X012729Y003110D01*
X012748Y003102D01*
X012768Y003098D01*
X012788Y003096D01*
X012254Y003087D02*
X012145Y003087D01*
X012173Y003063D02*
X011659Y003063D01*
X011623Y003063D02*
X011433Y003063D01*
X011446Y003110D02*
X011333Y003110D01*
X011296Y003134D02*
X011406Y003134D01*
X011374Y003157D02*
X011268Y003157D01*
X011258Y003157D02*
X010944Y003157D01*
X010980Y003181D02*
X011350Y003181D01*
X011329Y003204D02*
X011011Y003204D01*
X011039Y003228D02*
X011310Y003228D01*
X011297Y003251D02*
X011062Y003251D01*
X011075Y003275D02*
X011285Y003275D01*
X011279Y003298D02*
X011088Y003298D01*
X011099Y003322D02*
X011274Y003322D01*
X011270Y003344D02*
X011110Y003344D01*
X010963Y003379D02*
X010916Y003314D01*
X010851Y003250D01*
X010768Y003226D01*
X010679Y003232D01*
X010609Y003279D01*
X010555Y003338D01*
X010532Y003415D01*
X010538Y003492D01*
X010561Y003551D01*
X010609Y003610D01*
X010668Y003645D01*
X010715Y003657D01*
X010715Y003627D01*
X010720Y003579D01*
X010734Y003533D01*
X010757Y003490D01*
X010787Y003452D01*
X010825Y003421D01*
X010868Y003398D01*
X010914Y003384D01*
X010963Y003379D01*
X010955Y003369D02*
X010546Y003369D01*
X010553Y003345D02*
X010938Y003345D01*
X010921Y003322D02*
X010570Y003322D01*
X010591Y003298D02*
X010900Y003298D01*
X010431Y003574D02*
X010453Y003610D01*
X010477Y003644D01*
X010504Y003676D01*
X010533Y003706D01*
X010565Y003733D01*
X010598Y003758D01*
X010633Y003780D01*
X010670Y003800D01*
X010709Y003817D01*
X010707Y003815D02*
X010555Y003815D01*
X010534Y003792D02*
X010650Y003792D01*
X010600Y003768D02*
X010513Y003768D01*
X010495Y003745D02*
X010571Y003745D01*
X010542Y003721D02*
X010477Y003721D01*
X010465Y003698D02*
X010515Y003698D01*
X010495Y003674D02*
X010456Y003674D01*
X010448Y003651D02*
X010480Y003651D01*
X010465Y003627D02*
X010443Y003627D01*
X010438Y003604D02*
X010450Y003604D01*
X010435Y003580D02*
X010433Y003580D01*
X010554Y003533D02*
X010733Y003533D01*
X011111Y003344D02*
X011093Y003309D01*
X011072Y003276D01*
X011048Y003245D01*
X011022Y003217D01*
X010993Y003191D01*
X010961Y003168D01*
X010928Y003148D01*
X010893Y003132D01*
X010856Y003119D01*
X010819Y003109D01*
X010780Y003103D01*
X010742Y003100D01*
X010703Y003101D01*
X010755Y003087D02*
X011079Y003087D01*
X011154Y003110D02*
X010832Y003110D01*
X010901Y003134D02*
X011215Y003134D01*
X011376Y003087D02*
X011494Y003087D01*
X011488Y003055D02*
X012126Y003055D01*
X012120Y003369D02*
X011955Y003369D01*
X011955Y003392D02*
X012120Y003392D01*
X012120Y003416D02*
X011955Y003416D01*
X011955Y003415D02*
X011955Y003793D01*
X011943Y003793D01*
X011955Y003792D02*
X012120Y003792D01*
X012120Y003768D02*
X011955Y003768D01*
X011955Y003745D02*
X012120Y003745D01*
X012120Y003721D02*
X011955Y003721D01*
X011955Y003698D02*
X012120Y003698D01*
X012120Y003674D02*
X011955Y003674D01*
X011955Y003651D02*
X012120Y003651D01*
X012120Y003627D02*
X011955Y003627D01*
X011955Y003604D02*
X012120Y003604D01*
X012120Y003580D02*
X011955Y003580D01*
X011955Y003557D02*
X012120Y003557D01*
X012120Y003533D02*
X011955Y003533D01*
X011955Y003510D02*
X012120Y003510D01*
X012120Y003486D02*
X011955Y003486D01*
X011955Y003463D02*
X012120Y003463D01*
X012120Y003439D02*
X011955Y003439D01*
X012073Y004065D02*
X012030Y004081D01*
X011985Y004094D01*
X011939Y004103D01*
X011893Y004109D01*
X011847Y004112D01*
X011800Y004111D01*
X011754Y004107D01*
X011708Y004099D01*
X011663Y004088D01*
X011619Y004074D01*
X011576Y004056D01*
X011534Y004036D01*
X011494Y004012D01*
X011523Y004027D02*
X012258Y004027D01*
X012172Y004097D02*
X012430Y004097D01*
X012421Y004100D02*
X012351Y004112D01*
X012421Y004100D02*
X012486Y004082D01*
X012563Y004047D01*
X012555Y004050D02*
X011568Y004050D01*
X011624Y004074D02*
X012044Y004074D01*
X012102Y004074D02*
X012504Y004074D01*
X012504Y003911D02*
X012416Y003911D01*
X012391Y003909D02*
X012523Y003909D01*
X012591Y003886D02*
X012322Y003886D01*
X012293Y003862D02*
X012618Y003862D01*
X012636Y003839D02*
X012275Y003839D01*
X012262Y003815D02*
X012647Y003815D01*
X012658Y003757D02*
X012656Y003779D01*
X012652Y003800D01*
X012644Y003821D01*
X012634Y003840D01*
X012620Y003858D01*
X012605Y003873D01*
X012587Y003887D01*
X012568Y003897D01*
X012547Y003905D01*
X012526Y003909D01*
X012504Y003911D01*
X012357Y004047D02*
X012328Y004045D01*
X012299Y004040D01*
X012271Y004031D01*
X012245Y004019D01*
X012220Y004004D01*
X012197Y003986D01*
X012176Y003965D01*
X012158Y003942D01*
X012143Y003917D01*
X012131Y003891D01*
X012122Y003863D01*
X012117Y003834D01*
X012115Y003805D01*
X011943Y003793D02*
X011924Y003795D01*
X011904Y003793D01*
X011885Y003788D01*
X011867Y003779D01*
X011851Y003768D01*
X011838Y003754D01*
X011827Y003738D01*
X011819Y003720D01*
X011814Y003700D01*
X011813Y003681D01*
X011813Y003674D02*
X011401Y003674D01*
X011401Y003651D02*
X011812Y003651D01*
X011812Y003627D02*
X011402Y003627D01*
X011402Y003604D02*
X011812Y003604D01*
X011811Y003580D02*
X011403Y003580D01*
X011403Y003557D02*
X011811Y003557D01*
X011810Y003533D02*
X011404Y003533D01*
X011404Y003510D02*
X011810Y003510D01*
X011809Y003486D02*
X011404Y003486D01*
X011405Y003463D02*
X011809Y003463D01*
X011808Y003439D02*
X011405Y003439D01*
X011394Y003433D02*
X011394Y003722D01*
X011400Y003721D02*
X011816Y003721D01*
X011813Y003698D02*
X011401Y003698D01*
X011399Y003745D02*
X011826Y003745D01*
X011845Y003768D02*
X011395Y003768D01*
X011390Y003792D02*
X011875Y003792D01*
X012073Y004064D02*
X012113Y004080D01*
X012153Y004093D01*
X012194Y004103D01*
X012236Y004110D01*
X012278Y004114D01*
X012321Y004114D01*
X012363Y004110D01*
X012405Y004104D01*
X012446Y004094D01*
X012486Y004081D01*
X012525Y004065D01*
X012563Y004046D01*
X012416Y003911D02*
X012393Y003909D01*
X012370Y003904D01*
X012347Y003896D01*
X012327Y003885D01*
X012308Y003871D01*
X012291Y003854D01*
X012277Y003835D01*
X012266Y003815D01*
X012258Y003792D01*
X012253Y003769D01*
X012251Y003746D01*
X011964Y004097D02*
X011708Y004097D01*
X011377Y004074D02*
X010926Y004074D01*
X010935Y004050D02*
X010873Y004050D01*
X010877Y004027D02*
X010829Y004027D01*
X010838Y004003D02*
X010798Y004003D01*
X010807Y003980D02*
X010768Y003980D01*
X010784Y003956D02*
X010738Y003956D01*
X010760Y003933D02*
X010713Y003933D01*
X010690Y003909D02*
X010742Y003909D01*
X010733Y003886D02*
X010650Y003886D01*
X010611Y003862D02*
X010725Y003862D01*
X010717Y003839D02*
X010582Y003839D01*
X010691Y003651D02*
X010715Y003651D01*
X010715Y003627D02*
X010638Y003627D01*
X010604Y003604D02*
X010717Y003604D01*
X010719Y003580D02*
X010585Y003580D01*
X010566Y003557D02*
X010726Y003557D01*
X010746Y003510D02*
X010545Y003510D01*
X010537Y003486D02*
X010759Y003486D01*
X010778Y003463D02*
X010535Y003463D01*
X010534Y003439D02*
X010803Y003439D01*
X010835Y003416D02*
X010532Y003416D01*
X010539Y003392D02*
X010887Y003392D01*
X010876Y003275D02*
X010615Y003275D01*
X010650Y003251D02*
X010853Y003251D01*
X010775Y003228D02*
X010736Y003228D01*
X010962Y003379D02*
X010953Y003352D01*
X010940Y003326D01*
X010924Y003302D01*
X010905Y003280D01*
X010883Y003261D01*
X010859Y003245D01*
X010834Y003232D01*
X010806Y003223D01*
X010778Y003217D01*
X010749Y003215D01*
X010720Y003217D01*
X010692Y003222D01*
X010664Y003231D01*
X010638Y003244D01*
X010614Y003260D01*
X010592Y003279D01*
X010573Y003300D01*
X010557Y003324D01*
X010544Y003350D01*
X010534Y003377D01*
X010528Y003405D01*
X010526Y003434D01*
X010528Y003463D01*
X010533Y003491D01*
X010542Y003519D01*
X010554Y003545D01*
X010570Y003569D01*
X010588Y003591D01*
X010610Y003611D01*
X010633Y003627D01*
X010659Y003640D01*
X010686Y003650D01*
X010715Y003656D01*
X010685Y003905D02*
X010652Y003890D01*
X010619Y003873D01*
X010589Y003853D01*
X010560Y003830D01*
X010534Y003804D01*
X010510Y003776D01*
X010489Y003746D01*
X010471Y003714D01*
X010456Y003681D01*
X010445Y003646D01*
X010436Y003610D01*
X010431Y003574D01*
X010703Y003102D02*
X010749Y003086D01*
X010796Y003074D01*
X010844Y003066D01*
X010893Y003062D01*
X010942Y003061D01*
X010990Y003064D01*
X011038Y003071D01*
X011086Y003082D01*
X011133Y003097D01*
X011178Y003115D01*
X011222Y003136D01*
X011264Y003161D01*
X011493Y003275D02*
X011727Y003275D01*
X011754Y003298D02*
X011459Y003298D01*
X011432Y003322D02*
X011772Y003322D01*
X011786Y003345D02*
X011420Y003345D01*
X011411Y003369D02*
X011795Y003369D01*
X011803Y003392D02*
X011408Y003392D01*
X011406Y003416D02*
X011808Y003416D01*
X011955Y003415D02*
X011953Y003379D01*
X011947Y003343D01*
X011938Y003308D01*
X011925Y003274D01*
X011909Y003242D01*
X011889Y003211D01*
X011866Y003183D01*
X011840Y003158D01*
X011812Y003135D01*
X011782Y003115D01*
X011749Y003099D01*
X011715Y003086D01*
X011680Y003076D01*
X011645Y003071D01*
X011608Y003069D01*
X011572Y003071D01*
X011536Y003077D01*
X011501Y003086D01*
X011468Y003099D01*
X011435Y003116D01*
X011405Y003136D01*
X011377Y003158D01*
X011351Y003184D01*
X011329Y003212D01*
X011309Y003243D01*
X011292Y003275D01*
X011280Y003309D01*
X011270Y003344D01*
X011264Y003161D02*
X011286Y003138D01*
X011311Y003118D01*
X011337Y003100D01*
X011365Y003084D01*
X011395Y003072D01*
X011425Y003063D01*
X011457Y003058D01*
X011488Y003055D01*
X011521Y003251D02*
X011691Y003251D01*
X011814Y003433D02*
X011812Y003406D01*
X011807Y003379D01*
X011798Y003353D01*
X011786Y003328D01*
X011771Y003305D01*
X011752Y003285D01*
X011732Y003266D01*
X011709Y003251D01*
X011684Y003239D01*
X011658Y003230D01*
X011631Y003225D01*
X011604Y003223D01*
X011577Y003225D01*
X011550Y003230D01*
X011524Y003239D01*
X011499Y003251D01*
X011476Y003266D01*
X011456Y003285D01*
X011437Y003305D01*
X011422Y003328D01*
X011410Y003353D01*
X011401Y003379D01*
X011396Y003406D01*
X011394Y003433D01*
X011495Y004011D02*
X011455Y004037D01*
X011414Y004060D01*
X011371Y004080D01*
X011326Y004095D01*
X011281Y004108D01*
X011234Y004117D01*
X011187Y004122D01*
X011140Y004123D01*
X011093Y004121D01*
X011046Y004114D01*
X011000Y004105D01*
X010954Y004091D01*
X010910Y004074D01*
X010868Y004054D01*
X010827Y004030D01*
X010788Y004003D01*
X010751Y003973D01*
X010717Y003940D01*
X010686Y003905D01*
X010995Y004097D02*
X011311Y004097D01*
X010839Y003722D02*
X010841Y003694D01*
X010846Y003667D01*
X010854Y003640D01*
X010865Y003615D01*
X010880Y003591D01*
X010897Y003569D01*
X010916Y003550D01*
X010938Y003533D01*
X010962Y003518D01*
X010987Y003507D01*
X011014Y003499D01*
X011041Y003494D01*
X011069Y003492D01*
X010963Y003379D02*
X010931Y003388D01*
X010901Y003401D01*
X010872Y003416D01*
X010845Y003435D01*
X010819Y003456D01*
X010796Y003479D01*
X010775Y003505D01*
X010757Y003532D01*
X010742Y003562D01*
X010730Y003592D01*
X010721Y003624D01*
X010715Y003656D01*
X010710Y003816D02*
X010722Y003850D01*
X010738Y003883D01*
X010758Y003914D01*
X010780Y003943D01*
X010805Y003969D01*
X010833Y003993D01*
X010864Y004013D01*
X010896Y004030D01*
X010930Y004044D01*
X010965Y004054D01*
X011001Y004060D01*
X011037Y004063D01*
X011074Y004062D01*
X011110Y004057D01*
X011145Y004048D01*
X011180Y004036D01*
X011213Y004020D01*
X011244Y004001D01*
X011272Y003978D01*
X011299Y003953D01*
X011322Y003925D01*
X011343Y003895D01*
X011360Y003863D01*
X011374Y003829D01*
X011384Y003794D01*
X011391Y003758D01*
X011394Y003722D01*
X010966Y003063D02*
X010904Y003063D01*
X011813Y003433D02*
X011815Y003557D01*
X011813Y003681D01*
D15*
X009859Y003449D02*
X009859Y003305D01*
X009669Y003286D01*
X009648Y003222D01*
X009617Y003162D01*
X009738Y003014D01*
X009636Y002912D01*
X009488Y003033D01*
X009428Y003002D01*
X009344Y003207D01*
X009381Y003228D01*
X009413Y003258D01*
X009437Y003294D01*
X009452Y003334D01*
X009457Y003377D01*
X009452Y003421D01*
X009437Y003463D01*
X009412Y003499D01*
X009379Y003529D01*
X009340Y003549D01*
X009297Y003560D01*
X009253Y003561D01*
X009210Y003551D01*
X009170Y003531D01*
X009137Y003502D01*
X009111Y003466D01*
X009095Y003425D01*
X009088Y003381D01*
X009093Y003338D01*
X008687Y003338D01*
X008687Y003305D02*
X008687Y003449D01*
X008877Y003469D01*
X008898Y003533D01*
X008929Y003593D01*
X008808Y003741D01*
X008909Y003843D01*
X009058Y003722D01*
X009117Y003753D01*
X009182Y003773D01*
X009201Y003964D01*
X009345Y003964D01*
X009364Y003773D01*
X009428Y003753D01*
X009488Y003722D01*
X009636Y003843D01*
X009738Y003741D01*
X009617Y003593D01*
X009648Y003533D01*
X009669Y003469D01*
X009859Y003449D01*
X009828Y003453D02*
X009440Y003453D01*
X009455Y003395D02*
X009859Y003395D01*
X009859Y003338D02*
X009453Y003338D01*
X009428Y003280D02*
X009667Y003280D01*
X009648Y003222D02*
X009371Y003222D01*
X009361Y003165D02*
X009619Y003165D01*
X009662Y003107D02*
X009385Y003107D01*
X009409Y003050D02*
X009709Y003050D01*
X009717Y002992D02*
X009538Y002992D01*
X009609Y002935D02*
X009659Y002935D01*
X009185Y003165D02*
X008927Y003165D01*
X008929Y003162D02*
X008898Y003222D01*
X008877Y003286D01*
X008687Y003305D01*
X008687Y003395D02*
X009090Y003395D01*
X009093Y003338D02*
X009107Y003296D01*
X009132Y003259D01*
X009164Y003229D01*
X009202Y003207D01*
X009117Y003002D01*
X009058Y003033D01*
X008909Y002912D01*
X008808Y003014D01*
X008929Y003162D01*
X008898Y003222D02*
X009175Y003222D01*
X009118Y003280D02*
X008879Y003280D01*
X008884Y003107D02*
X009161Y003107D01*
X009137Y003050D02*
X008837Y003050D01*
X008829Y002992D02*
X009007Y002992D01*
X008937Y002935D02*
X008887Y002935D01*
X008718Y003453D02*
X009106Y003453D01*
X009146Y003510D02*
X008890Y003510D01*
X008916Y003568D02*
X009630Y003568D01*
X009644Y003625D02*
X008902Y003625D01*
X008855Y003683D02*
X009691Y003683D01*
X009738Y003740D02*
X009511Y003740D01*
X009452Y003740D02*
X009094Y003740D01*
X009035Y003740D02*
X008808Y003740D01*
X008864Y003798D02*
X008964Y003798D01*
X009184Y003798D02*
X009362Y003798D01*
X009356Y003856D02*
X009190Y003856D01*
X009196Y003913D02*
X009350Y003913D01*
X009581Y003798D02*
X009681Y003798D01*
X009655Y003510D02*
X009399Y003510D01*
M02*
