G75*
%MOIN*%
%OFA0B0*%
%FSLAX24Y24*%
%IPPOS*%
%LPD*%
%AMOC8*
5,1,8,0,0,1.08239X$1,22.5*
%
%ADD10R,0.0709X0.1260*%
%ADD11R,0.0870X0.0240*%
%ADD12R,0.0394X0.0433*%
%ADD13R,0.0433X0.0394*%
%ADD14R,0.0394X0.0394*%
%ADD15R,0.0276X0.0591*%
%ADD16R,0.0394X0.0236*%
%ADD17R,0.0394X0.0315*%
%ADD18C,0.0118*%
D10*
X009796Y004940D03*
X012000Y004940D03*
D11*
X012218Y006940D03*
X012218Y007440D03*
X012218Y007940D03*
X012218Y008440D03*
X009568Y008440D03*
X009568Y007940D03*
X009568Y007440D03*
X009568Y006940D03*
D12*
X008398Y007980D03*
X008398Y008650D03*
X009376Y009127D03*
X010045Y009127D03*
X011813Y009190D03*
X012483Y009190D03*
X013313Y009940D03*
X013983Y009940D03*
X011920Y003377D03*
X011251Y003377D03*
D13*
X012063Y006190D03*
X012733Y006190D03*
X010233Y006190D03*
X009563Y006190D03*
X013398Y008605D03*
X013398Y009275D03*
X008398Y009480D03*
X008398Y010150D03*
D14*
X012735Y001841D03*
X012735Y001171D03*
X014310Y001171D03*
X014310Y001841D03*
D15*
X009971Y002129D03*
X009381Y002129D03*
X008200Y002129D03*
D16*
X007648Y001046D03*
X010522Y001046D03*
D17*
X010522Y001873D03*
X007648Y001873D03*
D18*
X011102Y002614D02*
X011102Y002890D01*
X011378Y002890D01*
X011378Y002614D01*
X011102Y002614D01*
X011102Y002731D02*
X011378Y002731D01*
X011378Y002848D02*
X011102Y002848D01*
X011793Y002890D02*
X011793Y002614D01*
X011793Y002890D02*
X012069Y002890D01*
X012069Y002614D01*
X011793Y002614D01*
X011793Y002731D02*
X012069Y002731D01*
X012069Y002848D02*
X011793Y002848D01*
M02*
