%
M48
M72
T01C0.0130
T02C0.0197
T03C0.0236
T04C0.0315
T05C0.0354
T06C0.0360
T07C0.0433
T08C0.0866
T09C0.0910
%
T01
X10398Y3002
X13523Y1252
X10898Y7190
X10898Y7690
X10460Y8565
X11148Y8690
X10523Y9190
X12898Y7690
X13398Y8065
T02
X12210Y1735
X12210Y1440
X11617Y1440
X11617Y1735
X11023Y1735
X11023Y1440
T03
X10898Y4565
X11273Y4565
X11273Y4940
X10898Y4940
X10523Y4940
X10523Y4565
X10523Y5315
X10898Y5315
X11273Y5315
T04
X11398Y10105
X12398Y10105
X10398Y10105
X9398Y10105
T05
X9676Y1440
X8495Y1440
T06
X8093Y4312
X8093Y5246
X8093Y6134
X8093Y7068
X13703Y7062
X13703Y6134
X13703Y5246
X13703Y4318
T07
X7109Y4804
X7109Y6576
T08
X6648Y1440
X7148Y3406
X7148Y7973
X6648Y9940
X15148Y9940
X15148Y1440
T09
X14717Y3105
X14717Y8275
M30
