G75*
%MOIN*%
%OFA0B0*%
%FSLAX24Y24*%
%IPPOS*%
%LPD*%
%AMOC8*
5,1,8,0,0,1.08239X$1,22.5*
%
%ADD10C,0.0740*%
%ADD11C,0.1266*%
%ADD12R,0.0709X0.1260*%
%ADD13R,0.0870X0.0240*%
%ADD14R,0.0394X0.0433*%
%ADD15R,0.0433X0.0394*%
%ADD16C,0.1310*%
%ADD17R,0.0394X0.0394*%
%ADD18R,0.0276X0.0591*%
%ADD19R,0.0394X0.0236*%
%ADD20R,0.0394X0.0315*%
%ADD21OC8,0.0660*%
%ADD22OC8,0.0337*%
%ADD23C,0.0118*%
%ADD24C,0.0160*%
%ADD25OC8,0.0270*%
%ADD26C,0.0240*%
%ADD27C,0.0100*%
%ADD28R,0.0376X0.0376*%
D10*
X008093Y004312D03*
X008093Y005246D03*
X008093Y006134D03*
X008093Y007068D03*
X013703Y007062D03*
X013703Y006134D03*
X013703Y005246D03*
X013703Y004318D03*
D11*
X007148Y003406D03*
X007148Y007973D03*
D12*
X009796Y004940D03*
X012000Y004940D03*
D13*
X012218Y006940D03*
X012218Y007440D03*
X012218Y007940D03*
X012218Y008440D03*
X009568Y008440D03*
X009568Y007940D03*
X009568Y007440D03*
X009568Y006940D03*
D14*
X008398Y007980D03*
X008398Y008650D03*
X009376Y009127D03*
X010045Y009127D03*
X011813Y009190D03*
X012483Y009190D03*
X013313Y009940D03*
X013983Y009940D03*
X011920Y003377D03*
X011251Y003377D03*
D15*
X012063Y006190D03*
X012733Y006190D03*
X010233Y006190D03*
X009563Y006190D03*
X013398Y008605D03*
X013398Y009275D03*
X008398Y009480D03*
X008398Y010150D03*
D16*
X014717Y008275D03*
X014717Y003105D03*
D17*
X014310Y001841D03*
X014310Y001171D03*
X012735Y001171D03*
X012735Y001841D03*
D18*
X009971Y002129D03*
X009381Y002129D03*
X008200Y002129D03*
D19*
X007648Y001046D03*
X010522Y001046D03*
D20*
X010522Y001873D03*
X007648Y001873D03*
D21*
X009398Y010105D03*
X010398Y010105D03*
X011398Y010105D03*
X012398Y010105D03*
D22*
X012210Y001735D03*
X012210Y001440D03*
X011617Y001440D03*
X011617Y001735D03*
X011023Y001735D03*
X011023Y001440D03*
D23*
X011102Y002614D02*
X011102Y002890D01*
X011378Y002890D01*
X011378Y002614D01*
X011102Y002614D01*
X011102Y002731D02*
X011378Y002731D01*
X011378Y002848D02*
X011102Y002848D01*
X011793Y002890D02*
X011793Y002614D01*
X011793Y002890D02*
X012069Y002890D01*
X012069Y002614D01*
X011793Y002614D01*
X011793Y002731D02*
X012069Y002731D01*
X012069Y002848D02*
X011793Y002848D01*
D24*
X006128Y002190D02*
X006128Y009190D01*
X006398Y009190D01*
X006540Y009200D01*
X006680Y009230D01*
X006813Y009280D01*
X006893Y009324D01*
X007023Y009378D01*
X007210Y009564D01*
X007264Y009695D01*
X007308Y009775D01*
X007357Y009908D01*
X007388Y010048D01*
X007398Y010190D01*
X007398Y010460D01*
X008097Y010460D01*
X008041Y010404D01*
X008041Y010352D01*
X007958Y010269D01*
X007708Y010019D01*
X007708Y008861D01*
X008061Y008508D01*
X008061Y008375D01*
X008093Y008343D01*
X008091Y008341D01*
X008057Y008307D01*
X008033Y008266D01*
X008021Y008221D01*
X008021Y007999D01*
X008379Y007999D01*
X008379Y007962D01*
X008021Y007962D01*
X008021Y007740D01*
X008033Y007694D01*
X008057Y007653D01*
X008091Y007620D01*
X008103Y007613D01*
X008103Y007078D01*
X008643Y007078D01*
X008643Y007111D01*
X008629Y007197D01*
X008602Y007279D01*
X008563Y007356D01*
X008512Y007426D01*
X008451Y007487D01*
X008381Y007538D01*
X008304Y007578D01*
X008285Y007584D01*
X008379Y007584D01*
X008379Y007962D01*
X008416Y007962D01*
X008416Y007584D01*
X008618Y007584D01*
X008664Y007596D01*
X008705Y007620D01*
X008708Y007622D01*
X008708Y007611D01*
X008819Y007500D01*
X008993Y007326D01*
X008993Y007262D01*
X009040Y007214D01*
X009022Y007204D01*
X008989Y007170D01*
X008965Y007129D01*
X008953Y007084D01*
X008953Y006940D01*
X009568Y006940D01*
X009568Y006640D01*
X010027Y006640D01*
X010043Y006644D01*
X010043Y006527D01*
X009958Y006527D01*
X009926Y006494D01*
X009924Y006497D01*
X009890Y006531D01*
X009849Y006555D01*
X009803Y006567D01*
X009582Y006567D01*
X009582Y006208D01*
X009545Y006208D01*
X009545Y006172D01*
X009167Y006172D01*
X009167Y005969D01*
X009179Y005924D01*
X009203Y005883D01*
X009236Y005849D01*
X009277Y005825D01*
X009323Y005813D01*
X009545Y005813D01*
X009545Y006172D01*
X009582Y006172D01*
X009582Y005813D01*
X009606Y005813D01*
X009606Y005710D01*
X009383Y005710D01*
X009301Y005628D01*
X009301Y004252D01*
X009383Y004170D01*
X009711Y004170D01*
X009711Y002500D01*
X009693Y002482D01*
X009693Y001847D01*
X009658Y001847D01*
X009658Y002482D01*
X009576Y002564D01*
X009313Y002564D01*
X008353Y003525D01*
X008353Y003868D01*
X008382Y003880D01*
X008525Y004023D01*
X008603Y004211D01*
X008603Y004413D01*
X008525Y004601D01*
X008382Y004744D01*
X008298Y004779D01*
X008382Y004814D01*
X008525Y004957D01*
X008603Y005145D01*
X008603Y005348D01*
X008525Y005535D01*
X008382Y005679D01*
X008354Y005690D01*
X008382Y005701D01*
X008525Y005845D01*
X008603Y006032D01*
X008603Y006235D01*
X008525Y006423D01*
X008382Y006566D01*
X008347Y006580D01*
X008381Y006598D01*
X008451Y006648D01*
X008512Y006710D01*
X008563Y006780D01*
X008602Y006857D01*
X008629Y006939D01*
X008643Y007025D01*
X008643Y007058D01*
X008103Y007058D01*
X008103Y007078D01*
X008083Y007078D01*
X008083Y007618D01*
X008049Y007618D01*
X007964Y007604D01*
X007882Y007578D01*
X007848Y007561D01*
X007879Y007613D01*
X007919Y007712D01*
X007947Y007814D01*
X007957Y007893D01*
X007228Y007893D01*
X007228Y007164D01*
X007307Y007174D01*
X007410Y007202D01*
X007508Y007243D01*
X007588Y007289D01*
X007583Y007279D01*
X007556Y007197D01*
X007543Y007111D01*
X007543Y007078D01*
X008083Y007078D01*
X008083Y007058D01*
X007543Y007058D01*
X007543Y007025D01*
X007556Y006939D01*
X007583Y006857D01*
X007622Y006780D01*
X007673Y006710D01*
X007734Y006648D01*
X007804Y006598D01*
X007838Y006580D01*
X007804Y006566D01*
X007660Y006423D01*
X007583Y006235D01*
X007583Y006032D01*
X007660Y005845D01*
X007804Y005701D01*
X007831Y005690D01*
X007804Y005679D01*
X007660Y005535D01*
X007583Y005348D01*
X007583Y005145D01*
X007660Y004957D01*
X007804Y004814D01*
X007888Y004779D01*
X007804Y004744D01*
X007660Y004601D01*
X007583Y004413D01*
X007583Y004211D01*
X007651Y004045D01*
X007601Y004084D01*
X007508Y004137D01*
X007410Y004178D01*
X007307Y004206D01*
X007228Y004216D01*
X007228Y003487D01*
X007068Y003487D01*
X007068Y004216D01*
X006989Y004206D01*
X006886Y004178D01*
X006787Y004137D01*
X006695Y004084D01*
X006611Y004019D01*
X006535Y003944D01*
X006470Y003859D01*
X006417Y003767D01*
X006376Y003668D01*
X006349Y003565D01*
X006338Y003486D01*
X007068Y003486D01*
X007068Y003326D01*
X007228Y003326D01*
X007228Y002597D01*
X007307Y002607D01*
X007410Y002635D01*
X007508Y002676D01*
X007601Y002729D01*
X007685Y002794D01*
X007760Y002869D01*
X007825Y002954D01*
X007879Y003046D01*
X007919Y003145D01*
X007936Y003206D01*
X008991Y002151D01*
X008927Y002087D01*
X008888Y001992D01*
X008888Y001555D01*
X008840Y001671D01*
X008725Y001785D01*
X008576Y001847D01*
X008477Y001847D01*
X008477Y002482D01*
X008395Y002564D01*
X008004Y002564D01*
X007922Y002482D01*
X007922Y002152D01*
X007903Y002171D01*
X007394Y002171D01*
X007312Y002089D01*
X007312Y001658D01*
X007394Y001576D01*
X007903Y001576D01*
X007985Y001658D01*
X007985Y001712D01*
X008004Y001694D01*
X008173Y001694D01*
X008150Y001671D01*
X008088Y001521D01*
X008088Y001359D01*
X008150Y001209D01*
X008264Y001095D01*
X008414Y001033D01*
X008576Y001033D01*
X008725Y001095D01*
X008840Y001209D01*
X008888Y001325D01*
X008888Y001138D01*
X008927Y001043D01*
X009050Y000920D01*
X007985Y000920D01*
X007985Y001222D01*
X007903Y001304D01*
X007394Y001304D01*
X007390Y001301D01*
X007388Y001332D01*
X007357Y001472D01*
X007308Y001605D01*
X007264Y001685D01*
X007210Y001816D01*
X007023Y002002D01*
X006893Y002056D01*
X006813Y002100D01*
X006680Y002149D01*
X006540Y002180D01*
X006398Y002190D01*
X006128Y002190D01*
X006128Y002275D02*
X007922Y002275D01*
X007922Y002433D02*
X006128Y002433D01*
X006128Y002592D02*
X008550Y002592D01*
X008477Y002433D02*
X008708Y002433D01*
X008867Y002275D02*
X008477Y002275D01*
X008477Y002116D02*
X008957Y002116D01*
X008888Y001958D02*
X008477Y001958D01*
X008691Y001799D02*
X008888Y001799D01*
X008888Y001641D02*
X008852Y001641D01*
X008887Y001324D02*
X008888Y001324D01*
X008888Y001165D02*
X008796Y001165D01*
X008963Y001007D02*
X007985Y001007D01*
X007985Y001165D02*
X008194Y001165D01*
X008102Y001324D02*
X007388Y001324D01*
X007353Y001482D02*
X008088Y001482D01*
X008137Y001641D02*
X007969Y001641D01*
X007328Y001641D02*
X007288Y001641D01*
X007312Y001799D02*
X007217Y001799D01*
X007312Y001958D02*
X007068Y001958D01*
X007339Y002116D02*
X006768Y002116D01*
X006886Y002635D02*
X006989Y002607D01*
X007068Y002597D01*
X007068Y003326D01*
X006338Y003326D01*
X006349Y003248D01*
X006376Y003145D01*
X006417Y003046D01*
X006470Y002954D01*
X006535Y002869D01*
X006611Y002794D01*
X006695Y002729D01*
X006787Y002676D01*
X006886Y002635D01*
X007068Y002750D02*
X007228Y002750D01*
X007228Y002909D02*
X007068Y002909D01*
X007068Y003067D02*
X007228Y003067D01*
X007228Y003226D02*
X007068Y003226D01*
X007068Y003384D02*
X006128Y003384D01*
X006128Y003226D02*
X006354Y003226D01*
X006408Y003067D02*
X006128Y003067D01*
X006128Y002909D02*
X006505Y002909D01*
X006667Y002750D02*
X006128Y002750D01*
X006128Y003543D02*
X006346Y003543D01*
X006390Y003701D02*
X006128Y003701D01*
X006128Y003860D02*
X006471Y003860D01*
X006610Y004018D02*
X006128Y004018D01*
X006128Y004177D02*
X006883Y004177D01*
X007068Y004177D02*
X007228Y004177D01*
X007197Y004358D02*
X007020Y004358D01*
X006856Y004426D01*
X006730Y004551D01*
X006662Y004715D01*
X006662Y004893D01*
X006730Y005057D01*
X006856Y005183D01*
X007020Y005251D01*
X007197Y005251D01*
X007361Y005183D01*
X007487Y005057D01*
X007555Y004893D01*
X007555Y004715D01*
X007487Y004551D01*
X007361Y004426D01*
X007197Y004358D01*
X007430Y004494D02*
X007616Y004494D01*
X007583Y004335D02*
X006128Y004335D01*
X006128Y004494D02*
X006787Y004494D01*
X006688Y004652D02*
X006128Y004652D01*
X006128Y004811D02*
X006662Y004811D01*
X006694Y004969D02*
X006128Y004969D01*
X006128Y005128D02*
X006801Y005128D01*
X006128Y005286D02*
X007583Y005286D01*
X007623Y005445D02*
X006128Y005445D01*
X006128Y005603D02*
X007729Y005603D01*
X007743Y005762D02*
X006128Y005762D01*
X006128Y005920D02*
X007629Y005920D01*
X007583Y006079D02*
X006128Y006079D01*
X006128Y006237D02*
X006815Y006237D01*
X006856Y006197D02*
X006730Y006323D01*
X006662Y006487D01*
X006662Y006665D01*
X006730Y006829D01*
X006856Y006954D01*
X007020Y007022D01*
X007197Y007022D01*
X007361Y006954D01*
X007487Y006829D01*
X007555Y006665D01*
X007555Y006487D01*
X007487Y006323D01*
X007361Y006197D01*
X007197Y006129D01*
X007020Y006129D01*
X006856Y006197D01*
X006700Y006396D02*
X006128Y006396D01*
X006128Y006554D02*
X006662Y006554D01*
X006682Y006713D02*
X006128Y006713D01*
X006128Y006871D02*
X006773Y006871D01*
X006886Y007202D02*
X006787Y007243D01*
X006695Y007296D01*
X006611Y007361D01*
X006535Y007436D01*
X006470Y007521D01*
X006417Y007613D01*
X006376Y007712D01*
X006349Y007814D01*
X006338Y007893D01*
X007068Y007893D01*
X007228Y007893D01*
X007228Y008053D01*
X007957Y008053D01*
X007947Y008132D01*
X007919Y008235D01*
X007879Y008334D01*
X007825Y008426D01*
X007760Y008511D01*
X007685Y008586D01*
X007601Y008651D01*
X007508Y008704D01*
X007410Y008745D01*
X007307Y008773D01*
X007228Y008783D01*
X007228Y008053D01*
X007068Y008053D01*
X007068Y007893D01*
X007068Y007164D01*
X006989Y007174D01*
X006886Y007202D01*
X006936Y007188D02*
X006128Y007188D01*
X006128Y007347D02*
X006629Y007347D01*
X006482Y007505D02*
X006128Y007505D01*
X006128Y007664D02*
X006396Y007664D01*
X006348Y007822D02*
X006128Y007822D01*
X006128Y007981D02*
X007068Y007981D01*
X007068Y008053D02*
X006338Y008053D01*
X006349Y008132D01*
X006376Y008235D01*
X006417Y008334D01*
X006470Y008426D01*
X006535Y008511D01*
X006611Y008586D01*
X006695Y008651D01*
X006787Y008704D01*
X006886Y008745D01*
X006989Y008773D01*
X007068Y008783D01*
X007068Y008053D01*
X007068Y008139D02*
X007228Y008139D01*
X007228Y008298D02*
X007068Y008298D01*
X007068Y008456D02*
X007228Y008456D01*
X007228Y008615D02*
X007068Y008615D01*
X007068Y008773D02*
X007228Y008773D01*
X007300Y008773D02*
X007796Y008773D01*
X007647Y008615D02*
X007954Y008615D01*
X008061Y008456D02*
X007802Y008456D01*
X007894Y008298D02*
X008052Y008298D01*
X008021Y008139D02*
X007945Y008139D01*
X007948Y007822D02*
X008021Y007822D01*
X008051Y007664D02*
X007900Y007664D01*
X008083Y007505D02*
X008103Y007505D01*
X008103Y007347D02*
X008083Y007347D01*
X008083Y007188D02*
X008103Y007188D01*
X008426Y007505D02*
X008814Y007505D01*
X008972Y007347D02*
X008568Y007347D01*
X008631Y007188D02*
X009007Y007188D01*
X008953Y007030D02*
X008643Y007030D01*
X008607Y006871D02*
X008953Y006871D01*
X008953Y006940D02*
X008953Y006796D01*
X008965Y006750D01*
X008989Y006709D01*
X009022Y006676D01*
X009063Y006652D01*
X009109Y006640D01*
X009568Y006640D01*
X009568Y006940D01*
X009568Y006940D01*
X009568Y006940D01*
X008953Y006940D01*
X008987Y006713D02*
X008515Y006713D01*
X008393Y006554D02*
X009277Y006554D01*
X009277Y006555D02*
X009236Y006531D01*
X009203Y006497D01*
X009179Y006456D01*
X009167Y006411D01*
X009167Y006208D01*
X009545Y006208D01*
X009545Y006567D01*
X009323Y006567D01*
X009277Y006555D01*
X009167Y006396D02*
X008536Y006396D01*
X008602Y006237D02*
X009167Y006237D01*
X009167Y006079D02*
X008603Y006079D01*
X008556Y005920D02*
X009181Y005920D01*
X009545Y005920D02*
X009582Y005920D01*
X009606Y005762D02*
X008442Y005762D01*
X008457Y005603D02*
X009301Y005603D01*
X009301Y005445D02*
X008562Y005445D01*
X008603Y005286D02*
X009301Y005286D01*
X009301Y005128D02*
X008596Y005128D01*
X008530Y004969D02*
X009301Y004969D01*
X009301Y004811D02*
X008375Y004811D01*
X008474Y004652D02*
X009301Y004652D01*
X009301Y004494D02*
X008569Y004494D01*
X008603Y004335D02*
X009301Y004335D01*
X009376Y004177D02*
X008589Y004177D01*
X008520Y004018D02*
X009711Y004018D01*
X009711Y003860D02*
X008353Y003860D01*
X008353Y003701D02*
X009711Y003701D01*
X009711Y003543D02*
X008353Y003543D01*
X008493Y003384D02*
X009711Y003384D01*
X009711Y003226D02*
X008651Y003226D01*
X008810Y003067D02*
X009711Y003067D01*
X009711Y002909D02*
X008968Y002909D01*
X009127Y002750D02*
X009711Y002750D01*
X009711Y002592D02*
X009285Y002592D01*
X009658Y002433D02*
X009693Y002433D01*
X009693Y002275D02*
X009658Y002275D01*
X009658Y002116D02*
X009693Y002116D01*
X009693Y001958D02*
X009658Y001958D01*
X010249Y002152D02*
X010249Y002272D01*
X010477Y002500D01*
X010936Y002500D01*
X011020Y002416D01*
X011460Y002416D01*
X011577Y002532D01*
X011577Y002973D01*
X011542Y003008D01*
X011558Y003017D01*
X011592Y003050D01*
X011608Y003078D01*
X011654Y003033D01*
X011594Y002973D01*
X011594Y002532D01*
X011710Y002416D01*
X012006Y002416D01*
X011990Y002400D01*
X011950Y002304D01*
X011950Y001911D01*
X011942Y001903D01*
X011761Y002084D01*
X011617Y002084D01*
X011617Y001735D01*
X011617Y001440D01*
X011617Y001440D01*
X011617Y001387D01*
X011617Y001092D01*
X011761Y001092D01*
X011942Y001272D01*
X012083Y001132D01*
X012338Y001132D01*
X012359Y001152D01*
X012359Y000951D01*
X012367Y000920D01*
X010859Y000920D01*
X010859Y001167D01*
X010895Y001132D01*
X011151Y001132D01*
X011291Y001272D01*
X011472Y001092D01*
X011617Y001092D01*
X011617Y001440D01*
X011617Y001440D01*
X011617Y001735D01*
X011617Y001735D01*
X011617Y001735D01*
X011617Y002084D01*
X011472Y002084D01*
X011291Y001903D01*
X011151Y002044D01*
X010895Y002044D01*
X010859Y002008D01*
X010859Y002089D01*
X010777Y002171D01*
X010268Y002171D01*
X010249Y002152D01*
X010252Y002275D02*
X011950Y002275D01*
X011950Y002116D02*
X010831Y002116D01*
X011236Y001958D02*
X011347Y001958D01*
X011617Y001958D02*
X011617Y001958D01*
X011617Y001799D02*
X011617Y001799D01*
X011887Y001958D02*
X011950Y001958D01*
X011617Y001641D02*
X011617Y001641D01*
X011617Y001482D02*
X011617Y001482D01*
X011617Y001324D02*
X011617Y001324D01*
X011617Y001165D02*
X011617Y001165D01*
X011835Y001165D02*
X012049Y001165D01*
X012359Y001007D02*
X010859Y001007D01*
X010859Y001165D02*
X010861Y001165D01*
X011185Y001165D02*
X011398Y001165D01*
X012754Y001165D02*
X014292Y001165D01*
X014292Y001153D02*
X013933Y001153D01*
X013933Y000951D01*
X013942Y000920D01*
X013104Y000920D01*
X013112Y000951D01*
X013112Y001153D01*
X012754Y001153D01*
X012754Y001190D01*
X013112Y001190D01*
X013112Y001392D01*
X013100Y001438D01*
X013076Y001479D01*
X013043Y001512D01*
X013015Y001528D01*
X013072Y001586D01*
X013072Y001651D01*
X013973Y001651D01*
X013973Y001586D01*
X014031Y001528D01*
X014003Y001512D01*
X013969Y001479D01*
X013946Y001438D01*
X013933Y001392D01*
X013933Y001190D01*
X014292Y001190D01*
X014292Y001153D01*
X013933Y001007D02*
X013112Y001007D01*
X013112Y001324D02*
X013933Y001324D01*
X013973Y001482D02*
X013073Y001482D01*
X013072Y001641D02*
X013973Y001641D01*
X013973Y002031D02*
X013088Y002031D01*
X013088Y002611D01*
X013986Y003510D01*
X013966Y003475D01*
X013924Y003374D01*
X013896Y003268D01*
X013885Y003185D01*
X014637Y003185D01*
X014637Y003937D01*
X014554Y003926D01*
X014448Y003897D01*
X014347Y003855D01*
X014312Y003836D01*
X014588Y004111D01*
X014588Y007269D01*
X014312Y007544D01*
X014347Y007524D01*
X014448Y007483D01*
X014554Y007454D01*
X014637Y007443D01*
X014637Y008195D01*
X014797Y008195D01*
X014797Y008355D01*
X015548Y008355D01*
X015537Y008438D01*
X015509Y008544D01*
X015467Y008645D01*
X015413Y008740D01*
X015346Y008827D01*
X015269Y008904D01*
X015182Y008971D01*
X015087Y009025D01*
X014986Y009067D01*
X014880Y009096D01*
X014797Y009107D01*
X014797Y008355D01*
X014637Y008355D01*
X014637Y009107D01*
X014554Y009096D01*
X014448Y009067D01*
X014347Y009025D01*
X014252Y008971D01*
X014165Y008904D01*
X014088Y008827D01*
X014021Y008740D01*
X013966Y008645D01*
X013924Y008544D01*
X013901Y008456D01*
X013754Y008602D01*
X013754Y008693D01*
X014173Y009111D01*
X014173Y009583D01*
X014237Y009583D01*
X014319Y009665D01*
X014319Y010214D01*
X014237Y010296D01*
X013728Y010296D01*
X013670Y010239D01*
X013654Y010267D01*
X013621Y010301D01*
X013580Y010324D01*
X013534Y010336D01*
X013332Y010336D01*
X013332Y009958D01*
X013295Y009958D01*
X013295Y009922D01*
X012936Y009922D01*
X012936Y009700D01*
X012949Y009654D01*
X012972Y009613D01*
X013006Y009579D01*
X013047Y009556D01*
X013063Y009551D01*
X013041Y009529D01*
X013041Y009442D01*
X013007Y009442D01*
X012895Y009331D01*
X012882Y009317D01*
X012819Y009317D01*
X012819Y009464D01*
X012737Y009546D01*
X012228Y009546D01*
X012148Y009467D01*
X012068Y009546D01*
X012003Y009546D01*
X012003Y009769D01*
X011865Y009907D01*
X011868Y009911D01*
X011868Y010300D01*
X011708Y010460D01*
X012088Y010460D01*
X011928Y010300D01*
X011928Y009911D01*
X012203Y009635D01*
X012593Y009635D01*
X012868Y009911D01*
X012868Y010300D01*
X012708Y010460D01*
X014398Y010460D01*
X014398Y010190D01*
X014408Y010048D01*
X014438Y009908D01*
X014488Y009775D01*
X014532Y009695D01*
X014586Y009564D01*
X014772Y009378D01*
X014903Y009324D01*
X014982Y009280D01*
X015116Y009230D01*
X015256Y009200D01*
X015398Y009190D01*
X015668Y009190D01*
X015668Y002190D01*
X015398Y002190D01*
X015256Y002180D01*
X015116Y002149D01*
X014982Y002100D01*
X014903Y002056D01*
X014772Y002002D01*
X014647Y001877D01*
X014647Y002095D01*
X014565Y002177D01*
X014055Y002177D01*
X013973Y002095D01*
X013973Y002031D01*
X013994Y002116D02*
X013088Y002116D01*
X013088Y002275D02*
X014624Y002275D01*
X014637Y002275D02*
X014797Y002275D01*
X014797Y002273D02*
X014880Y002284D01*
X014986Y002313D01*
X015087Y002354D01*
X015182Y002409D01*
X015269Y002476D01*
X015346Y002553D01*
X015413Y002640D01*
X015467Y002735D01*
X015509Y002836D01*
X015537Y002942D01*
X015548Y003025D01*
X014797Y003025D01*
X014797Y003185D01*
X015548Y003185D01*
X015537Y003268D01*
X015509Y003374D01*
X015467Y003475D01*
X015413Y003570D01*
X015346Y003657D01*
X015269Y003734D01*
X015182Y003801D01*
X015087Y003855D01*
X014986Y003897D01*
X014880Y003926D01*
X014797Y003937D01*
X014797Y003185D01*
X014637Y003185D01*
X014637Y003025D01*
X014797Y003025D01*
X014797Y002273D01*
X014809Y002275D02*
X015668Y002275D01*
X015668Y002433D02*
X015213Y002433D01*
X015376Y002592D02*
X015668Y002592D01*
X015668Y002750D02*
X015474Y002750D01*
X015529Y002909D02*
X015668Y002909D01*
X015668Y003067D02*
X014797Y003067D01*
X014797Y002909D02*
X014637Y002909D01*
X014637Y003025D02*
X014637Y002273D01*
X014554Y002284D01*
X014448Y002313D01*
X014347Y002354D01*
X014252Y002409D01*
X014165Y002476D01*
X014088Y002553D01*
X014021Y002640D01*
X013966Y002735D01*
X013924Y002836D01*
X013896Y002942D01*
X013885Y003025D01*
X014637Y003025D01*
X014637Y003067D02*
X013544Y003067D01*
X013386Y002909D02*
X013905Y002909D01*
X013960Y002750D02*
X013227Y002750D01*
X013088Y002592D02*
X014058Y002592D01*
X014220Y002433D02*
X013088Y002433D01*
X013703Y003226D02*
X013890Y003226D01*
X013861Y003384D02*
X013929Y003384D01*
X014637Y003384D02*
X014797Y003384D01*
X014797Y003226D02*
X014637Y003226D01*
X014637Y003543D02*
X014797Y003543D01*
X014797Y003701D02*
X014637Y003701D01*
X014637Y003860D02*
X014797Y003860D01*
X015076Y003860D02*
X015668Y003860D01*
X015668Y004018D02*
X014495Y004018D01*
X014358Y003860D02*
X014337Y003860D01*
X014588Y004177D02*
X015668Y004177D01*
X015668Y004335D02*
X014588Y004335D01*
X014588Y004494D02*
X015668Y004494D01*
X015668Y004652D02*
X014588Y004652D01*
X014588Y004811D02*
X015668Y004811D01*
X015668Y004969D02*
X014588Y004969D01*
X014588Y005128D02*
X015668Y005128D01*
X015668Y005286D02*
X014588Y005286D01*
X014588Y005445D02*
X015668Y005445D01*
X015668Y005603D02*
X014588Y005603D01*
X014588Y005762D02*
X015668Y005762D01*
X015668Y005920D02*
X014588Y005920D01*
X014588Y006079D02*
X015668Y006079D01*
X015668Y006237D02*
X014588Y006237D01*
X014588Y006396D02*
X015668Y006396D01*
X015668Y006554D02*
X014588Y006554D01*
X014588Y006713D02*
X015668Y006713D01*
X015668Y006871D02*
X014588Y006871D01*
X014588Y007030D02*
X015668Y007030D01*
X015668Y007188D02*
X014588Y007188D01*
X014510Y007347D02*
X015668Y007347D01*
X015668Y007505D02*
X015041Y007505D01*
X015087Y007524D02*
X015182Y007579D01*
X015269Y007646D01*
X015346Y007723D01*
X015413Y007810D01*
X015467Y007905D01*
X015509Y008006D01*
X015537Y008112D01*
X015548Y008195D01*
X014797Y008195D01*
X014797Y007443D01*
X014880Y007454D01*
X014986Y007483D01*
X015087Y007524D01*
X015287Y007664D02*
X015668Y007664D01*
X015668Y007822D02*
X015420Y007822D01*
X015499Y007981D02*
X015668Y007981D01*
X015668Y008139D02*
X015541Y008139D01*
X015668Y008298D02*
X014797Y008298D01*
X014797Y008456D02*
X014637Y008456D01*
X014637Y008615D02*
X014797Y008615D01*
X014797Y008773D02*
X014637Y008773D01*
X014637Y008932D02*
X014797Y008932D01*
X014797Y009090D02*
X014637Y009090D01*
X014534Y009090D02*
X014152Y009090D01*
X014201Y008932D02*
X013993Y008932D01*
X014047Y008773D02*
X013835Y008773D01*
X013754Y008615D02*
X013954Y008615D01*
X013900Y008456D02*
X013901Y008456D01*
X013673Y008146D02*
X013708Y008111D01*
X013708Y007611D01*
X013713Y007606D01*
X013713Y007072D01*
X013693Y007072D01*
X013693Y007612D01*
X013660Y007612D01*
X013575Y007599D01*
X013588Y007611D01*
X013588Y007866D01*
X013673Y007951D01*
X013673Y008146D01*
X013673Y008139D02*
X013680Y008139D01*
X013673Y007981D02*
X013708Y007981D01*
X013708Y007822D02*
X013588Y007822D01*
X013588Y007664D02*
X013708Y007664D01*
X013693Y007505D02*
X013713Y007505D01*
X013713Y007347D02*
X013693Y007347D01*
X013693Y007188D02*
X013713Y007188D01*
X013693Y007072D02*
X013693Y007052D01*
X013153Y007052D01*
X013153Y007019D01*
X013167Y006933D01*
X013193Y006851D01*
X013233Y006774D01*
X013283Y006704D01*
X013345Y006642D01*
X013415Y006592D01*
X013442Y006578D01*
X013414Y006566D01*
X013271Y006423D01*
X013193Y006235D01*
X013193Y006032D01*
X013271Y005845D01*
X013414Y005701D01*
X013441Y005690D01*
X013414Y005679D01*
X013271Y005535D01*
X013193Y005348D01*
X013193Y005145D01*
X013271Y004957D01*
X013414Y004814D01*
X013491Y004782D01*
X013414Y004750D01*
X013364Y004700D01*
X013006Y004700D01*
X012618Y005087D01*
X012545Y005160D01*
X012495Y005181D01*
X012495Y005628D01*
X012413Y005710D01*
X012190Y005710D01*
X012190Y005853D01*
X012338Y005853D01*
X012370Y005886D01*
X012372Y005883D01*
X012405Y005849D01*
X012447Y005825D01*
X012492Y005813D01*
X012714Y005813D01*
X012714Y006172D01*
X012751Y006172D01*
X012751Y006208D01*
X013129Y006208D01*
X013129Y006411D01*
X013117Y006456D01*
X013093Y006497D01*
X013060Y006531D01*
X013019Y006555D01*
X013019Y006554D02*
X013403Y006554D01*
X013260Y006396D02*
X013129Y006396D01*
X013019Y006555D02*
X012973Y006567D01*
X012751Y006567D01*
X012751Y006208D01*
X012714Y006208D01*
X012714Y006567D01*
X012492Y006567D01*
X012447Y006555D01*
X012405Y006531D01*
X012372Y006497D01*
X012370Y006494D01*
X012338Y006527D01*
X011995Y006527D01*
X011842Y006680D01*
X012711Y006680D01*
X012793Y006762D01*
X012793Y007118D01*
X012721Y007190D01*
X012781Y007250D01*
X013186Y007250D01*
X013167Y007191D01*
X013153Y007105D01*
X013153Y007072D01*
X013693Y007072D01*
X013166Y007188D02*
X012722Y007188D01*
X012793Y007030D02*
X013153Y007030D01*
X013187Y006871D02*
X012793Y006871D01*
X012744Y006713D02*
X013277Y006713D01*
X012751Y006554D02*
X012714Y006554D01*
X012714Y006396D02*
X012751Y006396D01*
X012751Y006237D02*
X012714Y006237D01*
X012751Y006172D02*
X013129Y006172D01*
X013129Y005969D01*
X013117Y005924D01*
X013093Y005883D01*
X013060Y005849D01*
X013019Y005825D01*
X012973Y005813D01*
X012751Y005813D01*
X012751Y006172D01*
X012751Y006079D02*
X012714Y006079D01*
X012714Y005920D02*
X012751Y005920D01*
X013115Y005920D02*
X013239Y005920D01*
X013353Y005762D02*
X012190Y005762D01*
X012495Y005603D02*
X013339Y005603D01*
X013233Y005445D02*
X012495Y005445D01*
X012495Y005286D02*
X013193Y005286D01*
X013200Y005128D02*
X012578Y005128D01*
X012618Y005087D02*
X012618Y005087D01*
X012736Y004969D02*
X013266Y004969D01*
X013421Y004811D02*
X012895Y004811D01*
X012138Y004170D02*
X012138Y003734D01*
X011665Y003734D01*
X011608Y003677D01*
X011592Y003705D01*
X011558Y003738D01*
X011517Y003762D01*
X011471Y003774D01*
X011269Y003774D01*
X011269Y003396D01*
X011232Y003396D01*
X011232Y003359D01*
X010874Y003359D01*
X010874Y003137D01*
X010886Y003091D01*
X010910Y003050D01*
X010943Y003017D01*
X010946Y003015D01*
X010903Y002973D01*
X010903Y002880D01*
X010319Y002880D01*
X010231Y002792D01*
X010231Y004193D01*
X010276Y004238D01*
X010277Y004237D01*
X011519Y004237D01*
X011520Y004238D01*
X011588Y004170D01*
X012138Y004170D01*
X012138Y004018D02*
X010231Y004018D01*
X010231Y003860D02*
X012138Y003860D01*
X011633Y003701D02*
X011593Y003701D01*
X011269Y003701D02*
X011232Y003701D01*
X011232Y003774D02*
X011030Y003774D01*
X010984Y003762D01*
X010943Y003738D01*
X010910Y003705D01*
X010886Y003663D01*
X010874Y003618D01*
X010874Y003396D01*
X011232Y003396D01*
X011232Y003774D01*
X011232Y003543D02*
X011269Y003543D01*
X011232Y003384D02*
X010231Y003384D01*
X010231Y003226D02*
X010874Y003226D01*
X010900Y003067D02*
X010231Y003067D01*
X010231Y002909D02*
X010903Y002909D01*
X011002Y002433D02*
X010410Y002433D01*
X011478Y002433D02*
X011693Y002433D01*
X011594Y002592D02*
X011577Y002592D01*
X011577Y002750D02*
X011594Y002750D01*
X011577Y002909D02*
X011594Y002909D01*
X011601Y003067D02*
X011619Y003067D01*
X010874Y003543D02*
X010231Y003543D01*
X010231Y003701D02*
X010908Y003701D01*
X011581Y004177D02*
X010231Y004177D01*
X008233Y002909D02*
X007791Y002909D01*
X007888Y003067D02*
X008074Y003067D01*
X008391Y002750D02*
X007629Y002750D01*
X007228Y003543D02*
X007068Y003543D01*
X007068Y003701D02*
X007228Y003701D01*
X007228Y003860D02*
X007068Y003860D01*
X007068Y004018D02*
X007228Y004018D01*
X007412Y004177D02*
X007597Y004177D01*
X007529Y004652D02*
X007712Y004652D01*
X007811Y004811D02*
X007555Y004811D01*
X007523Y004969D02*
X007655Y004969D01*
X007590Y005128D02*
X007416Y005128D01*
X007402Y006237D02*
X007584Y006237D01*
X007649Y006396D02*
X007517Y006396D01*
X007555Y006554D02*
X007792Y006554D01*
X007671Y006713D02*
X007535Y006713D01*
X007578Y006871D02*
X007444Y006871D01*
X007543Y007030D02*
X006128Y007030D01*
X007068Y007188D02*
X007228Y007188D01*
X007360Y007188D02*
X007555Y007188D01*
X007228Y007347D02*
X007068Y007347D01*
X007068Y007505D02*
X007228Y007505D01*
X007228Y007664D02*
X007068Y007664D01*
X007068Y007822D02*
X007228Y007822D01*
X007228Y007981D02*
X008379Y007981D01*
X008379Y007822D02*
X008416Y007822D01*
X008416Y007664D02*
X008379Y007664D01*
X009568Y006871D02*
X009568Y006871D01*
X009568Y006713D02*
X009568Y006713D01*
X009582Y006554D02*
X009545Y006554D01*
X009545Y006396D02*
X009582Y006396D01*
X009582Y006237D02*
X009545Y006237D01*
X009545Y006079D02*
X009582Y006079D01*
X009849Y006554D02*
X010043Y006554D01*
X011967Y006554D02*
X012446Y006554D01*
X013129Y006237D02*
X013194Y006237D01*
X013193Y006079D02*
X013129Y006079D01*
X014351Y007505D02*
X014393Y007505D01*
X014637Y007505D02*
X014797Y007505D01*
X014797Y007664D02*
X014637Y007664D01*
X014637Y007822D02*
X014797Y007822D01*
X014797Y007981D02*
X014637Y007981D01*
X014637Y008139D02*
X014797Y008139D01*
X015533Y008456D02*
X015668Y008456D01*
X015668Y008615D02*
X015480Y008615D01*
X015387Y008773D02*
X015668Y008773D01*
X015668Y008932D02*
X015232Y008932D01*
X014899Y009090D02*
X015668Y009090D01*
X015067Y009249D02*
X014173Y009249D01*
X014173Y009407D02*
X014743Y009407D01*
X014585Y009566D02*
X014173Y009566D01*
X014319Y009724D02*
X014516Y009724D01*
X014448Y009883D02*
X014319Y009883D01*
X014319Y010041D02*
X014409Y010041D01*
X014398Y010200D02*
X014319Y010200D01*
X014398Y010358D02*
X012809Y010358D01*
X012972Y010267D02*
X012949Y010226D01*
X012936Y010180D01*
X012936Y009958D01*
X013295Y009958D01*
X013295Y010336D01*
X013093Y010336D01*
X013047Y010324D01*
X013006Y010301D01*
X012972Y010267D01*
X012942Y010200D02*
X012868Y010200D01*
X012868Y010041D02*
X012936Y010041D01*
X012936Y009883D02*
X012840Y009883D01*
X012936Y009724D02*
X012682Y009724D01*
X013029Y009566D02*
X012003Y009566D01*
X012003Y009724D02*
X012114Y009724D01*
X011956Y009883D02*
X011889Y009883D01*
X011868Y010041D02*
X011928Y010041D01*
X011928Y010200D02*
X011868Y010200D01*
X011809Y010358D02*
X011986Y010358D01*
X011088Y010460D02*
X010928Y010300D01*
X010928Y009911D01*
X011203Y009635D01*
X011593Y009635D01*
X011596Y009639D01*
X011623Y009611D01*
X011623Y009546D01*
X011558Y009546D01*
X011476Y009464D01*
X011476Y009192D01*
X011007Y009192D01*
X010895Y009081D01*
X010708Y008894D01*
X010708Y007889D01*
X010623Y007804D01*
X010623Y007734D01*
X010588Y007769D01*
X010588Y008269D01*
X010227Y008630D01*
X010131Y008630D01*
X010061Y008700D01*
X009157Y008700D01*
X009088Y008769D01*
X009088Y008804D01*
X009121Y008771D01*
X009631Y008771D01*
X009710Y008851D01*
X009790Y008771D01*
X010300Y008771D01*
X010382Y008853D01*
X010382Y008942D01*
X010409Y008915D01*
X010637Y008915D01*
X010798Y009076D01*
X010798Y009304D01*
X010637Y009465D01*
X010409Y009465D01*
X010364Y009420D01*
X010300Y009484D01*
X009790Y009484D01*
X009710Y009404D01*
X009631Y009484D01*
X009566Y009484D01*
X009566Y009635D01*
X009593Y009635D01*
X009868Y009911D01*
X009868Y010300D01*
X009708Y010460D01*
X010031Y010460D01*
X009888Y010317D01*
X009888Y010105D01*
X009888Y009894D01*
X010187Y009595D01*
X010398Y009595D01*
X010609Y009595D01*
X010908Y009894D01*
X010908Y010105D01*
X010398Y010105D01*
X010398Y009595D01*
X010398Y010105D01*
X010398Y010105D01*
X010398Y010105D01*
X009888Y010105D01*
X010398Y010105D01*
X010398Y010105D01*
X010908Y010105D01*
X010908Y010317D01*
X010764Y010460D01*
X011088Y010460D01*
X010986Y010358D02*
X010866Y010358D01*
X010908Y010200D02*
X010928Y010200D01*
X010928Y010041D02*
X010908Y010041D01*
X010897Y009883D02*
X010956Y009883D01*
X011114Y009724D02*
X010738Y009724D01*
X010398Y009724D02*
X010398Y009724D01*
X010398Y009883D02*
X010398Y009883D01*
X010057Y009724D02*
X009682Y009724D01*
X009566Y009566D02*
X011623Y009566D01*
X011476Y009407D02*
X010694Y009407D01*
X010798Y009249D02*
X011476Y009249D01*
X010905Y009090D02*
X010798Y009090D01*
X010746Y008932D02*
X010654Y008932D01*
X010708Y008773D02*
X010302Y008773D01*
X010242Y008615D02*
X010708Y008615D01*
X010708Y008456D02*
X010400Y008456D01*
X010559Y008298D02*
X010708Y008298D01*
X010708Y008139D02*
X010588Y008139D01*
X010588Y007981D02*
X010708Y007981D01*
X010641Y007822D02*
X010588Y007822D01*
X009788Y008773D02*
X009633Y008773D01*
X009118Y008773D02*
X009088Y008773D01*
X009707Y009407D02*
X009714Y009407D01*
X009840Y009883D02*
X009899Y009883D01*
X009888Y010041D02*
X009868Y010041D01*
X009868Y010200D02*
X009888Y010200D01*
X009930Y010358D02*
X009809Y010358D01*
X010398Y010041D02*
X010398Y010041D01*
X010382Y008932D02*
X010392Y008932D01*
X012819Y009407D02*
X012972Y009407D01*
X013295Y010041D02*
X013332Y010041D01*
X013332Y010200D02*
X013295Y010200D01*
X008041Y010358D02*
X007398Y010358D01*
X007398Y010200D02*
X007889Y010200D01*
X007731Y010041D02*
X007386Y010041D01*
X007348Y009883D02*
X007708Y009883D01*
X007708Y009724D02*
X007280Y009724D01*
X007211Y009566D02*
X007708Y009566D01*
X007708Y009407D02*
X007053Y009407D01*
X006729Y009249D02*
X007708Y009249D01*
X007708Y009090D02*
X006128Y009090D01*
X006128Y008932D02*
X007708Y008932D01*
X006996Y008773D02*
X006128Y008773D01*
X006128Y008615D02*
X006648Y008615D01*
X006494Y008456D02*
X006128Y008456D01*
X006128Y008298D02*
X006402Y008298D01*
X006351Y008139D02*
X006128Y008139D01*
X015301Y003701D02*
X015668Y003701D01*
X015668Y003543D02*
X015428Y003543D01*
X015505Y003384D02*
X015668Y003384D01*
X015668Y003226D02*
X015543Y003226D01*
X014797Y002750D02*
X014637Y002750D01*
X014637Y002592D02*
X014797Y002592D01*
X014797Y002433D02*
X014637Y002433D01*
X014626Y002116D02*
X015028Y002116D01*
X014728Y001958D02*
X014647Y001958D01*
D25*
X013523Y001252D03*
X010398Y003002D03*
X010898Y007190D03*
X010898Y007690D03*
X010460Y008565D03*
X011148Y008690D03*
X010523Y009190D03*
X012898Y007690D03*
X013398Y008065D03*
D26*
X012398Y004940D02*
X012000Y004940D01*
X012210Y004730D01*
X012398Y004940D02*
X012398Y002440D01*
X012210Y002252D01*
X012210Y001735D01*
X012210Y001440D01*
X011023Y001440D02*
X011023Y001735D01*
X011023Y001440D02*
X010335Y001440D01*
X009867Y000971D01*
X009367Y000971D01*
X009148Y001190D01*
X009148Y001940D01*
X009337Y002129D01*
X009381Y002129D01*
X008093Y003417D01*
X008093Y004312D01*
X009796Y004940D02*
X009971Y004764D01*
X009971Y002129D01*
X013581Y004440D02*
X013703Y004318D01*
X013581Y004440D02*
X012898Y004440D01*
X012398Y004940D01*
D27*
X012000Y004940D02*
X012000Y006127D01*
X012063Y006190D01*
X011313Y006940D01*
X010648Y006940D01*
X010148Y007440D01*
X010148Y007752D01*
X009960Y007940D01*
X009568Y007940D01*
X009568Y008440D02*
X010148Y008440D01*
X010398Y008190D01*
X010398Y007690D01*
X010898Y007190D01*
X010233Y007043D02*
X009898Y007377D01*
X009630Y007377D01*
X009210Y007377D01*
X008898Y007690D01*
X008898Y008440D01*
X008648Y008690D01*
X008398Y008690D01*
X008398Y008650D01*
X008398Y008690D02*
X008148Y008690D01*
X007898Y008940D01*
X007898Y009940D01*
X008148Y010190D01*
X008358Y010190D01*
X008398Y010150D01*
X008442Y010105D01*
X009398Y010105D01*
X009376Y010083D01*
X009376Y009127D01*
X008898Y009190D02*
X008648Y009440D01*
X008438Y009440D01*
X008398Y009480D01*
X008898Y009190D02*
X008898Y008690D01*
X009108Y008480D01*
X009528Y008480D01*
X009568Y008440D01*
X010045Y009127D02*
X010108Y009190D01*
X010523Y009190D01*
X010898Y008815D02*
X011085Y009002D01*
X011626Y009002D01*
X011813Y009190D01*
X011813Y009690D01*
X011398Y010105D01*
X011273Y009980D01*
X011273Y009877D01*
X012398Y009105D02*
X012483Y009190D01*
X012545Y009127D01*
X012960Y009127D01*
X013085Y009252D01*
X013376Y009252D01*
X013398Y009275D01*
X013983Y009190D02*
X013398Y008605D01*
X013398Y008690D01*
X013898Y008190D01*
X013898Y007690D01*
X014398Y007190D01*
X014398Y004190D01*
X012898Y002690D01*
X012898Y002003D01*
X012735Y001841D01*
X014310Y001841D01*
X011931Y002752D02*
X011931Y003367D01*
X011920Y003377D01*
X011240Y002752D02*
X011178Y002690D01*
X010398Y002690D01*
X009971Y002263D01*
X009971Y002129D01*
X009796Y004940D02*
X009796Y005753D01*
X010233Y006190D01*
X010233Y007043D01*
X009630Y007377D02*
X009568Y007440D01*
X010898Y007690D02*
X010898Y008815D01*
X011148Y008690D02*
X011968Y008690D01*
X012218Y008440D01*
X012233Y008455D01*
X012233Y008525D01*
X012398Y008690D01*
X012398Y009105D01*
X012898Y008105D02*
X013398Y008605D01*
X013398Y008065D02*
X013398Y007690D01*
X013148Y007440D01*
X012218Y007440D01*
X012218Y006940D02*
X011648Y006940D01*
X010898Y007690D01*
X012218Y007940D02*
X012648Y007940D01*
X012898Y007690D01*
X012898Y008105D01*
X013983Y009190D02*
X013983Y009940D01*
D28*
X011273Y005315D03*
X010898Y005315D03*
X010523Y005315D03*
X010523Y004940D03*
X010898Y004940D03*
X011273Y004940D03*
X011273Y004565D03*
X010898Y004565D03*
X010523Y004565D03*
M02*
