G75*
%MOIN*%
%OFA0B0*%
%FSLAX24Y24*%
%IPPOS*%
%LPD*%
%AMOC8*
5,1,8,0,0,1.08239X$1,22.5*
%
%ADD10C,0.0030*%
%ADD11C,0.0040*%
%ADD12C,0.0060*%
%ADD13C,0.0020*%
%ADD14C,0.0050*%
D10*
X008847Y001771D02*
X008944Y001868D01*
X008895Y001868D02*
X009041Y001868D01*
X009041Y001771D02*
X009041Y002061D01*
X008895Y002061D01*
X008847Y002013D01*
X008847Y001916D01*
X008895Y001868D01*
X009142Y001771D02*
X009142Y002061D01*
X009335Y002061D02*
X009335Y001771D01*
X009238Y001868D01*
X009142Y001771D01*
X009436Y001916D02*
X009485Y001868D01*
X009630Y001868D01*
X009630Y001771D02*
X009630Y002061D01*
X009485Y002061D01*
X009436Y002013D01*
X009436Y001916D01*
X010026Y002061D02*
X010219Y001771D01*
X010368Y002251D02*
X010465Y002251D01*
X010416Y002251D02*
X010416Y002541D01*
X010368Y002541D02*
X010465Y002541D01*
X009974Y002493D02*
X009974Y002444D01*
X009925Y002396D01*
X009828Y002396D01*
X009780Y002348D01*
X009780Y002299D01*
X009828Y002251D01*
X009925Y002251D01*
X009974Y002299D01*
X009679Y002251D02*
X009485Y002251D01*
X009384Y002251D02*
X009384Y002541D01*
X009191Y002251D01*
X009191Y002541D01*
X009090Y002493D02*
X009090Y002444D01*
X009041Y002396D01*
X008944Y002396D01*
X008896Y002348D01*
X008896Y002299D01*
X008944Y002251D01*
X009041Y002251D01*
X009090Y002299D01*
X008795Y002251D02*
X008601Y002251D01*
X008698Y002396D02*
X008795Y002396D01*
X008896Y002493D02*
X008944Y002541D01*
X009041Y002541D01*
X009090Y002493D01*
X008795Y002541D02*
X008795Y002251D01*
X008795Y002541D02*
X008601Y002541D01*
X009485Y002541D02*
X009679Y002541D01*
X009679Y002251D01*
X009679Y002396D02*
X009582Y002396D01*
X009780Y002493D02*
X009828Y002541D01*
X009925Y002541D01*
X009974Y002493D01*
X011824Y001091D02*
X011921Y001091D01*
X011872Y001091D02*
X011872Y000801D01*
X011824Y000801D02*
X011921Y000801D01*
X012022Y000898D02*
X012022Y001091D01*
X012022Y000898D02*
X012118Y000801D01*
X012215Y000898D01*
X012215Y001091D01*
X013051Y000946D02*
X013245Y000946D01*
X013148Y001043D02*
X013148Y000849D01*
X013346Y000849D02*
X013394Y000801D01*
X013539Y000801D01*
X013539Y001091D01*
X013394Y001091D01*
X013346Y001043D01*
X013346Y000849D01*
X014283Y000946D02*
X014476Y000946D01*
X014577Y000849D02*
X014626Y000801D01*
X014771Y000801D01*
X014771Y001091D01*
X014626Y001091D01*
X014577Y001043D01*
X014577Y000849D01*
X015533Y000849D02*
X015533Y001043D01*
X015581Y001091D01*
X015678Y001091D01*
X015726Y001043D01*
X015726Y000849D01*
X015678Y000801D01*
X015581Y000801D01*
X015533Y000849D01*
X015827Y000898D02*
X015827Y001091D01*
X015827Y000898D02*
X015924Y000801D01*
X016021Y000898D01*
X016021Y001091D01*
X016617Y001043D02*
X016617Y000849D01*
X016665Y000801D01*
X016810Y000801D01*
X016810Y001091D01*
X016665Y001091D01*
X016617Y001043D01*
X016911Y001091D02*
X016911Y000801D01*
X017105Y001091D01*
X017105Y000801D01*
X017206Y000849D02*
X017206Y000946D01*
X017303Y000946D01*
X017399Y000849D02*
X017351Y000801D01*
X017254Y000801D01*
X017206Y000849D01*
X017399Y000849D02*
X017399Y001043D01*
X017351Y001091D01*
X017254Y001091D01*
X017206Y001043D01*
X018753Y001091D02*
X018947Y001091D01*
X018947Y000801D01*
X018753Y000801D01*
X018850Y000946D02*
X018947Y000946D01*
X019048Y000849D02*
X019048Y001043D01*
X019097Y001091D01*
X019242Y001091D01*
X019242Y000801D01*
X019097Y000801D01*
X019048Y000849D01*
X019343Y000849D02*
X019391Y000801D01*
X019488Y000801D01*
X019536Y000849D01*
X019536Y001043D01*
X019488Y001091D01*
X019391Y001091D01*
X019343Y001043D01*
X019343Y000849D01*
X019637Y000801D02*
X019637Y001091D01*
X019734Y000995D01*
X019831Y001091D01*
X019831Y000801D01*
X009597Y007768D02*
X009427Y007598D01*
X009180Y007800D01*
X009080Y007749D01*
X008939Y008090D01*
X008992Y008118D01*
X009039Y008157D01*
X009077Y008203D01*
X009105Y008256D01*
X009123Y008314D01*
X009129Y008374D01*
X009122Y008437D01*
X009103Y008497D01*
X009072Y008552D01*
X009030Y008599D01*
X008980Y008637D01*
X008923Y008664D01*
X008861Y008679D01*
X008798Y008681D01*
X008736Y008670D01*
X008677Y008646D01*
X008625Y008611D01*
X008581Y008566D01*
X008547Y008513D01*
X008524Y008454D01*
X008514Y008391D01*
X008517Y008328D01*
X008533Y008267D01*
X008561Y008210D01*
X008600Y008161D01*
X008648Y008120D01*
X008703Y008090D01*
X008562Y007749D01*
X008463Y007800D01*
X008215Y007598D01*
X008046Y007768D01*
X008423Y007768D01*
X008457Y007796D02*
X008068Y007796D01*
X008046Y007768D02*
X008247Y008015D01*
X008196Y008115D01*
X008162Y008222D01*
X007844Y008254D01*
X007844Y008494D01*
X008162Y008526D01*
X008196Y008633D01*
X008247Y008733D01*
X008046Y008980D01*
X008215Y009150D01*
X008463Y008948D01*
X008562Y008999D01*
X008669Y009033D01*
X008701Y009351D01*
X008941Y009351D01*
X008973Y009033D01*
X009080Y008999D01*
X009180Y008948D01*
X009427Y009150D01*
X009597Y008980D01*
X009395Y008733D01*
X009446Y008633D01*
X009480Y008526D01*
X009798Y008494D01*
X009798Y008254D01*
X009480Y008222D01*
X009446Y008115D01*
X009395Y008015D01*
X009597Y007768D01*
X009596Y007768D02*
X009220Y007768D01*
X009185Y007796D02*
X009574Y007796D01*
X009551Y007825D02*
X009049Y007825D01*
X009037Y007853D02*
X009527Y007853D01*
X009504Y007882D02*
X009025Y007882D01*
X009013Y007910D02*
X009481Y007910D01*
X009458Y007939D02*
X009001Y007939D01*
X008990Y007967D02*
X009434Y007967D01*
X009411Y007996D02*
X008978Y007996D01*
X008966Y008024D02*
X009399Y008024D01*
X009414Y008053D02*
X008954Y008053D01*
X008942Y008081D02*
X009429Y008081D01*
X009443Y008110D02*
X008976Y008110D01*
X009016Y008138D02*
X009454Y008138D01*
X009463Y008167D02*
X009047Y008167D01*
X009070Y008195D02*
X009472Y008195D01*
X009498Y008224D02*
X009088Y008224D01*
X009103Y008252D02*
X009778Y008252D01*
X009798Y008281D02*
X009113Y008281D01*
X009121Y008309D02*
X009798Y008309D01*
X009798Y008338D02*
X009125Y008338D01*
X009128Y008366D02*
X009798Y008366D01*
X009798Y008395D02*
X009127Y008395D01*
X009124Y008423D02*
X009798Y008423D01*
X009798Y008452D02*
X009118Y008452D01*
X009108Y008480D02*
X009798Y008480D01*
X009654Y008509D02*
X009097Y008509D01*
X009080Y008537D02*
X009477Y008537D01*
X009468Y008566D02*
X009060Y008566D01*
X009035Y008594D02*
X009459Y008594D01*
X009450Y008623D02*
X009000Y008623D01*
X008951Y008651D02*
X009437Y008651D01*
X009422Y008680D02*
X008840Y008680D01*
X008792Y008680D02*
X008220Y008680D01*
X008235Y008708D02*
X009408Y008708D01*
X009398Y008737D02*
X008244Y008737D01*
X008221Y008765D02*
X009421Y008765D01*
X009445Y008794D02*
X008198Y008794D01*
X008174Y008822D02*
X009468Y008822D01*
X009491Y008851D02*
X008151Y008851D01*
X008128Y008879D02*
X009514Y008879D01*
X009538Y008908D02*
X008105Y008908D01*
X008081Y008936D02*
X009561Y008936D01*
X009584Y008965D02*
X009200Y008965D01*
X009235Y008993D02*
X009584Y008993D01*
X009555Y009022D02*
X009270Y009022D01*
X009305Y009050D02*
X009527Y009050D01*
X009498Y009079D02*
X009340Y009079D01*
X009375Y009107D02*
X009470Y009107D01*
X009441Y009136D02*
X009410Y009136D01*
X009147Y008965D02*
X008495Y008965D01*
X008442Y008965D02*
X008058Y008965D01*
X008059Y008993D02*
X008407Y008993D01*
X008372Y009022D02*
X008087Y009022D01*
X008116Y009050D02*
X008337Y009050D01*
X008302Y009079D02*
X008144Y009079D01*
X008173Y009107D02*
X008267Y009107D01*
X008232Y009136D02*
X008201Y009136D01*
X008550Y008993D02*
X009092Y008993D01*
X009010Y009022D02*
X008632Y009022D01*
X008671Y009050D02*
X008972Y009050D01*
X008969Y009079D02*
X008673Y009079D01*
X008676Y009107D02*
X008966Y009107D01*
X008963Y009136D02*
X008679Y009136D01*
X008682Y009164D02*
X008960Y009164D01*
X008957Y009193D02*
X008685Y009193D01*
X008688Y009221D02*
X008954Y009221D01*
X008951Y009250D02*
X008691Y009250D01*
X008694Y009278D02*
X008948Y009278D01*
X008946Y009307D02*
X008697Y009307D01*
X008700Y009335D02*
X008943Y009335D01*
X008690Y008651D02*
X008205Y008651D01*
X008193Y008623D02*
X008642Y008623D01*
X008608Y008594D02*
X008183Y008594D01*
X008174Y008566D02*
X008580Y008566D01*
X008562Y008537D02*
X008165Y008537D01*
X007988Y008509D02*
X008545Y008509D01*
X008534Y008480D02*
X007844Y008480D01*
X007844Y008452D02*
X008524Y008452D01*
X008519Y008423D02*
X007844Y008423D01*
X007844Y008395D02*
X008515Y008395D01*
X008515Y008366D02*
X007844Y008366D01*
X007844Y008338D02*
X008517Y008338D01*
X008522Y008309D02*
X007844Y008309D01*
X007844Y008281D02*
X008529Y008281D01*
X008540Y008252D02*
X007864Y008252D01*
X008144Y008224D02*
X008554Y008224D01*
X008573Y008195D02*
X008170Y008195D01*
X008179Y008167D02*
X008595Y008167D01*
X008626Y008138D02*
X008189Y008138D01*
X008199Y008110D02*
X008667Y008110D01*
X008700Y008081D02*
X008213Y008081D01*
X008228Y008053D02*
X008688Y008053D01*
X008676Y008024D02*
X008243Y008024D01*
X008231Y007996D02*
X008664Y007996D01*
X008653Y007967D02*
X008208Y007967D01*
X008185Y007939D02*
X008641Y007939D01*
X008629Y007910D02*
X008161Y007910D01*
X008138Y007882D02*
X008617Y007882D01*
X008605Y007853D02*
X008115Y007853D01*
X008092Y007825D02*
X008594Y007825D01*
X008582Y007796D02*
X008470Y007796D01*
X008526Y007768D02*
X008570Y007768D01*
X008388Y007739D02*
X008074Y007739D01*
X008103Y007711D02*
X008353Y007711D01*
X008318Y007682D02*
X008131Y007682D01*
X008160Y007654D02*
X008283Y007654D01*
X008248Y007625D02*
X008188Y007625D01*
X009061Y007796D02*
X009172Y007796D01*
X009116Y007768D02*
X009072Y007768D01*
X009255Y007739D02*
X009568Y007739D01*
X009539Y007711D02*
X009290Y007711D01*
X009325Y007682D02*
X009511Y007682D01*
X009482Y007654D02*
X009359Y007654D01*
X009394Y007625D02*
X009454Y007625D01*
D11*
X011543Y006272D02*
X011890Y006272D01*
X012058Y006272D02*
X012058Y005839D01*
X012145Y005752D01*
X012319Y005752D01*
X012405Y005839D01*
X012405Y006272D01*
X012574Y006186D02*
X012661Y006272D01*
X012834Y006272D01*
X012921Y006186D01*
X012921Y005839D01*
X012834Y005752D01*
X012661Y005752D01*
X012574Y005839D01*
X012574Y006186D01*
X011716Y006272D02*
X011716Y005752D01*
X016020Y005746D02*
X016481Y005746D01*
X016481Y005669D02*
X016481Y005823D01*
X016250Y005976D02*
X016250Y006283D01*
X016174Y006437D02*
X016020Y006590D01*
X016174Y006744D01*
X016481Y006744D01*
X016404Y006897D02*
X016097Y006897D01*
X016020Y006974D01*
X016020Y007127D01*
X016097Y007204D01*
X016404Y007204D01*
X016481Y007127D01*
X016481Y006974D01*
X016404Y006897D01*
X016770Y007012D02*
X017000Y007012D01*
X017077Y006935D01*
X017077Y006705D01*
X016770Y006705D01*
X016770Y006552D02*
X017077Y006552D01*
X016770Y006552D02*
X016770Y006322D01*
X016847Y006245D01*
X017077Y006245D01*
X017000Y006091D02*
X016770Y006091D01*
X017000Y006091D02*
X017077Y006015D01*
X017077Y005861D01*
X017000Y005785D01*
X016770Y005785D02*
X017231Y005785D01*
X017154Y005631D02*
X017231Y005554D01*
X017231Y005401D01*
X017154Y005324D01*
X017077Y005324D01*
X017000Y005401D01*
X017000Y005554D01*
X016924Y005631D01*
X016847Y005631D01*
X016770Y005554D01*
X016770Y005401D01*
X016847Y005324D01*
X016481Y005209D02*
X016174Y005209D01*
X016020Y005362D01*
X016174Y005516D01*
X016481Y005516D01*
X016020Y005669D02*
X016020Y005823D01*
X016174Y006437D02*
X016481Y006437D01*
X016847Y007242D02*
X016770Y007319D01*
X016847Y007242D02*
X017154Y007242D01*
X017077Y007166D02*
X017077Y007319D01*
X017077Y007473D02*
X017000Y007473D01*
X017000Y007549D01*
X017077Y007549D01*
X017077Y007473D01*
X016847Y007473D02*
X016770Y007473D01*
X016770Y007549D01*
X016847Y007549D01*
X016847Y007473D01*
X016481Y007818D02*
X016481Y007971D01*
X016481Y007895D02*
X016020Y007895D01*
X016020Y007971D02*
X016020Y007818D01*
X016174Y007664D02*
X016174Y007358D01*
X016327Y007358D02*
X016327Y007664D01*
X016481Y008125D02*
X016020Y008125D01*
X016020Y008278D01*
X016020Y008432D02*
X016327Y008432D01*
X016481Y008585D01*
X016327Y008739D01*
X016020Y008739D01*
X016020Y008892D02*
X016020Y009046D01*
X016481Y009046D01*
X016481Y008892D01*
X016250Y008739D02*
X016250Y008432D01*
X016481Y008278D02*
X016481Y008125D01*
X016770Y008163D02*
X016770Y008470D01*
X016770Y008317D02*
X017231Y008317D01*
X017077Y008163D01*
X017000Y008624D02*
X017154Y008624D01*
X017231Y008700D01*
X017231Y008854D01*
X017154Y008931D01*
X017000Y008931D01*
X016924Y008854D01*
X016770Y008854D01*
X016770Y008931D01*
X016770Y008700D02*
X016924Y008700D01*
X017000Y008624D01*
X016770Y008624D02*
X016770Y008700D01*
X018607Y009223D02*
X018694Y009136D01*
X018954Y009136D01*
X019123Y009136D02*
X019123Y009050D01*
X019209Y008963D01*
X019383Y008963D01*
X019470Y009050D01*
X019638Y009050D02*
X019725Y008963D01*
X019899Y008963D01*
X019985Y009050D01*
X019985Y009397D01*
X019899Y009483D01*
X019725Y009483D01*
X019638Y009397D01*
X019470Y009397D02*
X019470Y009310D01*
X019383Y009223D01*
X019209Y009223D01*
X019123Y009136D01*
X018954Y008963D02*
X018954Y009483D01*
X018694Y009483D01*
X018607Y009397D01*
X018607Y009223D01*
X019123Y009397D02*
X019209Y009483D01*
X019383Y009483D01*
X019470Y009397D01*
X020156Y009483D02*
X020329Y009483D01*
X020242Y009483D02*
X020242Y008963D01*
X020156Y008963D02*
X020329Y008963D01*
D12*
X007272Y005574D02*
X006631Y005574D01*
X007272Y005147D01*
X006631Y005147D01*
X006631Y004931D02*
X006631Y004717D01*
X006631Y004824D02*
X007272Y004824D01*
X007272Y004717D02*
X007272Y004931D01*
D13*
X007960Y001182D02*
X008033Y001182D01*
X008107Y001182D02*
X008181Y001182D01*
X008255Y001182D02*
X008292Y001219D01*
X008365Y001219D01*
X008402Y001182D01*
X008402Y001109D01*
X008365Y001072D01*
X008292Y001072D01*
X008255Y001109D01*
X008255Y001182D01*
X008144Y001256D02*
X008144Y001072D01*
X007997Y001072D02*
X007997Y001256D01*
X007960Y001292D01*
X007923Y001432D02*
X007960Y001469D01*
X007960Y001616D01*
X007997Y001579D02*
X007923Y001579D01*
X008071Y001579D02*
X008218Y001432D01*
X008292Y001506D02*
X008439Y001506D01*
X008439Y001542D02*
X008439Y001469D01*
X008402Y001432D01*
X008329Y001432D01*
X008292Y001506D02*
X008292Y001542D01*
X008329Y001579D01*
X008402Y001579D01*
X008439Y001542D01*
X008218Y001579D02*
X008071Y001432D01*
X008107Y001292D02*
X008144Y001256D01*
X010647Y001432D02*
X010684Y001469D01*
X010684Y001616D01*
X010720Y001579D02*
X010647Y001579D01*
X010795Y001542D02*
X010795Y001432D01*
X010795Y001542D02*
X010831Y001579D01*
X010941Y001579D01*
X010941Y001432D01*
X011015Y001432D02*
X011089Y001432D01*
X011052Y001432D02*
X011052Y001579D01*
X011089Y001579D01*
X011052Y001652D02*
X011052Y001689D01*
X011015Y001219D02*
X010942Y001219D01*
X010905Y001182D01*
X010905Y001109D01*
X010942Y001072D01*
X011015Y001072D01*
X011052Y001109D01*
X011052Y001182D01*
X011015Y001219D01*
X010831Y001219D02*
X010831Y001072D01*
X010684Y001072D02*
X010684Y001182D01*
X010721Y001219D01*
X010831Y001219D01*
X013184Y006336D02*
X013148Y006373D01*
X013148Y006519D01*
X013184Y006556D01*
X013258Y006556D01*
X013295Y006519D01*
X013295Y006483D01*
X013258Y006446D01*
X013148Y006446D01*
X013184Y006336D02*
X013258Y006336D01*
X013295Y006373D01*
X013368Y006373D02*
X013368Y006336D01*
X013405Y006336D01*
X013405Y006373D01*
X013368Y006373D01*
X013479Y006373D02*
X013479Y006519D01*
X013626Y006373D01*
X013589Y006336D01*
X013516Y006336D01*
X013479Y006373D01*
X013479Y006519D02*
X013516Y006556D01*
X013589Y006556D01*
X013626Y006519D01*
X013626Y006373D01*
X013921Y006483D02*
X013995Y006336D01*
X014068Y006483D01*
X013957Y006563D02*
X013920Y006563D01*
X013883Y006599D01*
X013883Y006783D01*
X013899Y006926D02*
X013973Y006926D01*
X014009Y006963D01*
X014084Y006963D02*
X014084Y007147D01*
X014009Y007110D02*
X014009Y007073D01*
X013973Y007037D01*
X013899Y007037D01*
X013863Y007000D01*
X013863Y006963D01*
X013899Y006926D01*
X013788Y006926D02*
X013678Y006926D01*
X013642Y006963D01*
X013642Y007000D01*
X013678Y007037D01*
X013788Y007037D01*
X013863Y007110D02*
X013899Y007147D01*
X013973Y007147D01*
X014009Y007110D01*
X014084Y006963D02*
X014120Y006926D01*
X014194Y006926D01*
X014230Y006963D01*
X014230Y007147D01*
X013788Y007147D02*
X013788Y006926D01*
X013678Y007037D02*
X013642Y007073D01*
X013642Y007110D01*
X013678Y007147D01*
X013788Y007147D01*
X013588Y006783D02*
X013478Y006783D01*
X013441Y006746D01*
X013441Y006636D01*
X013367Y006673D02*
X013367Y006783D01*
X013367Y006673D02*
X013330Y006636D01*
X013220Y006636D01*
X013220Y006783D01*
X013146Y006783D02*
X013036Y006783D01*
X012999Y006746D01*
X012999Y006673D01*
X013036Y006636D01*
X013146Y006636D01*
X013146Y006563D02*
X013146Y006783D01*
X013089Y006926D02*
X013125Y006963D01*
X013125Y007037D01*
X013089Y007073D01*
X013015Y007073D01*
X012979Y007037D01*
X012979Y006963D01*
X013015Y006926D01*
X013089Y006926D01*
X013200Y007037D02*
X013236Y007000D01*
X013346Y007000D01*
X013346Y006926D02*
X013346Y007147D01*
X013236Y007147D01*
X013200Y007110D01*
X013200Y007037D01*
X012904Y007073D02*
X012904Y006963D01*
X012868Y006926D01*
X012831Y006963D01*
X012794Y006926D01*
X012758Y006963D01*
X012758Y007073D01*
X012683Y007037D02*
X012647Y007073D01*
X012573Y007073D01*
X012537Y007037D01*
X012537Y007000D01*
X012683Y007000D01*
X012683Y006963D02*
X012683Y007037D01*
X012683Y006963D02*
X012647Y006926D01*
X012573Y006926D01*
X012462Y006926D02*
X012462Y007073D01*
X012389Y007073D02*
X012352Y007073D01*
X012389Y007073D02*
X012462Y007000D01*
X012446Y006783D02*
X012373Y006783D01*
X012336Y006746D01*
X012336Y006636D01*
X012446Y006636D01*
X012483Y006673D01*
X012446Y006709D01*
X012336Y006709D01*
X012262Y006709D02*
X012189Y006783D01*
X012152Y006783D01*
X012078Y006783D02*
X012005Y006783D01*
X012041Y006820D02*
X012041Y006673D01*
X012005Y006636D01*
X011931Y006673D02*
X011894Y006636D01*
X011857Y006673D01*
X011821Y006636D01*
X011784Y006673D01*
X011784Y006783D01*
X011710Y006746D02*
X011710Y006673D01*
X011673Y006636D01*
X011600Y006636D01*
X011563Y006673D01*
X011563Y006746D01*
X011600Y006783D01*
X011673Y006783D01*
X011710Y006746D01*
X011726Y006926D02*
X011800Y006926D01*
X011836Y006963D01*
X011836Y007037D01*
X011800Y007073D01*
X011726Y007073D01*
X011690Y007037D01*
X011690Y007000D01*
X011836Y007000D01*
X011911Y006926D02*
X011911Y007147D01*
X011984Y007073D01*
X012057Y007147D01*
X012057Y006926D01*
X011931Y006783D02*
X011931Y006673D01*
X012262Y006636D02*
X012262Y006783D01*
X012557Y006746D02*
X012704Y006746D01*
X012778Y006746D02*
X012815Y006783D01*
X012888Y006783D01*
X012925Y006746D01*
X012925Y006673D01*
X012888Y006636D01*
X012815Y006636D01*
X012778Y006673D01*
X012778Y006746D01*
X013588Y006783D02*
X013588Y006636D01*
X013883Y006636D02*
X013993Y006636D01*
X014030Y006673D01*
X014030Y006783D01*
X014104Y006746D02*
X014141Y006783D01*
X014251Y006783D01*
X014251Y006856D02*
X014251Y006636D01*
X014141Y006636D01*
X014104Y006673D01*
X014104Y006746D01*
X011615Y007073D02*
X011542Y007073D01*
X011579Y007110D02*
X011579Y006963D01*
X011542Y006926D01*
X011468Y006963D02*
X011468Y007037D01*
X011431Y007073D01*
X011358Y007073D01*
X011321Y007037D01*
X011321Y007000D01*
X011468Y007000D01*
X011468Y006963D02*
X011431Y006926D01*
X011358Y006926D01*
X011305Y006856D02*
X011305Y006636D01*
X011305Y006709D02*
X011194Y006783D01*
X011120Y006746D02*
X011084Y006783D01*
X010974Y006783D01*
X011010Y006709D02*
X011084Y006709D01*
X011120Y006746D01*
X011120Y006636D02*
X011010Y006636D01*
X010974Y006673D01*
X011010Y006709D01*
X010899Y006673D02*
X010863Y006673D01*
X010863Y006636D01*
X010899Y006636D01*
X010899Y006673D01*
X010789Y006673D02*
X010789Y006746D01*
X010752Y006783D01*
X010642Y006783D01*
X010642Y006856D02*
X010642Y006636D01*
X010752Y006636D01*
X010789Y006673D01*
X010568Y006673D02*
X010568Y006746D01*
X010531Y006783D01*
X010458Y006783D01*
X010421Y006746D01*
X010421Y006709D01*
X010568Y006709D01*
X010568Y006673D02*
X010531Y006636D01*
X010458Y006636D01*
X011194Y006636D02*
X011305Y006709D01*
X011379Y006783D02*
X011415Y006783D01*
X011489Y006709D01*
X011489Y006636D02*
X011489Y006783D01*
X011247Y006926D02*
X011247Y007073D01*
X011247Y007000D02*
X011174Y007073D01*
X011137Y007073D01*
X018313Y006766D02*
X018313Y006620D01*
X018350Y006583D01*
X018423Y006583D01*
X018460Y006620D01*
X018460Y006766D01*
X018423Y006803D01*
X018350Y006803D01*
X018313Y006766D01*
X018534Y006766D02*
X018571Y006803D01*
X018644Y006803D01*
X018681Y006766D01*
X018681Y006730D01*
X018644Y006693D01*
X018571Y006693D01*
X018534Y006656D01*
X018534Y006620D01*
X018571Y006583D01*
X018644Y006583D01*
X018681Y006620D01*
X018755Y006583D02*
X018828Y006583D01*
X018791Y006583D02*
X018791Y006803D01*
X018755Y006803D02*
X018828Y006803D01*
X018902Y006803D02*
X018902Y006583D01*
X019049Y006583D02*
X019049Y006803D01*
X018976Y006730D01*
X018902Y006803D01*
X019886Y006766D02*
X019923Y006803D01*
X019997Y006803D01*
X020033Y006766D01*
X020033Y006620D01*
X019997Y006583D01*
X019923Y006583D01*
X019886Y006620D01*
X020107Y006620D02*
X020144Y006583D01*
X020218Y006583D01*
X020254Y006620D01*
X020254Y006766D01*
X020218Y006803D01*
X020144Y006803D01*
X020107Y006766D01*
X020328Y006803D02*
X020328Y006656D01*
X020402Y006583D01*
X020475Y006656D01*
X020475Y006803D01*
X020402Y007583D02*
X020402Y007803D01*
X020476Y007730D01*
X020549Y007803D01*
X020549Y007583D01*
X020328Y007620D02*
X020328Y007766D01*
X020291Y007803D01*
X020218Y007803D01*
X020181Y007766D01*
X020181Y007620D01*
X020218Y007583D01*
X020291Y007583D01*
X020328Y007620D01*
X020107Y007620D02*
X020070Y007583D01*
X019997Y007583D01*
X019960Y007620D01*
X019960Y007656D01*
X019997Y007693D01*
X020070Y007693D01*
X020107Y007730D01*
X020107Y007766D01*
X020070Y007803D01*
X019997Y007803D01*
X019960Y007766D01*
X019886Y007803D02*
X019813Y007803D01*
X019849Y007803D02*
X019849Y007583D01*
X019813Y007583D02*
X019886Y007583D01*
X018975Y007620D02*
X018939Y007583D01*
X018865Y007583D01*
X018828Y007620D01*
X018828Y007656D01*
X018865Y007693D01*
X018939Y007693D01*
X018975Y007730D01*
X018975Y007766D01*
X018939Y007803D01*
X018865Y007803D01*
X018828Y007766D01*
X018754Y007766D02*
X018754Y007620D01*
X018718Y007583D01*
X018644Y007583D01*
X018607Y007620D01*
X018533Y007656D02*
X018386Y007803D01*
X018533Y007803D02*
X018533Y007583D01*
X018497Y007693D02*
X018386Y007583D01*
X018607Y007766D02*
X018644Y007803D01*
X018718Y007803D01*
X018754Y007766D01*
X018718Y008583D02*
X018754Y008620D01*
X018718Y008583D02*
X018644Y008583D01*
X018607Y008620D01*
X018607Y008656D01*
X018644Y008693D01*
X018718Y008693D01*
X018754Y008730D01*
X018754Y008766D01*
X018718Y008803D01*
X018644Y008803D01*
X018607Y008766D01*
X018533Y008803D02*
X018386Y008803D01*
X018460Y008803D02*
X018460Y008583D01*
X018828Y008583D02*
X018902Y008656D01*
X018865Y008656D02*
X018975Y008656D01*
X018975Y008583D02*
X018975Y008803D01*
X018865Y008803D01*
X018828Y008766D01*
X018828Y008693D01*
X018865Y008656D01*
X019886Y008620D02*
X019886Y008766D01*
X019923Y008803D01*
X020033Y008803D01*
X020033Y008583D01*
X019923Y008583D01*
X019886Y008620D01*
X020107Y008583D02*
X020107Y008803D01*
X020254Y008803D02*
X020107Y008583D01*
X020254Y008583D02*
X020254Y008803D01*
X020328Y008766D02*
X020365Y008803D01*
X020439Y008803D01*
X020475Y008766D01*
X020475Y008620D01*
X020439Y008583D01*
X020365Y008583D01*
X020328Y008620D01*
X020328Y008693D01*
X020402Y008693D01*
D14*
X020904Y009193D02*
X020902Y009237D01*
X020896Y009280D01*
X020887Y009322D01*
X020874Y009364D01*
X020857Y009404D01*
X020837Y009443D01*
X020814Y009480D01*
X020787Y009514D01*
X020758Y009547D01*
X020725Y009576D01*
X020691Y009603D01*
X020654Y009626D01*
X020615Y009646D01*
X020575Y009663D01*
X020533Y009676D01*
X020491Y009685D01*
X020448Y009691D01*
X020404Y009693D01*
X018404Y009693D01*
X018360Y009691D01*
X018317Y009685D01*
X018275Y009676D01*
X018233Y009663D01*
X018193Y009646D01*
X018154Y009626D01*
X018117Y009603D01*
X018083Y009576D01*
X018050Y009547D01*
X018021Y009514D01*
X017994Y009480D01*
X017971Y009443D01*
X017951Y009404D01*
X017934Y009364D01*
X017921Y009322D01*
X017912Y009280D01*
X017906Y009237D01*
X017904Y009193D01*
X017904Y006193D01*
X017906Y006149D01*
X017912Y006106D01*
X017921Y006064D01*
X017934Y006022D01*
X017951Y005982D01*
X017971Y005943D01*
X017994Y005906D01*
X018021Y005872D01*
X018050Y005839D01*
X018083Y005810D01*
X018117Y005783D01*
X018154Y005760D01*
X018193Y005740D01*
X018233Y005723D01*
X018275Y005710D01*
X018317Y005701D01*
X018360Y005695D01*
X018404Y005693D01*
X020404Y005693D01*
X020448Y005695D01*
X020491Y005701D01*
X020533Y005710D01*
X020575Y005723D01*
X020615Y005740D01*
X020654Y005760D01*
X020691Y005783D01*
X020725Y005810D01*
X020758Y005839D01*
X020787Y005872D01*
X020814Y005906D01*
X020837Y005943D01*
X020857Y005982D01*
X020874Y006022D01*
X020887Y006064D01*
X020896Y006106D01*
X020902Y006149D01*
X020904Y006193D01*
X020904Y009193D01*
X018954Y008513D02*
X018344Y008513D01*
X014939Y007417D02*
X014908Y007419D01*
X014877Y007425D01*
X014847Y007434D01*
X014818Y007447D01*
X014791Y007463D01*
X014767Y007482D01*
X014744Y007505D01*
X014725Y007529D01*
X014709Y007556D01*
X014696Y007585D01*
X014687Y007615D01*
X014681Y007646D01*
X014679Y007677D01*
X014679Y008752D01*
X014674Y008810D01*
X014657Y008865D01*
X014630Y008916D01*
X014593Y008961D01*
X014548Y008997D01*
X014497Y009025D01*
X014442Y009042D01*
X014384Y009047D01*
X014171Y009047D01*
X014112Y009041D01*
X014054Y009024D01*
X014001Y008995D01*
X013954Y008957D01*
X013916Y008911D01*
X013888Y008858D01*
X013870Y008800D01*
X013864Y008740D01*
X013864Y007654D01*
X013859Y007603D01*
X013845Y007554D01*
X013821Y007509D01*
X013788Y007470D01*
X013749Y007437D01*
X013704Y007413D01*
X013655Y007399D01*
X013605Y007394D01*
X013605Y008858D01*
X013612Y008938D01*
X013632Y009016D01*
X013666Y009089D01*
X013712Y009154D01*
X013769Y009211D01*
X013835Y009257D01*
X013908Y009291D01*
X013985Y009312D01*
X014065Y009319D01*
X014490Y009319D01*
X014337Y009390D01*
X014207Y009425D01*
X014065Y009449D01*
X013900Y009449D01*
X013723Y009425D01*
X013510Y009354D01*
X013404Y009390D01*
X013274Y009425D01*
X013132Y009437D01*
X013002Y009449D01*
X012872Y009437D01*
X012742Y009413D01*
X012589Y009366D01*
X012483Y009319D01*
X012353Y009248D01*
X012282Y009295D01*
X012164Y009354D01*
X012022Y009413D01*
X011845Y009449D01*
X011691Y009461D01*
X011514Y009461D01*
X011278Y009402D01*
X011042Y009295D01*
X010829Y009130D01*
X010734Y009035D01*
X010605Y008965D01*
X010486Y008870D01*
X010392Y008764D01*
X010309Y008657D01*
X010262Y008539D01*
X010227Y008374D01*
X010309Y008504D01*
X010368Y008598D01*
X010463Y008681D01*
X010581Y008776D01*
X010782Y008858D01*
X010853Y009059D01*
X011006Y009213D01*
X011124Y009283D01*
X011337Y009366D01*
X011549Y009366D01*
X011679Y009331D01*
X011809Y009272D01*
X011916Y009201D01*
X012010Y009094D01*
X012057Y009024D01*
X012093Y008941D01*
X012140Y008835D01*
X012164Y008705D01*
X012175Y008043D01*
X012187Y007949D01*
X012234Y007854D01*
X012341Y007783D01*
X012423Y007713D01*
X012506Y007689D01*
X012648Y007689D01*
X012766Y007736D01*
X012860Y007807D01*
X012931Y007902D01*
X012979Y008031D01*
X012990Y008598D01*
X012990Y008657D01*
X013026Y008740D01*
X013085Y008787D01*
X013132Y008823D01*
X013274Y008823D01*
X013274Y007961D01*
X013262Y007843D01*
X013168Y007677D01*
X013109Y007583D01*
X013002Y007465D01*
X012837Y007394D01*
X012660Y007346D01*
X012459Y007370D01*
X012329Y007406D01*
X012223Y007465D01*
X012128Y007524D01*
X012046Y007606D01*
X011986Y007677D01*
X011939Y007760D01*
X011916Y007843D01*
X011904Y007913D01*
X011585Y007913D01*
X011538Y007819D01*
X011479Y007713D01*
X011396Y007642D01*
X011301Y007571D01*
X011207Y007512D01*
X011101Y007465D01*
X010959Y007429D01*
X010770Y007429D01*
X010935Y007382D01*
X011089Y007358D01*
X011254Y007346D01*
X011420Y007370D01*
X011585Y007417D01*
X011762Y007476D01*
X011892Y007547D01*
X011963Y007488D01*
X012057Y007429D01*
X012152Y007382D01*
X012246Y007346D01*
X013652Y007346D01*
X013770Y007358D01*
X013888Y007406D01*
X013971Y007453D01*
X014077Y007417D01*
X014195Y007358D01*
X014337Y007323D01*
X014467Y007311D01*
X014585Y007287D01*
X014715Y007287D01*
X014857Y007311D01*
X014975Y007323D01*
X014975Y007417D01*
X014939Y007417D01*
X014889Y007422D01*
X014840Y007437D01*
X014795Y007461D01*
X014755Y007493D01*
X014723Y007533D01*
X014699Y007578D01*
X014684Y007626D01*
X014679Y007677D01*
X014679Y008740D01*
X014679Y008745D02*
X013865Y008745D01*
X013864Y008717D02*
X013864Y007665D01*
X013864Y007678D02*
X014679Y007678D01*
X014679Y007727D02*
X013864Y007727D01*
X013864Y007775D02*
X014679Y007775D01*
X014679Y007824D02*
X013864Y007824D01*
X013864Y007872D02*
X014679Y007872D01*
X014679Y007921D02*
X013864Y007921D01*
X013864Y007969D02*
X014679Y007969D01*
X014679Y008018D02*
X013864Y008018D01*
X013864Y008066D02*
X014679Y008066D01*
X014679Y008115D02*
X013864Y008115D01*
X013864Y008163D02*
X014679Y008163D01*
X014679Y008212D02*
X013864Y008212D01*
X013864Y008260D02*
X014679Y008260D01*
X014679Y008309D02*
X013864Y008309D01*
X013864Y008357D02*
X014679Y008357D01*
X014679Y008406D02*
X013864Y008406D01*
X013864Y008454D02*
X014679Y008454D01*
X014679Y008503D02*
X013864Y008503D01*
X013864Y008551D02*
X014679Y008551D01*
X014679Y008600D02*
X013864Y008600D01*
X013864Y008648D02*
X014679Y008648D01*
X014679Y008697D02*
X013864Y008697D01*
X013870Y008794D02*
X014675Y008794D01*
X014975Y007323D02*
X014903Y007308D01*
X014830Y007298D01*
X014756Y007291D01*
X014682Y007287D01*
X014609Y007288D01*
X014535Y007292D01*
X014462Y007299D01*
X014389Y007311D01*
X014317Y007325D01*
X014245Y007344D01*
X014175Y007366D01*
X014105Y007391D01*
X014038Y007420D01*
X013971Y007453D01*
X013941Y007436D02*
X013745Y007436D01*
X013800Y007484D02*
X014767Y007484D01*
X014723Y007533D02*
X013833Y007533D01*
X013853Y007581D02*
X014698Y007581D01*
X014684Y007630D02*
X013862Y007630D01*
X014022Y007436D02*
X014845Y007436D01*
X014939Y007417D02*
X014975Y007417D01*
X014975Y007323D01*
X014975Y007339D02*
X014274Y007339D01*
X014138Y007387D02*
X014975Y007387D01*
X014731Y007290D02*
X014572Y007290D01*
X013842Y007387D02*
X012812Y007387D01*
X012934Y007436D02*
X013605Y007436D01*
X013593Y007394D02*
X013593Y008835D01*
X013605Y008842D02*
X012137Y008842D01*
X012147Y008794D02*
X013093Y008794D01*
X013032Y008745D02*
X012156Y008745D01*
X012164Y008697D02*
X013007Y008697D01*
X012990Y008648D02*
X012165Y008648D01*
X012152Y008669D02*
X012152Y008091D01*
X012174Y008115D02*
X012980Y008115D01*
X012981Y008163D02*
X012173Y008163D01*
X012172Y008212D02*
X012982Y008212D01*
X012983Y008260D02*
X012172Y008260D01*
X012171Y008309D02*
X012984Y008309D01*
X012985Y008357D02*
X012170Y008357D01*
X012169Y008406D02*
X012986Y008406D01*
X012987Y008454D02*
X012168Y008454D01*
X012167Y008503D02*
X012988Y008503D01*
X012989Y008551D02*
X012166Y008551D01*
X012165Y008600D02*
X012990Y008600D01*
X012990Y008587D02*
X012991Y008615D01*
X012996Y008643D01*
X013004Y008670D01*
X013015Y008695D01*
X013029Y008719D01*
X013047Y008741D01*
X013067Y008761D01*
X013089Y008778D01*
X013114Y008792D01*
X013140Y008803D01*
X013167Y008810D01*
X013194Y008814D01*
X013223Y008815D01*
X013250Y008812D01*
X013250Y008811D02*
X013274Y008811D01*
X013274Y008055D01*
X013274Y008066D02*
X013605Y008066D01*
X013605Y008018D02*
X013274Y008018D01*
X013274Y007969D02*
X013605Y007969D01*
X013970Y007453D02*
X013931Y007427D01*
X013890Y007404D01*
X013847Y007384D01*
X013802Y007367D01*
X013757Y007354D01*
X013711Y007344D01*
X013664Y007338D01*
X013616Y007335D01*
X012341Y007335D01*
X012397Y007387D02*
X012142Y007387D01*
X012047Y007436D02*
X012275Y007436D01*
X012192Y007484D02*
X011969Y007484D01*
X011910Y007533D02*
X012119Y007533D01*
X012071Y007581D02*
X011315Y007581D01*
X011380Y007630D02*
X012026Y007630D01*
X011986Y007678D02*
X011438Y007678D01*
X011486Y007727D02*
X011958Y007727D01*
X011935Y007775D02*
X011513Y007775D01*
X011540Y007824D02*
X011921Y007824D01*
X011911Y007872D02*
X011564Y007872D01*
X011585Y007913D02*
X011904Y007913D01*
X012185Y007969D02*
X012956Y007969D01*
X012974Y008018D02*
X012179Y008018D01*
X012175Y008066D02*
X012979Y008066D01*
X012353Y009248D02*
X012410Y009282D01*
X012469Y009314D01*
X012530Y009342D01*
X012592Y009367D01*
X012656Y009389D01*
X012720Y009407D01*
X012786Y009422D01*
X012852Y009434D01*
X012918Y009442D01*
X012985Y009446D01*
X013053Y009447D01*
X013120Y009444D01*
X013186Y009438D01*
X013253Y009428D01*
X013318Y009415D01*
X013383Y009398D01*
X013447Y009377D01*
X013510Y009354D01*
X013446Y009376D02*
X012619Y009376D01*
X012501Y009327D02*
X014473Y009327D01*
X014490Y009319D02*
X014077Y009319D01*
X014211Y009424D02*
X013719Y009424D01*
X013574Y009376D02*
X014368Y009376D01*
X013881Y009279D02*
X012409Y009279D01*
X012307Y009279D02*
X011794Y009279D01*
X011872Y009230D02*
X013796Y009230D01*
X013740Y009182D02*
X011933Y009182D01*
X011976Y009133D02*
X013697Y009133D01*
X013664Y009085D02*
X012017Y009085D01*
X012049Y009036D02*
X013642Y009036D01*
X013625Y008988D02*
X012073Y008988D01*
X012094Y008939D02*
X013612Y008939D01*
X013607Y008891D02*
X012115Y008891D01*
X011843Y008822D02*
X011862Y008753D01*
X011868Y008681D01*
X011868Y008209D01*
X011443Y008209D01*
X011373Y008215D01*
X011306Y008233D01*
X011242Y008262D01*
X011185Y008303D01*
X011136Y008352D01*
X011095Y008409D01*
X011066Y008473D01*
X011048Y008541D01*
X011042Y008610D01*
X011042Y008681D01*
X011048Y008753D01*
X011067Y008822D01*
X011097Y008888D01*
X011138Y008947D01*
X011189Y008998D01*
X011248Y009039D01*
X011314Y009070D01*
X011383Y009088D01*
X011455Y009094D01*
X011527Y009088D01*
X011596Y009070D01*
X011662Y009039D01*
X011721Y008998D01*
X011772Y008947D01*
X011813Y008888D01*
X011843Y008822D01*
X011834Y008842D02*
X011076Y008842D01*
X011059Y008794D02*
X011851Y008794D01*
X011863Y008745D02*
X011047Y008745D01*
X011043Y008697D02*
X011867Y008697D01*
X011868Y008648D02*
X011042Y008648D01*
X011043Y008600D02*
X011868Y008600D01*
X011868Y008551D02*
X011047Y008551D01*
X011058Y008503D02*
X011868Y008503D01*
X011868Y008454D02*
X011075Y008454D01*
X011098Y008406D02*
X011868Y008406D01*
X011868Y008357D02*
X011132Y008357D01*
X011179Y008309D02*
X011868Y008309D01*
X011868Y008260D02*
X011248Y008260D01*
X011410Y008212D02*
X011868Y008212D01*
X011868Y008209D02*
X011502Y008209D01*
X010735Y009035D02*
X010778Y009085D01*
X010825Y009133D01*
X010874Y009178D01*
X010925Y009220D01*
X010979Y009260D01*
X011034Y009296D01*
X011092Y009329D01*
X011152Y009359D01*
X011213Y009385D01*
X011275Y009408D01*
X011339Y009428D01*
X011403Y009444D01*
X011469Y009456D01*
X011534Y009465D01*
X011601Y009470D01*
X011667Y009471D01*
X011734Y009469D01*
X011800Y009462D01*
X011866Y009453D01*
X011931Y009439D01*
X011995Y009422D01*
X012058Y009401D01*
X012120Y009377D01*
X012181Y009350D01*
X012240Y009319D01*
X012297Y009285D01*
X012352Y009248D01*
X012218Y009327D02*
X011687Y009327D01*
X011540Y009085D02*
X011370Y009085D01*
X011244Y009036D02*
X011666Y009036D01*
X011731Y008988D02*
X011179Y008988D01*
X011133Y008939D02*
X011777Y008939D01*
X011811Y008891D02*
X011099Y008891D01*
X010827Y008988D02*
X010647Y008988D01*
X010573Y008939D02*
X010810Y008939D01*
X010793Y008891D02*
X010512Y008891D01*
X010462Y008842D02*
X010742Y008842D01*
X010625Y008794D02*
X010418Y008794D01*
X010377Y008745D02*
X010543Y008745D01*
X010482Y008697D02*
X010340Y008697D01*
X010306Y008648D02*
X010425Y008648D01*
X010370Y008600D02*
X010286Y008600D01*
X010267Y008551D02*
X010339Y008551D01*
X010308Y008503D02*
X010254Y008503D01*
X010244Y008454D02*
X010278Y008454D01*
X010247Y008406D02*
X010233Y008406D01*
X010479Y008309D02*
X010824Y008309D01*
X010823Y008311D02*
X010801Y008394D01*
X010794Y008480D01*
X010794Y008539D01*
X010699Y008516D01*
X010581Y008445D01*
X010486Y008327D01*
X010439Y008209D01*
X010427Y008055D01*
X010475Y007902D01*
X010581Y007783D01*
X010723Y007689D01*
X010900Y007677D01*
X011065Y007724D01*
X011195Y007854D01*
X011290Y007984D01*
X011203Y007992D01*
X011120Y008014D01*
X011042Y008051D01*
X010971Y008100D01*
X010910Y008161D01*
X010860Y008232D01*
X010823Y008311D01*
X010811Y008357D02*
X010511Y008357D01*
X010549Y008406D02*
X010800Y008406D01*
X010796Y008454D02*
X010596Y008454D01*
X010677Y008503D02*
X010794Y008503D01*
X010847Y008260D02*
X010460Y008260D01*
X010440Y008212D02*
X010875Y008212D01*
X011584Y007913D02*
X011560Y007863D01*
X011532Y007815D01*
X011500Y007768D01*
X011466Y007724D01*
X011428Y007682D01*
X011388Y007643D01*
X011346Y007606D01*
X011301Y007573D01*
X011253Y007543D01*
X011204Y007516D01*
X011153Y007492D01*
X011101Y007472D01*
X011047Y007456D01*
X010993Y007443D01*
X010938Y007434D01*
X010882Y007428D01*
X010826Y007427D01*
X010770Y007429D01*
X010917Y007387D02*
X011479Y007387D01*
X011640Y007436D02*
X010985Y007436D01*
X011144Y007484D02*
X011776Y007484D01*
X011865Y007533D02*
X011240Y007533D01*
X010903Y007678D02*
X010887Y007678D01*
X011067Y007727D02*
X010666Y007727D01*
X010594Y007775D02*
X011116Y007775D01*
X011164Y007824D02*
X010545Y007824D01*
X010501Y007872D02*
X011208Y007872D01*
X010781Y008858D02*
X010724Y008834D01*
X010667Y008806D01*
X010613Y008775D01*
X010560Y008741D01*
X010510Y008704D01*
X010461Y008664D01*
X010415Y008622D01*
X010372Y008577D01*
X010331Y008529D01*
X010293Y008480D01*
X010258Y008428D01*
X010226Y008374D01*
X010436Y008163D02*
X010908Y008163D01*
X010957Y008115D02*
X010432Y008115D01*
X010428Y008066D02*
X011020Y008066D01*
X011113Y008018D02*
X010439Y008018D01*
X010454Y007969D02*
X011279Y007969D01*
X011243Y007921D02*
X010469Y007921D01*
X010794Y008539D02*
X010753Y008531D01*
X010714Y008519D01*
X010675Y008503D01*
X010638Y008484D01*
X010604Y008462D01*
X010571Y008436D01*
X010541Y008408D01*
X010514Y008376D01*
X010489Y008343D01*
X010468Y008307D01*
X010451Y008270D01*
X010437Y008231D01*
X010426Y008190D01*
X010420Y008149D01*
X010417Y008108D01*
X010418Y008067D01*
X010423Y008025D01*
X010432Y007985D01*
X010445Y007945D01*
X010461Y007907D01*
X010481Y007871D01*
X010504Y007836D01*
X010530Y007804D01*
X010559Y007775D01*
X010591Y007748D01*
X010625Y007724D01*
X010661Y007704D01*
X010699Y007687D01*
X010738Y007673D01*
X010778Y007664D01*
X010819Y007658D01*
X010861Y007656D01*
X010902Y007658D01*
X010943Y007664D01*
X010984Y007673D01*
X011023Y007687D01*
X011061Y007703D01*
X011097Y007724D01*
X011131Y007747D01*
X011163Y007774D01*
X011192Y007804D01*
X011218Y007836D01*
X011241Y007870D01*
X011261Y007907D01*
X011277Y007945D01*
X011290Y007984D01*
X010227Y008374D02*
X010234Y008429D01*
X010244Y008483D01*
X010259Y008536D01*
X010277Y008588D01*
X010299Y008638D01*
X010324Y008687D01*
X010353Y008734D01*
X010385Y008779D01*
X010420Y008821D01*
X010457Y008861D01*
X010498Y008898D01*
X010541Y008932D01*
X010587Y008963D01*
X010634Y008990D01*
X010684Y009015D01*
X010735Y009035D01*
X010735Y009036D02*
X010844Y009036D01*
X010878Y009085D02*
X010784Y009085D01*
X010833Y009133D02*
X010927Y009133D01*
X010895Y009182D02*
X010975Y009182D01*
X010958Y009230D02*
X011035Y009230D01*
X011020Y009279D02*
X011116Y009279D01*
X011112Y009327D02*
X011236Y009327D01*
X011220Y009376D02*
X012113Y009376D01*
X011969Y009424D02*
X011368Y009424D01*
X011041Y008669D02*
X011043Y008629D01*
X011048Y008589D01*
X011057Y008550D01*
X011069Y008511D01*
X011084Y008474D01*
X011103Y008439D01*
X011124Y008405D01*
X011149Y008373D01*
X011176Y008343D01*
X011206Y008316D01*
X011238Y008291D01*
X011272Y008270D01*
X011307Y008251D01*
X011344Y008236D01*
X011383Y008224D01*
X011422Y008215D01*
X011462Y008210D01*
X011502Y008208D01*
X011289Y007984D02*
X011242Y007998D01*
X011196Y008015D01*
X011151Y008035D01*
X011107Y008059D01*
X011066Y008086D01*
X011027Y008116D01*
X010990Y008149D01*
X010956Y008185D01*
X010924Y008223D01*
X010896Y008263D01*
X010870Y008306D01*
X010848Y008350D01*
X010829Y008395D01*
X010814Y008442D01*
X010802Y008490D01*
X010794Y008539D01*
X010770Y007429D02*
X010835Y007406D01*
X010901Y007387D01*
X010968Y007372D01*
X011036Y007360D01*
X011105Y007352D01*
X011173Y007348D01*
X011242Y007347D01*
X011311Y007351D01*
X011380Y007358D01*
X011448Y007369D01*
X011515Y007384D01*
X011581Y007402D01*
X011647Y007424D01*
X011710Y007450D01*
X011773Y007479D01*
X011834Y007511D01*
X011892Y007547D01*
X012281Y007824D02*
X012873Y007824D01*
X012909Y007872D02*
X012226Y007872D01*
X012201Y007921D02*
X012938Y007921D01*
X012818Y007775D02*
X012351Y007775D01*
X012407Y007727D02*
X012742Y007727D01*
X013107Y007581D02*
X013605Y007581D01*
X013605Y007533D02*
X013063Y007533D01*
X013020Y007484D02*
X013605Y007484D01*
X013605Y007630D02*
X013138Y007630D01*
X013168Y007678D02*
X013605Y007678D01*
X013865Y007665D02*
X013863Y007635D01*
X013858Y007604D01*
X013850Y007575D01*
X013838Y007547D01*
X013823Y007520D01*
X013806Y007495D01*
X013785Y007473D01*
X013763Y007452D01*
X013738Y007435D01*
X013711Y007420D01*
X013683Y007408D01*
X013654Y007400D01*
X013623Y007395D01*
X013593Y007393D01*
X013605Y007727D02*
X013196Y007727D01*
X013223Y007775D02*
X013605Y007775D01*
X013605Y007824D02*
X013251Y007824D01*
X013265Y007872D02*
X013605Y007872D01*
X013605Y007921D02*
X013270Y007921D01*
X013274Y008115D02*
X013605Y008115D01*
X013605Y008163D02*
X013274Y008163D01*
X013274Y008212D02*
X013605Y008212D01*
X013605Y008260D02*
X013274Y008260D01*
X013274Y008309D02*
X013605Y008309D01*
X013605Y008357D02*
X013274Y008357D01*
X013274Y008406D02*
X013605Y008406D01*
X013605Y008454D02*
X013274Y008454D01*
X013274Y008503D02*
X013605Y008503D01*
X013605Y008551D02*
X013274Y008551D01*
X013274Y008600D02*
X013605Y008600D01*
X013605Y008648D02*
X013274Y008648D01*
X013274Y008697D02*
X013605Y008697D01*
X013605Y008745D02*
X013274Y008745D01*
X013274Y008794D02*
X013605Y008794D01*
X013883Y008842D02*
X014664Y008842D01*
X014643Y008891D02*
X013905Y008891D01*
X013939Y008939D02*
X014611Y008939D01*
X014560Y008988D02*
X013991Y008988D01*
X014094Y009036D02*
X014460Y009036D01*
X014372Y009047D02*
X014195Y009047D01*
X014077Y009319D02*
X014035Y009317D01*
X013993Y009312D01*
X013952Y009303D01*
X013911Y009290D01*
X013872Y009274D01*
X013835Y009254D01*
X013799Y009231D01*
X013766Y009206D01*
X013735Y009177D01*
X013706Y009146D01*
X013681Y009113D01*
X013658Y009077D01*
X013638Y009040D01*
X013622Y009001D01*
X013609Y008960D01*
X013600Y008919D01*
X013595Y008877D01*
X013593Y008835D01*
X013864Y008717D02*
X013866Y008752D01*
X013871Y008786D01*
X013880Y008819D01*
X013893Y008852D01*
X013908Y008883D01*
X013927Y008912D01*
X013949Y008938D01*
X013974Y008963D01*
X014000Y008985D01*
X014030Y009004D01*
X014060Y009019D01*
X014093Y009032D01*
X014126Y009041D01*
X014160Y009046D01*
X014195Y009048D01*
X014372Y009047D02*
X014404Y009045D01*
X014436Y009040D01*
X014467Y009032D01*
X014497Y009020D01*
X014526Y009006D01*
X014552Y008988D01*
X014577Y008968D01*
X014600Y008945D01*
X014620Y008920D01*
X014638Y008894D01*
X014652Y008865D01*
X014664Y008835D01*
X014672Y008804D01*
X014677Y008772D01*
X014679Y008740D01*
X014490Y009319D02*
X014434Y009348D01*
X014375Y009374D01*
X014316Y009396D01*
X014255Y009415D01*
X014193Y009431D01*
X014131Y009442D01*
X014068Y009450D01*
X014004Y009454D01*
X013940Y009455D01*
X013877Y009451D01*
X013814Y009444D01*
X013751Y009434D01*
X013689Y009419D01*
X013628Y009401D01*
X013568Y009379D01*
X013510Y009354D01*
X013278Y009424D02*
X012801Y009424D01*
X012152Y008669D02*
X012149Y008721D01*
X012142Y008773D01*
X012131Y008824D01*
X012116Y008873D01*
X012098Y008922D01*
X012076Y008969D01*
X012051Y009015D01*
X012022Y009058D01*
X011991Y009099D01*
X011956Y009138D01*
X011919Y009174D01*
X011879Y009207D01*
X011836Y009238D01*
X011792Y009265D01*
X011746Y009288D01*
X011698Y009308D01*
X011648Y009325D01*
X011598Y009337D01*
X011547Y009346D01*
X011495Y009352D01*
X011443Y009353D01*
X011391Y009350D01*
X011340Y009344D01*
X011289Y009334D01*
X011239Y009320D01*
X011190Y009302D01*
X011142Y009281D01*
X011096Y009257D01*
X011053Y009229D01*
X011011Y009198D01*
X010972Y009164D01*
X010935Y009127D01*
X010901Y009087D01*
X010871Y009045D01*
X010843Y009001D01*
X010819Y008955D01*
X010798Y008908D01*
X010781Y008858D01*
X012152Y008091D02*
X012154Y008051D01*
X012160Y008012D01*
X012169Y007973D01*
X012182Y007935D01*
X012199Y007899D01*
X012219Y007864D01*
X012242Y007832D01*
X012268Y007802D01*
X012297Y007774D01*
X012328Y007750D01*
X012362Y007728D01*
X012397Y007710D01*
X012434Y007695D01*
X012472Y007684D01*
X012511Y007676D01*
X012551Y007672D01*
X012591Y007672D01*
X012631Y007676D01*
X012670Y007684D01*
X012708Y007695D01*
X012745Y007710D01*
X012780Y007728D01*
X012814Y007750D01*
X012845Y007774D01*
X012874Y007802D01*
X012900Y007832D01*
X012923Y007864D01*
X012943Y007899D01*
X012960Y007935D01*
X012973Y007973D01*
X012982Y008012D01*
X012988Y008051D01*
X012990Y008091D01*
X013273Y008055D02*
X013271Y008003D01*
X013265Y007951D01*
X013255Y007900D01*
X013242Y007850D01*
X013225Y007801D01*
X013204Y007753D01*
X013179Y007707D01*
X013151Y007663D01*
X013120Y007621D01*
X013086Y007582D01*
X013049Y007545D01*
X013009Y007512D01*
X012967Y007481D01*
X012923Y007453D01*
X012877Y007429D01*
X012829Y007409D01*
X012780Y007392D01*
X012729Y007379D01*
X012678Y007370D01*
X012626Y007364D01*
X012574Y007363D01*
X012522Y007366D01*
X012471Y007372D01*
X012419Y007382D01*
X012369Y007396D01*
X012320Y007414D01*
X012273Y007435D01*
X012227Y007460D01*
X012183Y007489D01*
X012142Y007520D01*
X012103Y007555D01*
X012067Y007592D01*
X012033Y007632D01*
X012003Y007674D01*
X011976Y007719D01*
X011953Y007765D01*
X011933Y007813D01*
X011916Y007863D01*
X011904Y007913D01*
X011892Y007547D02*
X011923Y007513D01*
X011957Y007481D01*
X011994Y007452D01*
X012032Y007426D01*
X012073Y007403D01*
X012115Y007383D01*
X012158Y007367D01*
X012203Y007353D01*
X012248Y007344D01*
X012294Y007337D01*
X012341Y007334D01*
X012991Y008091D02*
X012994Y008256D01*
X012994Y008422D01*
X012991Y008587D01*
X011868Y008681D02*
X011871Y008524D01*
X011871Y008366D01*
X011868Y008209D01*
M02*
