G75*
%MOIN*%
%OFA0B0*%
%FSLAX24Y24*%
%IPPOS*%
%LPD*%
%AMOC8*
5,1,8,0,0,1.08239X$1,22.5*
%
%ADD10C,0.0800*%
%ADD11C,0.1326*%
%ADD12C,0.0493*%
%ADD13R,0.0769X0.1320*%
%ADD14OC8,0.0532*%
%ADD15R,0.0300X0.0930*%
%ADD16R,0.0493X0.0454*%
%ADD17C,0.1370*%
%ADD18C,0.0926*%
%ADD19C,0.0651*%
%ADD20C,0.0350*%
%ADD21C,0.0500*%
%ADD22R,0.0454X0.0493*%
%ADD23C,0.0532*%
%ADD24R,0.0336X0.0651*%
%ADD25R,0.0454X0.0296*%
%ADD26R,0.0454X0.0375*%
%ADD27C,0.0414*%
%ADD28R,0.0436X0.0436*%
D10*
X008093Y003803D03*
X008093Y004737D03*
X008093Y005625D03*
X008093Y006559D03*
X010845Y004868D03*
X011773Y004868D03*
X012660Y004868D03*
X013589Y004868D03*
D11*
X006754Y001287D03*
X007148Y002898D03*
X007148Y007465D03*
X006754Y009161D03*
X021715Y009161D03*
X021715Y001287D03*
D12*
X007109Y004295D03*
X007109Y006067D03*
D13*
X012089Y003169D03*
X014294Y003169D03*
D14*
X014229Y001681D03*
X014729Y001681D03*
X015479Y001681D03*
X015979Y001681D03*
X016729Y001681D03*
X017229Y001681D03*
X013479Y001681D03*
X012979Y001681D03*
X012229Y001681D03*
X011729Y001681D03*
D15*
X016398Y005042D03*
X016898Y005042D03*
X017398Y005042D03*
X017898Y005042D03*
X017898Y007692D03*
X017398Y007692D03*
X016898Y007692D03*
X016398Y007692D03*
D16*
X015520Y007415D03*
X015520Y008085D03*
X015520Y008853D03*
X015520Y009522D03*
X017177Y009522D03*
X017177Y008853D03*
X018835Y008853D03*
X019662Y008853D03*
X019662Y009522D03*
X018835Y009522D03*
X018994Y004325D03*
X019664Y004325D03*
D17*
X014802Y005882D03*
X009632Y005882D03*
D18*
X006754Y009161D03*
X021715Y009161D03*
X021715Y001287D03*
X006754Y001287D03*
D19*
X021421Y003750D02*
X022012Y003750D01*
X022012Y004750D02*
X021421Y004750D01*
X021421Y005750D02*
X022012Y005750D01*
X022012Y006750D02*
X021421Y006750D01*
D20*
X020244Y001912D03*
X018276Y001912D03*
D21*
X017882Y002897D03*
X020638Y002897D03*
D22*
X019664Y003523D03*
X018994Y003523D03*
X018006Y008853D03*
X018006Y009522D03*
X016349Y009522D03*
X016349Y008853D03*
D23*
X018431Y008193D02*
X018904Y008193D01*
X019904Y008193D02*
X020376Y008193D01*
X020376Y007193D02*
X019904Y007193D01*
X018904Y007193D02*
X018431Y007193D01*
X018431Y006193D02*
X018904Y006193D01*
X019904Y006193D02*
X020376Y006193D01*
D24*
X010396Y001976D03*
X009805Y001976D03*
X008624Y001976D03*
D25*
X008073Y000894D03*
X010947Y000894D03*
D26*
X010947Y001720D03*
X008073Y001720D03*
D27*
X008920Y001287D03*
X010101Y001287D03*
D28*
X012842Y002750D03*
X013217Y002750D03*
X013592Y002750D03*
X013592Y003125D03*
X013217Y003125D03*
X012842Y003125D03*
X012842Y003500D03*
X013217Y003500D03*
X013592Y003500D03*
X016073Y003350D03*
X016467Y003350D03*
X016467Y004125D03*
X016967Y004125D03*
X020217Y004000D03*
X009592Y002875D03*
X009217Y003250D03*
M02*
