%
M48
M72
T01C0.0236
T02C0.0315
T03C0.0354
T04C0.0360
T05C0.0394
T06C0.0433
T07C0.0472
T08C0.0866
T09C0.0910
%
T01
X9217Y3250
X9592Y2875
X12842Y2750
X13217Y2750
X13592Y2750
X13592Y3125
X13217Y3125
X12842Y3125
X12842Y3500
X13217Y3500
X13592Y3500
X16073Y3350
X16467Y3350
X16467Y4125
X16967Y4125
X20217Y4000
T02
X20244Y1912
X18276Y1912
X17229Y1681
X16729Y1681
X15979Y1681
X15479Y1681
X14729Y1681
X14229Y1681
X13479Y1681
X12979Y1681
X12229Y1681
X11729Y1681
X18904Y6193
X19904Y6193
X19904Y7193
X18904Y7193
X18904Y8193
X19904Y8193
T03
X10101Y1287
X8920Y1287
T04
X8093Y3803
X8093Y4737
X8093Y5625
X8093Y6559
X10845Y4868
X11773Y4868
X12660Y4868
X13589Y4868
T05
X21717Y4750
X21717Y3750
X21717Y5750
X21717Y6750
T06
X7109Y6067
X7109Y4295
T07
X17882Y2897
X20638Y2897
T08
X6754Y1287
X6754Y1287
X7148Y2898
X7148Y7465
X6754Y9161
X6754Y9161
X21715Y9161
X21715Y9161
X21715Y1287
X21715Y1287
T09
X14802Y5882
X9632Y5882
M30
