G75*
%MOIN*%
%OFA0B0*%
%FSLAX24Y24*%
%IPPOS*%
%LPD*%
%AMOC8*
5,1,8,0,0,1.08239X$1,22.5*
%
%ADD10C,0.0080*%
%ADD11C,0.0040*%
%ADD12C,0.0020*%
%ADD13C,0.0030*%
%ADD14C,0.0060*%
%ADD15C,0.0050*%
D10*
X005967Y002819D02*
X006360Y002819D01*
X005967Y002819D02*
X005967Y007543D01*
X006360Y007543D01*
X007542Y006756D02*
X007542Y003606D01*
X009617Y004363D02*
X010517Y004363D01*
X009617Y004363D02*
X009617Y005063D01*
X013917Y004363D02*
X014817Y004363D01*
X014817Y005063D01*
X018473Y002700D02*
X020047Y002700D01*
X020697Y002306D02*
X020697Y001125D01*
X017823Y001125D01*
X017823Y002306D01*
X010829Y001406D02*
X010829Y001169D01*
X010573Y000776D02*
X008447Y000776D01*
X008191Y001169D02*
X008191Y001406D01*
X008920Y001799D02*
X009510Y001799D01*
D11*
X011371Y002470D02*
X011371Y002777D01*
X011448Y002853D01*
X011602Y002853D01*
X011678Y002777D01*
X011678Y002470D01*
X011602Y002393D01*
X011448Y002393D01*
X011371Y002470D01*
X011832Y002470D02*
X011908Y002393D01*
X012062Y002393D01*
X012139Y002470D01*
X012139Y002853D01*
X012292Y002853D02*
X012599Y002853D01*
X012446Y002853D02*
X012446Y002393D01*
X012753Y002393D02*
X012753Y002853D01*
X012983Y002853D01*
X013059Y002777D01*
X013059Y002623D01*
X012983Y002546D01*
X012753Y002546D01*
X013213Y002470D02*
X013213Y002853D01*
X013520Y002853D02*
X013520Y002470D01*
X013443Y002393D01*
X013290Y002393D01*
X013213Y002470D01*
X013827Y002393D02*
X013827Y002853D01*
X013980Y002853D02*
X013673Y002853D01*
X011832Y002853D02*
X011832Y002470D01*
X009144Y003654D02*
X009144Y003808D01*
X009144Y003731D02*
X008683Y003731D01*
X008683Y003654D02*
X008683Y003808D01*
X008683Y003961D02*
X009144Y004268D01*
X008683Y004268D01*
X008683Y004422D02*
X008683Y004652D01*
X008760Y004729D01*
X008913Y004729D01*
X008990Y004652D01*
X008990Y004422D01*
X009144Y004422D02*
X008683Y004422D01*
X008683Y004882D02*
X009067Y004882D01*
X009144Y004959D01*
X009144Y005112D01*
X009067Y005189D01*
X008683Y005189D01*
X008683Y005343D02*
X008683Y005649D01*
X008683Y005496D02*
X009144Y005496D01*
X009144Y003961D02*
X008683Y003961D01*
D12*
X009615Y001028D02*
X009578Y000991D01*
X009578Y000954D01*
X009615Y000917D01*
X009688Y000917D01*
X009725Y000881D01*
X009725Y000844D01*
X009688Y000807D01*
X009615Y000807D01*
X009578Y000844D01*
X009615Y001028D02*
X009688Y001028D01*
X009725Y000991D01*
X009799Y000954D02*
X009872Y001028D01*
X009872Y000807D01*
X009799Y000807D02*
X009946Y000807D01*
X015014Y003059D02*
X015014Y003279D01*
X015124Y003279D01*
X015160Y003243D01*
X015160Y003169D01*
X015124Y003133D01*
X015014Y003133D01*
X015087Y003133D02*
X015160Y003059D01*
X015235Y003059D02*
X015381Y003059D01*
X015308Y003059D02*
X015308Y003279D01*
X015235Y003206D01*
X018272Y003413D02*
X018272Y003633D01*
X018382Y003633D01*
X018419Y003596D01*
X018419Y003523D01*
X018382Y003486D01*
X018272Y003486D01*
X018345Y003486D02*
X018419Y003413D01*
X018493Y003450D02*
X018530Y003413D01*
X018603Y003413D01*
X018640Y003450D01*
X018640Y003486D01*
X018603Y003523D01*
X018566Y003523D01*
X018603Y003523D02*
X018640Y003560D01*
X018640Y003596D01*
X018603Y003633D01*
X018530Y003633D01*
X018493Y003596D01*
X018493Y004215D02*
X018640Y004215D01*
X018566Y004215D02*
X018566Y004435D01*
X018493Y004362D01*
X018419Y004398D02*
X018382Y004435D01*
X018309Y004435D01*
X018272Y004398D01*
X018272Y004252D01*
X018309Y004215D01*
X018382Y004215D01*
X018419Y004252D01*
X020314Y003823D02*
X020314Y003677D01*
X020351Y003640D01*
X020424Y003640D01*
X020461Y003677D01*
X020461Y003750D01*
X020387Y003750D01*
X020314Y003823D02*
X020351Y003860D01*
X020424Y003860D01*
X020461Y003823D01*
X020535Y003860D02*
X020682Y003640D01*
X020682Y003860D01*
X020756Y003860D02*
X020866Y003860D01*
X020903Y003823D01*
X020903Y003677D01*
X020866Y003640D01*
X020756Y003640D01*
X020756Y003860D01*
X020535Y003860D02*
X020535Y003640D01*
X020571Y004640D02*
X020645Y004640D01*
X020682Y004677D01*
X020756Y004677D02*
X020792Y004640D01*
X020866Y004640D01*
X020903Y004677D01*
X020756Y004677D02*
X020756Y004823D01*
X020792Y004860D01*
X020866Y004860D01*
X020903Y004823D01*
X020682Y004823D02*
X020645Y004860D01*
X020571Y004860D01*
X020535Y004823D01*
X020535Y004677D01*
X020571Y004640D01*
X020461Y004713D02*
X020461Y004860D01*
X020461Y004713D02*
X020387Y004640D01*
X020314Y004713D01*
X020314Y004860D01*
X020387Y005640D02*
X020498Y005640D01*
X020534Y005677D01*
X020534Y005823D01*
X020498Y005860D01*
X020387Y005860D01*
X020387Y005640D01*
X020608Y005640D02*
X020682Y005640D01*
X020645Y005640D02*
X020645Y005860D01*
X020608Y005860D02*
X020682Y005860D01*
X020756Y005823D02*
X020756Y005677D01*
X020792Y005640D01*
X020866Y005640D01*
X020903Y005677D01*
X020903Y005823D01*
X020866Y005860D01*
X020792Y005860D01*
X020756Y005823D01*
X020756Y006640D02*
X020756Y006860D01*
X020792Y006750D02*
X020903Y006640D01*
X020756Y006713D02*
X020903Y006860D01*
X020682Y006640D02*
X020535Y006640D01*
X020535Y006860D01*
X020461Y006823D02*
X020424Y006860D01*
X020351Y006860D01*
X020314Y006823D01*
X020314Y006677D01*
X020351Y006640D01*
X020424Y006640D01*
X020461Y006677D01*
X017834Y005902D02*
X017687Y005902D01*
X017687Y005792D01*
X017760Y005829D01*
X017797Y005829D01*
X017834Y005792D01*
X017834Y005719D01*
X017797Y005682D01*
X017724Y005682D01*
X017687Y005719D01*
X017613Y005719D02*
X017576Y005682D01*
X017503Y005682D01*
X017466Y005719D01*
X017466Y005756D01*
X017503Y005792D01*
X017576Y005792D01*
X017613Y005756D01*
X017613Y005719D01*
X017576Y005792D02*
X017613Y005829D01*
X017613Y005866D01*
X017576Y005902D01*
X017503Y005902D01*
X017466Y005866D01*
X017466Y005829D01*
X017503Y005792D01*
X017392Y005866D02*
X017392Y005902D01*
X017392Y005866D02*
X017318Y005792D01*
X017318Y005682D01*
X017318Y005792D02*
X017245Y005866D01*
X017245Y005902D01*
X017171Y005902D02*
X017171Y005682D01*
X017024Y005902D01*
X017024Y005682D01*
X016950Y005682D02*
X016877Y005682D01*
X016913Y005682D02*
X016913Y005902D01*
X016877Y005902D02*
X016950Y005902D01*
X016802Y005902D02*
X016656Y005902D01*
X016729Y005902D02*
X016729Y005682D01*
X016508Y005682D02*
X016508Y005902D01*
X016435Y005902D02*
X016581Y005902D01*
X016360Y005829D02*
X016360Y005682D01*
X016360Y005792D02*
X016214Y005792D01*
X016214Y005829D02*
X016287Y005902D01*
X016360Y005829D01*
X016214Y005829D02*
X016214Y005682D01*
X015258Y007539D02*
X015038Y007539D01*
X015038Y007649D01*
X015075Y007686D01*
X015148Y007686D01*
X015185Y007649D01*
X015185Y007539D01*
X015185Y007612D02*
X015258Y007686D01*
X015222Y007760D02*
X015258Y007797D01*
X015258Y007870D01*
X015222Y007907D01*
X015185Y007907D01*
X015148Y007870D01*
X015148Y007760D01*
X015222Y007760D01*
X015148Y007760D02*
X015075Y007833D01*
X015038Y007907D01*
X014968Y008977D02*
X014968Y009087D01*
X015005Y009123D01*
X015078Y009123D01*
X015115Y009087D01*
X015115Y008977D01*
X015115Y009050D02*
X015188Y009123D01*
X015188Y009198D02*
X015151Y009198D01*
X015005Y009344D01*
X014968Y009344D01*
X014968Y009198D01*
X014968Y008977D02*
X015188Y008977D01*
X015806Y009013D02*
X015843Y008977D01*
X015989Y008977D01*
X016026Y009013D01*
X016026Y009087D01*
X015989Y009123D01*
X016026Y009198D02*
X015879Y009344D01*
X015843Y009344D01*
X015806Y009308D01*
X015806Y009234D01*
X015843Y009198D01*
X015843Y009123D02*
X015806Y009087D01*
X015806Y009013D01*
X016026Y009198D02*
X016026Y009344D01*
X016625Y009344D02*
X016625Y009198D01*
X016735Y009198D01*
X016699Y009271D01*
X016699Y009308D01*
X016735Y009344D01*
X016809Y009344D01*
X016846Y009308D01*
X016846Y009234D01*
X016809Y009198D01*
X016846Y009123D02*
X016772Y009050D01*
X016772Y009087D02*
X016772Y008977D01*
X016846Y008977D02*
X016625Y008977D01*
X016625Y009087D01*
X016662Y009123D01*
X016735Y009123D01*
X016772Y009087D01*
X017463Y009087D02*
X017463Y009013D01*
X017500Y008977D01*
X017647Y008977D01*
X017684Y009013D01*
X017684Y009087D01*
X017647Y009123D01*
X017647Y009198D02*
X017684Y009234D01*
X017684Y009308D01*
X017647Y009344D01*
X017610Y009344D01*
X017574Y009308D01*
X017574Y009271D01*
X017574Y009308D02*
X017537Y009344D01*
X017500Y009344D01*
X017463Y009308D01*
X017463Y009234D01*
X017500Y009198D01*
X017500Y009123D02*
X017463Y009087D01*
X018302Y009087D02*
X018302Y008977D01*
X018522Y008977D01*
X018448Y008977D02*
X018448Y009087D01*
X018412Y009123D01*
X018338Y009123D01*
X018302Y009087D01*
X018448Y009050D02*
X018522Y009123D01*
X018412Y009198D02*
X018412Y009344D01*
X018522Y009308D02*
X018302Y009308D01*
X018412Y009198D01*
X019128Y009234D02*
X019165Y009198D01*
X019128Y009234D02*
X019128Y009308D01*
X019165Y009344D01*
X019202Y009344D01*
X019349Y009198D01*
X019349Y009344D01*
X019349Y009123D02*
X019275Y009050D01*
X019275Y009087D02*
X019275Y008977D01*
X019349Y008977D02*
X019128Y008977D01*
X019128Y009087D01*
X019165Y009123D01*
X019238Y009123D01*
X019275Y009087D01*
D13*
X020267Y007645D02*
X020413Y007645D01*
X020461Y007597D01*
X020461Y007403D01*
X020413Y007355D01*
X020267Y007355D01*
X020267Y007645D01*
X020562Y007645D02*
X020659Y007645D01*
X020610Y007645D02*
X020610Y007355D01*
X020562Y007355D02*
X020659Y007355D01*
X020759Y007403D02*
X020807Y007355D01*
X020904Y007355D01*
X020952Y007403D01*
X020952Y007452D01*
X020904Y007500D01*
X020807Y007500D01*
X020759Y007548D01*
X020759Y007597D01*
X020807Y007645D01*
X020904Y007645D01*
X020952Y007597D01*
X021053Y007645D02*
X021198Y007645D01*
X021247Y007597D01*
X021247Y007500D01*
X021198Y007452D01*
X021053Y007452D01*
X021053Y007355D02*
X021053Y007645D01*
X021348Y007645D02*
X021348Y007355D01*
X021541Y007355D01*
X021642Y007355D02*
X021642Y007548D01*
X021739Y007645D01*
X021836Y007548D01*
X021836Y007355D01*
X021836Y007500D02*
X021642Y007500D01*
X021937Y007597D02*
X022034Y007500D01*
X022034Y007355D01*
X022034Y007500D02*
X022131Y007597D01*
X022131Y007645D01*
X021937Y007645D02*
X021937Y007597D01*
X019760Y001076D02*
X019566Y001076D01*
X019566Y000786D01*
X019760Y000786D01*
X019663Y000931D02*
X019566Y000931D01*
X019465Y001027D02*
X019465Y000834D01*
X019417Y000786D01*
X019272Y000786D01*
X019272Y001076D01*
X019417Y001076D01*
X019465Y001027D01*
X019170Y001027D02*
X019170Y000834D01*
X019122Y000786D01*
X019025Y000786D01*
X018977Y000834D01*
X018977Y001027D01*
X019025Y001076D01*
X019122Y001076D01*
X019170Y001027D01*
X018876Y001076D02*
X018876Y000786D01*
X018682Y000786D02*
X018682Y001076D01*
X018779Y000979D01*
X018876Y001076D01*
X017328Y001043D02*
X017328Y000849D01*
X017280Y000801D01*
X017135Y000801D01*
X017135Y001091D01*
X017280Y001091D01*
X017328Y001043D01*
X017034Y001091D02*
X017034Y000801D01*
X016840Y001091D01*
X016840Y000801D01*
X016739Y000849D02*
X016691Y000801D01*
X016594Y000801D01*
X016545Y000849D01*
X016545Y001043D01*
X016594Y001091D01*
X016691Y001091D01*
X016739Y001043D01*
X016739Y000946D02*
X016642Y000946D01*
X016739Y000946D02*
X016739Y000849D01*
X015950Y000849D02*
X015901Y000801D01*
X015804Y000801D01*
X015756Y000849D01*
X015756Y001043D01*
X015804Y001091D01*
X015901Y001091D01*
X015950Y001043D01*
X015950Y000849D01*
X015655Y000898D02*
X015655Y001091D01*
X015655Y000898D02*
X015558Y000801D01*
X015461Y000898D01*
X015461Y001091D01*
X014700Y000946D02*
X014506Y000946D01*
X014405Y000849D02*
X014357Y000801D01*
X014211Y000801D01*
X014211Y001091D01*
X014357Y001091D01*
X014405Y001043D01*
X014405Y000849D01*
X013468Y000946D02*
X013275Y000946D01*
X013372Y001043D02*
X013372Y000849D01*
X013174Y000849D02*
X013174Y001043D01*
X013125Y001091D01*
X012980Y001091D01*
X012980Y000801D01*
X013125Y000801D01*
X013174Y000849D01*
X012152Y000801D02*
X012055Y000801D01*
X012104Y000801D02*
X012104Y001091D01*
X012152Y001091D02*
X012055Y001091D01*
X011954Y001091D02*
X011954Y000898D01*
X011857Y000801D01*
X011761Y000898D01*
X011761Y001091D01*
D14*
X016218Y005362D02*
X016218Y007372D01*
X018078Y007372D02*
X018078Y005362D01*
D15*
X018126Y007475D02*
X018128Y007490D01*
X018134Y007503D01*
X018143Y007515D01*
X018154Y007524D01*
X018168Y007530D01*
X018183Y007532D01*
X018198Y007530D01*
X018211Y007524D01*
X018223Y007515D01*
X018232Y007504D01*
X018238Y007490D01*
X018240Y007475D01*
X018238Y007460D01*
X018232Y007447D01*
X018223Y007435D01*
X018212Y007426D01*
X018198Y007420D01*
X018183Y007418D01*
X018168Y007420D01*
X018155Y007426D01*
X018143Y007435D01*
X018134Y007446D01*
X018128Y007460D01*
X018126Y007475D01*
M02*
